<mxfile host="app.diagrams.net" agent="Mozilla/5.0 (Windows NT 10.0; Win64; x64) AppleWebKit/537.36 (KHTML, like Gecko) Chrome/140.0.0.0 Safari/537.36" version="28.2.5" pages="4">
  <diagram id="C5RBs43oDa-KdzZeNtuy" name="use case">
    <mxGraphModel grid="1" page="1" gridSize="10" guides="1" tooltips="1" connect="1" arrows="1" fold="1" pageScale="1" pageWidth="827" pageHeight="1169" math="0" shadow="0">
      <root>
        <mxCell id="WIyWlLk6GJQsqaUBKTNV-0" />
        <mxCell id="WIyWlLk6GJQsqaUBKTNV-1" parent="WIyWlLk6GJQsqaUBKTNV-0" />
        <mxCell id="1uGyhjWPo-6Lhae7BOiX-0" value="Login" style="ellipse;whiteSpace=wrap;html=1;" vertex="1" parent="WIyWlLk6GJQsqaUBKTNV-1">
          <mxGeometry x="280" width="90" height="50" as="geometry" />
        </mxCell>
        <mxCell id="1uGyhjWPo-6Lhae7BOiX-1" value="User" style="shape=umlActor;verticalLabelPosition=bottom;verticalAlign=top;html=1;outlineConnect=0;" vertex="1" parent="WIyWlLk6GJQsqaUBKTNV-1">
          <mxGeometry x="60" y="155" width="20" height="40" as="geometry" />
        </mxCell>
        <mxCell id="1uGyhjWPo-6Lhae7BOiX-2" value="Admin" style="shape=umlActor;verticalLabelPosition=bottom;verticalAlign=top;html=1;outlineConnect=0;" vertex="1" parent="WIyWlLk6GJQsqaUBKTNV-1">
          <mxGeometry x="550" y="160" width="20" height="40" as="geometry" />
        </mxCell>
        <mxCell id="1uGyhjWPo-6Lhae7BOiX-3" value="kelola transaksi" style="ellipse;whiteSpace=wrap;html=1;" vertex="1" parent="WIyWlLk6GJQsqaUBKTNV-1">
          <mxGeometry x="335" y="140" width="105" height="60" as="geometry" />
        </mxCell>
        <mxCell id="1uGyhjWPo-6Lhae7BOiX-4" value="kelola katalog logo" style="ellipse;whiteSpace=wrap;html=1;" vertex="1" parent="WIyWlLk6GJQsqaUBKTNV-1">
          <mxGeometry x="350" y="80" width="90" height="50" as="geometry" />
        </mxCell>
        <mxCell id="1uGyhjWPo-6Lhae7BOiX-5" value="request custom logo" style="ellipse;whiteSpace=wrap;html=1;" vertex="1" parent="WIyWlLk6GJQsqaUBKTNV-1">
          <mxGeometry x="210" y="195" width="90" height="50" as="geometry" />
        </mxCell>
        <mxCell id="1uGyhjWPo-6Lhae7BOiX-6" value="beli logo" style="ellipse;whiteSpace=wrap;html=1;" vertex="1" parent="WIyWlLk6GJQsqaUBKTNV-1">
          <mxGeometry x="180" y="130" width="100" height="50" as="geometry" />
        </mxCell>
        <mxCell id="1uGyhjWPo-6Lhae7BOiX-7" value="lihat katalog logo" style="ellipse;whiteSpace=wrap;html=1;" vertex="1" parent="WIyWlLk6GJQsqaUBKTNV-1">
          <mxGeometry x="220" y="70" width="90" height="50" as="geometry" />
        </mxCell>
        <mxCell id="1uGyhjWPo-6Lhae7BOiX-8" value="proses pesanan" style="ellipse;whiteSpace=wrap;html=1;" vertex="1" parent="WIyWlLk6GJQsqaUBKTNV-1">
          <mxGeometry x="340" y="205" width="110" height="60" as="geometry" />
        </mxCell>
        <mxCell id="1uGyhjWPo-6Lhae7BOiX-9" value="bayar pesanan" style="ellipse;whiteSpace=wrap;html=1;" vertex="1" parent="WIyWlLk6GJQsqaUBKTNV-1">
          <mxGeometry x="220" y="260" width="90" height="50" as="geometry" />
        </mxCell>
        <mxCell id="1uGyhjWPo-6Lhae7BOiX-11" value="Logout" style="ellipse;whiteSpace=wrap;html=1;" vertex="1" parent="WIyWlLk6GJQsqaUBKTNV-1">
          <mxGeometry x="280" y="460" width="90" height="50" as="geometry" />
        </mxCell>
        <mxCell id="1uGyhjWPo-6Lhae7BOiX-13" value="" style="endArrow=none;html=1;rounded=0;exitX=0.5;exitY=0.5;exitDx=0;exitDy=0;exitPerimeter=0;" edge="1" parent="WIyWlLk6GJQsqaUBKTNV-1" source="1uGyhjWPo-6Lhae7BOiX-1">
          <mxGeometry width="50" height="50" relative="1" as="geometry">
            <mxPoint x="390" y="260" as="sourcePoint" />
            <mxPoint x="280" y="20" as="targetPoint" />
          </mxGeometry>
        </mxCell>
        <mxCell id="1uGyhjWPo-6Lhae7BOiX-14" value="" style="endArrow=none;html=1;rounded=0;entryX=0;entryY=0.5;entryDx=0;entryDy=0;exitX=0.5;exitY=0.5;exitDx=0;exitDy=0;exitPerimeter=0;" edge="1" parent="WIyWlLk6GJQsqaUBKTNV-1" source="1uGyhjWPo-6Lhae7BOiX-1" target="1uGyhjWPo-6Lhae7BOiX-7">
          <mxGeometry width="50" height="50" relative="1" as="geometry">
            <mxPoint x="80" y="170" as="sourcePoint" />
            <mxPoint x="440" y="210" as="targetPoint" />
          </mxGeometry>
        </mxCell>
        <mxCell id="1uGyhjWPo-6Lhae7BOiX-15" value="" style="endArrow=none;html=1;rounded=0;entryX=0;entryY=0.5;entryDx=0;entryDy=0;exitX=0.5;exitY=0.5;exitDx=0;exitDy=0;exitPerimeter=0;" edge="1" parent="WIyWlLk6GJQsqaUBKTNV-1" source="1uGyhjWPo-6Lhae7BOiX-1" target="1uGyhjWPo-6Lhae7BOiX-6">
          <mxGeometry width="50" height="50" relative="1" as="geometry">
            <mxPoint x="210" y="169" as="sourcePoint" />
            <mxPoint x="330" y="100" as="targetPoint" />
          </mxGeometry>
        </mxCell>
        <mxCell id="1uGyhjWPo-6Lhae7BOiX-16" value="" style="endArrow=none;html=1;rounded=0;entryX=0;entryY=0.5;entryDx=0;entryDy=0;exitX=0.5;exitY=0.5;exitDx=0;exitDy=0;exitPerimeter=0;" edge="1" parent="WIyWlLk6GJQsqaUBKTNV-1" source="1uGyhjWPo-6Lhae7BOiX-1" target="1uGyhjWPo-6Lhae7BOiX-5">
          <mxGeometry width="50" height="50" relative="1" as="geometry">
            <mxPoint x="140" y="289" as="sourcePoint" />
            <mxPoint x="260" y="220" as="targetPoint" />
          </mxGeometry>
        </mxCell>
        <mxCell id="1uGyhjWPo-6Lhae7BOiX-17" value="" style="endArrow=none;html=1;rounded=0;entryX=0;entryY=0.5;entryDx=0;entryDy=0;exitX=0.5;exitY=0.5;exitDx=0;exitDy=0;exitPerimeter=0;" edge="1" parent="WIyWlLk6GJQsqaUBKTNV-1" source="1uGyhjWPo-6Lhae7BOiX-1" target="1uGyhjWPo-6Lhae7BOiX-9">
          <mxGeometry width="50" height="50" relative="1" as="geometry">
            <mxPoint x="200" y="299" as="sourcePoint" />
            <mxPoint x="320" y="230" as="targetPoint" />
          </mxGeometry>
        </mxCell>
        <mxCell id="1uGyhjWPo-6Lhae7BOiX-19" value="" style="endArrow=none;html=1;rounded=0;entryX=0;entryY=0.5;entryDx=0;entryDy=0;exitX=0.5;exitY=0.5;exitDx=0;exitDy=0;exitPerimeter=0;" edge="1" parent="WIyWlLk6GJQsqaUBKTNV-1" source="1uGyhjWPo-6Lhae7BOiX-1" target="1uGyhjWPo-6Lhae7BOiX-11">
          <mxGeometry width="50" height="50" relative="1" as="geometry">
            <mxPoint x="90" y="170" as="sourcePoint" />
            <mxPoint x="260" y="360" as="targetPoint" />
          </mxGeometry>
        </mxCell>
        <mxCell id="1uGyhjWPo-6Lhae7BOiX-20" value="" style="endArrow=none;html=1;rounded=0;entryX=0.5;entryY=0.5;entryDx=0;entryDy=0;entryPerimeter=0;exitX=0.944;exitY=0.3;exitDx=0;exitDy=0;exitPerimeter=0;" edge="1" parent="WIyWlLk6GJQsqaUBKTNV-1" source="1uGyhjWPo-6Lhae7BOiX-0" target="1uGyhjWPo-6Lhae7BOiX-2">
          <mxGeometry width="50" height="50" relative="1" as="geometry">
            <mxPoint x="380" as="sourcePoint" />
            <mxPoint x="440" y="210" as="targetPoint" />
          </mxGeometry>
        </mxCell>
        <mxCell id="1uGyhjWPo-6Lhae7BOiX-21" value="" style="endArrow=none;html=1;rounded=0;exitX=1;exitY=0.64;exitDx=0;exitDy=0;exitPerimeter=0;entryX=0.5;entryY=0.5;entryDx=0;entryDy=0;entryPerimeter=0;" edge="1" parent="WIyWlLk6GJQsqaUBKTNV-1" source="1uGyhjWPo-6Lhae7BOiX-4" target="1uGyhjWPo-6Lhae7BOiX-2">
          <mxGeometry width="50" height="50" relative="1" as="geometry">
            <mxPoint x="510" y="149" as="sourcePoint" />
            <mxPoint x="530" y="170" as="targetPoint" />
          </mxGeometry>
        </mxCell>
        <mxCell id="1uGyhjWPo-6Lhae7BOiX-22" value="" style="endArrow=none;html=1;rounded=0;exitX=0.983;exitY=0.414;exitDx=0;exitDy=0;exitPerimeter=0;entryX=0.5;entryY=0.5;entryDx=0;entryDy=0;entryPerimeter=0;" edge="1" parent="WIyWlLk6GJQsqaUBKTNV-1" source="1uGyhjWPo-6Lhae7BOiX-3" target="1uGyhjWPo-6Lhae7BOiX-2">
          <mxGeometry width="50" height="50" relative="1" as="geometry">
            <mxPoint x="460" y="170" as="sourcePoint" />
            <mxPoint x="530" y="170" as="targetPoint" />
          </mxGeometry>
        </mxCell>
        <mxCell id="1uGyhjWPo-6Lhae7BOiX-23" value="" style="endArrow=none;html=1;rounded=0;exitX=1;exitY=0.5;exitDx=0;exitDy=0;" edge="1" parent="WIyWlLk6GJQsqaUBKTNV-1" source="1uGyhjWPo-6Lhae7BOiX-8">
          <mxGeometry width="50" height="50" relative="1" as="geometry">
            <mxPoint x="530" y="319" as="sourcePoint" />
            <mxPoint x="560" y="180" as="targetPoint" />
          </mxGeometry>
        </mxCell>
        <mxCell id="1uGyhjWPo-6Lhae7BOiX-25" value="" style="endArrow=none;html=1;rounded=0;exitX=1;exitY=0.5;exitDx=0;exitDy=0;entryX=0.5;entryY=0.5;entryDx=0;entryDy=0;entryPerimeter=0;" edge="1" parent="WIyWlLk6GJQsqaUBKTNV-1" source="1uGyhjWPo-6Lhae7BOiX-11" target="1uGyhjWPo-6Lhae7BOiX-2">
          <mxGeometry width="50" height="50" relative="1" as="geometry">
            <mxPoint x="630" y="359" as="sourcePoint" />
            <mxPoint x="750" y="290" as="targetPoint" />
          </mxGeometry>
        </mxCell>
        <mxCell id="qxpHn48Y4UbbxvLGz706-0" value="lihat status pesanan" style="ellipse;whiteSpace=wrap;html=1;" vertex="1" parent="WIyWlLk6GJQsqaUBKTNV-1">
          <mxGeometry x="240" y="320" width="90" height="50" as="geometry" />
        </mxCell>
        <mxCell id="qxpHn48Y4UbbxvLGz706-1" value="" style="endArrow=none;html=1;rounded=0;fontSize=12;startSize=8;endSize=8;curved=1;exitX=0.5;exitY=0.5;exitDx=0;exitDy=0;exitPerimeter=0;entryX=0;entryY=0.5;entryDx=0;entryDy=0;" edge="1" parent="WIyWlLk6GJQsqaUBKTNV-1" source="1uGyhjWPo-6Lhae7BOiX-1" target="qxpHn48Y4UbbxvLGz706-0">
          <mxGeometry width="50" height="50" relative="1" as="geometry">
            <mxPoint x="280" y="300" as="sourcePoint" />
            <mxPoint x="330" y="250" as="targetPoint" />
          </mxGeometry>
        </mxCell>
        <mxCell id="qxpHn48Y4UbbxvLGz706-2" value="kirim logo ke customer" style="ellipse;whiteSpace=wrap;html=1;" vertex="1" parent="WIyWlLk6GJQsqaUBKTNV-1">
          <mxGeometry x="345" y="290" width="100" height="50" as="geometry" />
        </mxCell>
        <mxCell id="qxpHn48Y4UbbxvLGz706-3" value="" style="endArrow=none;html=1;rounded=0;fontSize=12;startSize=8;endSize=8;curved=1;exitX=1;exitY=0;exitDx=0;exitDy=0;" edge="1" parent="WIyWlLk6GJQsqaUBKTNV-1" source="qxpHn48Y4UbbxvLGz706-2">
          <mxGeometry width="50" height="50" relative="1" as="geometry">
            <mxPoint x="320" y="300" as="sourcePoint" />
            <mxPoint x="560" y="180" as="targetPoint" />
          </mxGeometry>
        </mxCell>
        <mxCell id="TPfyQt-GAiB4wnfoA9S2-0" value="terima logo" style="ellipse;whiteSpace=wrap;html=1;" vertex="1" parent="WIyWlLk6GJQsqaUBKTNV-1">
          <mxGeometry x="245" y="390" width="90" height="50" as="geometry" />
        </mxCell>
        <mxCell id="fUB_2YszrhRSo84a94Tr-0" value="" style="endArrow=none;html=1;rounded=0;fontSize=12;startSize=8;endSize=8;curved=1;entryX=0.5;entryY=0.5;entryDx=0;entryDy=0;entryPerimeter=0;exitX=0;exitY=0;exitDx=0;exitDy=0;" edge="1" parent="WIyWlLk6GJQsqaUBKTNV-1" source="TPfyQt-GAiB4wnfoA9S2-0" target="1uGyhjWPo-6Lhae7BOiX-1">
          <mxGeometry width="50" height="50" relative="1" as="geometry">
            <mxPoint x="300" y="380" as="sourcePoint" />
            <mxPoint x="70" y="180" as="targetPoint" />
          </mxGeometry>
        </mxCell>
      </root>
    </mxGraphModel>
  </diagram>
  <diagram name="class diagram" id="w5gRF1BeoRfwxfC65GlN">
    <mxGraphModel grid="1" page="1" gridSize="10" guides="1" tooltips="1" connect="1" arrows="1" fold="1" pageScale="1" pageWidth="827" pageHeight="1169" math="0" shadow="0">
      <root>
        <mxCell id="tciH2UySTB9hD7IYddxx-0" />
        <mxCell id="tciH2UySTB9hD7IYddxx-1" parent="tciH2UySTB9hD7IYddxx-0" />
        <mxCell id="blQSkCCadYzpYaJJJJW2-5" value="user" style="swimlane;fontStyle=0;align=center;verticalAlign=top;childLayout=stackLayout;horizontal=1;startSize=26;horizontalStack=0;resizeParent=1;resizeLast=0;collapsible=1;marginBottom=0;rounded=0;shadow=0;strokeWidth=1;" vertex="1" parent="tciH2UySTB9hD7IYddxx-1">
          <mxGeometry x="75" y="180" width="150" height="180" as="geometry">
            <mxRectangle x="550" y="140" width="160" height="26" as="alternateBounds" />
          </mxGeometry>
        </mxCell>
        <mxCell id="blQSkCCadYzpYaJJJJW2-6" value="-id _user: int&#xa;-username : string&#xa;-email : string&#xa;-password : string &#xa;-no_hp : string" style="text;align=left;verticalAlign=top;spacingLeft=4;spacingRight=4;overflow=hidden;rotatable=0;points=[[0,0.5],[1,0.5]];portConstraint=eastwest;" vertex="1" parent="blQSkCCadYzpYaJJJJW2-5">
          <mxGeometry y="26" width="150" height="84" as="geometry" />
        </mxCell>
        <mxCell id="blQSkCCadYzpYaJJJJW2-7" value="" style="line;html=1;strokeWidth=1;align=left;verticalAlign=middle;spacingTop=-1;spacingLeft=3;spacingRight=3;rotatable=0;labelPosition=right;points=[];portConstraint=eastwest;" vertex="1" parent="blQSkCCadYzpYaJJJJW2-5">
          <mxGeometry y="110" width="150" height="8" as="geometry" />
        </mxCell>
        <mxCell id="blQSkCCadYzpYaJJJJW2-8" value="+login ()" style="text;align=left;verticalAlign=top;spacingLeft=4;spacingRight=4;overflow=hidden;rotatable=0;points=[[0,0.5],[1,0.5]];portConstraint=eastwest;" vertex="1" parent="blQSkCCadYzpYaJJJJW2-5">
          <mxGeometry y="118" width="150" height="22" as="geometry" />
        </mxCell>
        <mxCell id="blQSkCCadYzpYaJJJJW2-9" value="+logout ()" style="text;align=left;verticalAlign=top;spacingLeft=4;spacingRight=4;overflow=hidden;rotatable=0;points=[[0,0.5],[1,0.5]];portConstraint=eastwest;" vertex="1" parent="blQSkCCadYzpYaJJJJW2-5">
          <mxGeometry y="140" width="150" height="16" as="geometry" />
        </mxCell>
        <mxCell id="blQSkCCadYzpYaJJJJW2-11" value="Logo" style="swimlane;fontStyle=0;align=center;verticalAlign=top;childLayout=stackLayout;horizontal=1;startSize=26;horizontalStack=0;resizeParent=1;resizeLast=0;collapsible=1;marginBottom=0;rounded=0;shadow=0;strokeWidth=1;" vertex="1" parent="tciH2UySTB9hD7IYddxx-1">
          <mxGeometry x="310" y="429" width="160" height="162" as="geometry">
            <mxRectangle x="550" y="140" width="160" height="26" as="alternateBounds" />
          </mxGeometry>
        </mxCell>
        <mxCell id="blQSkCCadYzpYaJJJJW2-12" value="-id_logo : int&#xa;-nama_logo : string&#xa;-kategori : string&#xa;-harga : double&#xa;file_logo : string&#xa;&#xa;" style="text;align=left;verticalAlign=top;spacingLeft=4;spacingRight=4;overflow=hidden;rotatable=0;points=[[0,0.5],[1,0.5]];portConstraint=eastwest;" vertex="1" parent="blQSkCCadYzpYaJJJJW2-11">
          <mxGeometry y="26" width="160" height="84" as="geometry" />
        </mxCell>
        <mxCell id="blQSkCCadYzpYaJJJJW2-13" value="" style="line;html=1;strokeWidth=1;align=left;verticalAlign=middle;spacingTop=-1;spacingLeft=3;spacingRight=3;rotatable=0;labelPosition=right;points=[];portConstraint=eastwest;" vertex="1" parent="blQSkCCadYzpYaJJJJW2-11">
          <mxGeometry y="110" width="160" height="10" as="geometry" />
        </mxCell>
        <mxCell id="blQSkCCadYzpYaJJJJW2-14" value="+getLogo()&#xa;+updateLogo()" style="text;align=left;verticalAlign=top;spacingLeft=4;spacingRight=4;overflow=hidden;rotatable=0;points=[[0,0.5],[1,0.5]];portConstraint=eastwest;" vertex="1" parent="blQSkCCadYzpYaJJJJW2-11">
          <mxGeometry y="120" width="160" height="30" as="geometry" />
        </mxCell>
        <mxCell id="blQSkCCadYzpYaJJJJW2-16" value="Pesanan" style="swimlane;fontStyle=0;align=center;verticalAlign=top;childLayout=stackLayout;horizontal=1;startSize=26;horizontalStack=0;resizeParent=1;resizeLast=0;collapsible=1;marginBottom=0;rounded=0;shadow=0;strokeWidth=1;" vertex="1" parent="tciH2UySTB9hD7IYddxx-1">
          <mxGeometry x="75" y="420" width="160" height="180" as="geometry">
            <mxRectangle x="550" y="140" width="160" height="26" as="alternateBounds" />
          </mxGeometry>
        </mxCell>
        <mxCell id="blQSkCCadYzpYaJJJJW2-17" value="-id_pesanan : int&#xa;-id_customer: int&#xa;-id_logo : int&#xa;-id_request : int&#xa;-status : string&#xa;-type_pesanan : string" style="text;align=left;verticalAlign=top;spacingLeft=4;spacingRight=4;overflow=hidden;rotatable=0;points=[[0,0.5],[1,0.5]];portConstraint=eastwest;" vertex="1" parent="blQSkCCadYzpYaJJJJW2-16">
          <mxGeometry y="26" width="160" height="94" as="geometry" />
        </mxCell>
        <mxCell id="blQSkCCadYzpYaJJJJW2-18" value="" style="line;html=1;strokeWidth=1;align=left;verticalAlign=middle;spacingTop=-1;spacingLeft=3;spacingRight=3;rotatable=0;labelPosition=right;points=[];portConstraint=eastwest;" vertex="1" parent="blQSkCCadYzpYaJJJJW2-16">
          <mxGeometry y="120" width="160" height="8" as="geometry" />
        </mxCell>
        <mxCell id="blQSkCCadYzpYaJJJJW2-19" value="+buatPesanan()&#xa;+updareStatus()" style="text;align=left;verticalAlign=top;spacingLeft=4;spacingRight=4;overflow=hidden;rotatable=0;points=[[0,0.5],[1,0.5]];portConstraint=eastwest;" vertex="1" parent="blQSkCCadYzpYaJJJJW2-16">
          <mxGeometry y="128" width="160" height="42" as="geometry" />
        </mxCell>
        <mxCell id="blQSkCCadYzpYaJJJJW2-21" value="pembayaran" style="swimlane;fontStyle=0;align=center;verticalAlign=top;childLayout=stackLayout;horizontal=1;startSize=26;horizontalStack=0;resizeParent=1;resizeLast=0;collapsible=1;marginBottom=0;rounded=0;shadow=0;strokeWidth=1;" vertex="1" parent="tciH2UySTB9hD7IYddxx-1">
          <mxGeometry x="310" y="630" width="160" height="180" as="geometry">
            <mxRectangle x="550" y="140" width="160" height="26" as="alternateBounds" />
          </mxGeometry>
        </mxCell>
        <mxCell id="blQSkCCadYzpYaJJJJW2-22" value="-id_pembayaran : int&#xa;-id_pesanan : int&#xa;-metode : string&#xa;-jumlah : double&#xa;-tanggal_bayar : date&#xa;-status bayar : string" style="text;align=left;verticalAlign=top;spacingLeft=4;spacingRight=4;overflow=hidden;rotatable=0;points=[[0,0.5],[1,0.5]];portConstraint=eastwest;" vertex="1" parent="blQSkCCadYzpYaJJJJW2-21">
          <mxGeometry y="26" width="160" height="104" as="geometry" />
        </mxCell>
        <mxCell id="blQSkCCadYzpYaJJJJW2-23" value="" style="line;html=1;strokeWidth=1;align=left;verticalAlign=middle;spacingTop=-1;spacingLeft=3;spacingRight=3;rotatable=0;labelPosition=right;points=[];portConstraint=eastwest;" vertex="1" parent="blQSkCCadYzpYaJJJJW2-21">
          <mxGeometry y="130" width="160" height="8" as="geometry" />
        </mxCell>
        <mxCell id="blQSkCCadYzpYaJJJJW2-24" value="+prosesPembayaran()&#xa;+konfirmasiPembayaran()" style="text;align=left;verticalAlign=top;spacingLeft=4;spacingRight=4;overflow=hidden;rotatable=0;points=[[0,0.5],[1,0.5]];portConstraint=eastwest;" vertex="1" parent="blQSkCCadYzpYaJJJJW2-21">
          <mxGeometry y="138" width="160" height="42" as="geometry" />
        </mxCell>
        <mxCell id="blQSkCCadYzpYaJJJJW2-26" value="" style="endArrow=none;html=1;rounded=0;entryX=0.5;entryY=1;entryDx=0;entryDy=0;" edge="1" parent="tciH2UySTB9hD7IYddxx-1" target="blQSkCCadYzpYaJJJJW2-5">
          <mxGeometry width="50" height="50" relative="1" as="geometry">
            <mxPoint x="150" y="420" as="sourcePoint" />
            <mxPoint x="525" y="460" as="targetPoint" />
          </mxGeometry>
        </mxCell>
        <mxCell id="blQSkCCadYzpYaJJJJW2-28" value="" style="endArrow=none;html=1;rounded=0;exitX=0.994;exitY=0.126;exitDx=0;exitDy=0;exitPerimeter=0;" edge="1" parent="tciH2UySTB9hD7IYddxx-1" source="blQSkCCadYzpYaJJJJW2-16">
          <mxGeometry width="50" height="50" relative="1" as="geometry">
            <mxPoint x="475" y="510" as="sourcePoint" />
            <mxPoint x="310" y="443" as="targetPoint" />
          </mxGeometry>
        </mxCell>
        <mxCell id="blQSkCCadYzpYaJJJJW2-29" value="" style="endArrow=none;html=1;rounded=0;exitX=0.991;exitY=-0.025;exitDx=0;exitDy=0;exitPerimeter=0;entryX=-0.009;entryY=0.115;entryDx=0;entryDy=0;entryPerimeter=0;" edge="1" parent="tciH2UySTB9hD7IYddxx-1" source="blQSkCCadYzpYaJJJJW2-6" target="blQSkCCadYzpYaJJJJW2-30">
          <mxGeometry width="50" height="50" relative="1" as="geometry">
            <mxPoint x="425" y="360" as="sourcePoint" />
            <mxPoint x="336.44000000000005" y="206.334" as="targetPoint" />
          </mxGeometry>
        </mxCell>
        <mxCell id="blQSkCCadYzpYaJJJJW2-30" value="Admin" style="swimlane;fontStyle=0;align=center;verticalAlign=top;childLayout=stackLayout;horizontal=1;startSize=26;horizontalStack=0;resizeParent=1;resizeLast=0;collapsible=1;marginBottom=0;rounded=0;shadow=0;strokeWidth=1;" vertex="1" parent="tciH2UySTB9hD7IYddxx-1">
          <mxGeometry x="330" y="180" width="150" height="218" as="geometry">
            <mxRectangle x="550" y="140" width="160" height="26" as="alternateBounds" />
          </mxGeometry>
        </mxCell>
        <mxCell id="blQSkCCadYzpYaJJJJW2-31" value="-id _admin: int&#xa;-username : string&#xa;-email : string&#xa;-password : string &#xa;-no_hp : string" style="text;align=left;verticalAlign=top;spacingLeft=4;spacingRight=4;overflow=hidden;rotatable=0;points=[[0,0.5],[1,0.5]];portConstraint=eastwest;" vertex="1" parent="blQSkCCadYzpYaJJJJW2-30">
          <mxGeometry y="26" width="150" height="84" as="geometry" />
        </mxCell>
        <mxCell id="blQSkCCadYzpYaJJJJW2-32" value="" style="line;html=1;strokeWidth=1;align=left;verticalAlign=middle;spacingTop=-1;spacingLeft=3;spacingRight=3;rotatable=0;labelPosition=right;points=[];portConstraint=eastwest;" vertex="1" parent="blQSkCCadYzpYaJJJJW2-30">
          <mxGeometry y="110" width="150" height="8" as="geometry" />
        </mxCell>
        <mxCell id="blQSkCCadYzpYaJJJJW2-35" value="+login()&#xa;+kelolaKatalog()&#xa;+kelolaTransaksi()&#xa;+prosesPesanan()&#xa;+kirimLogo()&#xa;+logout()" style="text;align=left;verticalAlign=top;spacingLeft=4;spacingRight=4;overflow=hidden;rotatable=0;points=[[0,0.5],[1,0.5]];portConstraint=eastwest;" vertex="1" parent="blQSkCCadYzpYaJJJJW2-30">
          <mxGeometry y="118" width="150" height="100" as="geometry" />
        </mxCell>
        <mxCell id="blQSkCCadYzpYaJJJJW2-36" value="custom request" style="swimlane;fontStyle=0;align=center;verticalAlign=top;childLayout=stackLayout;horizontal=1;startSize=26;horizontalStack=0;resizeParent=1;resizeLast=0;collapsible=1;marginBottom=0;rounded=0;shadow=0;strokeWidth=1;" vertex="1" parent="tciH2UySTB9hD7IYddxx-1">
          <mxGeometry x="75" y="650" width="160" height="180" as="geometry">
            <mxRectangle x="550" y="140" width="160" height="26" as="alternateBounds" />
          </mxGeometry>
        </mxCell>
        <mxCell id="blQSkCCadYzpYaJJJJW2-37" value="-id_request : int&#xa;-id_customer : int&#xa;-tema : string&#xa;-warna : string&#xa;-teks : string&#xa;-deadline : date" style="text;align=left;verticalAlign=top;spacingLeft=4;spacingRight=4;overflow=hidden;rotatable=0;points=[[0,0.5],[1,0.5]];portConstraint=eastwest;" vertex="1" parent="blQSkCCadYzpYaJJJJW2-36">
          <mxGeometry y="26" width="160" height="104" as="geometry" />
        </mxCell>
        <mxCell id="blQSkCCadYzpYaJJJJW2-38" value="" style="line;html=1;strokeWidth=1;align=left;verticalAlign=middle;spacingTop=-1;spacingLeft=3;spacingRight=3;rotatable=0;labelPosition=right;points=[];portConstraint=eastwest;" vertex="1" parent="blQSkCCadYzpYaJJJJW2-36">
          <mxGeometry y="130" width="160" height="8" as="geometry" />
        </mxCell>
        <mxCell id="blQSkCCadYzpYaJJJJW2-39" value="+submitRequest()&#xa;+updateRequest()" style="text;align=left;verticalAlign=top;spacingLeft=4;spacingRight=4;overflow=hidden;rotatable=0;points=[[0,0.5],[1,0.5]];portConstraint=eastwest;" vertex="1" parent="blQSkCCadYzpYaJJJJW2-36">
          <mxGeometry y="138" width="160" height="42" as="geometry" />
        </mxCell>
        <mxCell id="blQSkCCadYzpYaJJJJW2-41" value="" style="endArrow=none;html=1;rounded=0;" edge="1" parent="tciH2UySTB9hD7IYddxx-1">
          <mxGeometry width="50" height="50" relative="1" as="geometry">
            <mxPoint x="149.55" y="651" as="sourcePoint" />
            <mxPoint x="150" y="600" as="targetPoint" />
          </mxGeometry>
        </mxCell>
        <mxCell id="blQSkCCadYzpYaJJJJW2-43" value="" style="endArrow=none;html=1;rounded=0;exitX=0.994;exitY=0.148;exitDx=0;exitDy=0;exitPerimeter=0;entryX=-0.003;entryY=0.055;entryDx=0;entryDy=0;entryPerimeter=0;" edge="1" parent="tciH2UySTB9hD7IYddxx-1" source="blQSkCCadYzpYaJJJJW2-17" target="blQSkCCadYzpYaJJJJW2-22">
          <mxGeometry width="50" height="50" relative="1" as="geometry">
            <mxPoint x="280" y="440" as="sourcePoint" />
            <mxPoint x="356" y="440" as="targetPoint" />
            <Array as="points">
              <mxPoint x="270" y="460" />
              <mxPoint x="270" y="662" />
            </Array>
          </mxGeometry>
        </mxCell>
        <mxCell id="blQSkCCadYzpYaJJJJW2-44" value="" style="endArrow=none;html=1;rounded=0;exitX=0.994;exitY=0.148;exitDx=0;exitDy=0;exitPerimeter=0;entryX=1;entryY=0.06;entryDx=0;entryDy=0;entryPerimeter=0;" edge="1" parent="tciH2UySTB9hD7IYddxx-1" target="blQSkCCadYzpYaJJJJW2-12">
          <mxGeometry width="50" height="50" relative="1" as="geometry">
            <mxPoint x="480" y="200" as="sourcePoint" />
            <mxPoint x="556" y="402" as="targetPoint" />
            <Array as="points">
              <mxPoint x="516" y="200" />
              <mxPoint x="516" y="460" />
            </Array>
          </mxGeometry>
        </mxCell>
        <mxCell id="blQSkCCadYzpYaJJJJW2-45" value="" style="endArrow=none;html=1;rounded=0;exitX=-0.023;exitY=0.339;exitDx=0;exitDy=0;exitPerimeter=0;entryX=0.718;entryY=0.007;entryDx=0;entryDy=0;entryPerimeter=0;" edge="1" parent="tciH2UySTB9hD7IYddxx-1" source="blQSkCCadYzpYaJJJJW2-31" target="blQSkCCadYzpYaJJJJW2-16">
          <mxGeometry width="50" height="50" relative="1" as="geometry">
            <mxPoint x="360" y="360" as="sourcePoint" />
            <mxPoint x="436" y="562" as="targetPoint" />
            <Array as="points">
              <mxPoint x="270" y="234" />
              <mxPoint x="270" y="380" />
              <mxPoint x="190" y="380" />
            </Array>
          </mxGeometry>
        </mxCell>
      </root>
    </mxGraphModel>
  </diagram>
  <diagram id="S6LhPgUV6CYon9SJUFJU" name="activity diagram">
    <mxGraphModel grid="1" page="1" gridSize="10" guides="1" tooltips="1" connect="1" arrows="1" fold="1" pageScale="1" pageWidth="827" pageHeight="1169" math="0" shadow="0">
      <root>
        <mxCell id="0" />
        <mxCell id="1" parent="0" />
        <mxCell id="CW47n4GM8YFiodCjkTIw-1" value="Login" style="swimlane;whiteSpace=wrap;html=1;fontFamily=Helvetica;fontSize=20;labelBackgroundColor=default;container=0;fillColor=#dae8fc;strokeColor=#6c8ebf;" vertex="1" parent="1">
          <mxGeometry x="370" y="150" width="620" height="670" as="geometry" />
        </mxCell>
        <mxCell id="CW47n4GM8YFiodCjkTIw-2" value="" style="rounded=0;whiteSpace=wrap;html=1;" vertex="1" parent="CW47n4GM8YFiodCjkTIw-1">
          <mxGeometry y="23" width="620" height="27" as="geometry" />
        </mxCell>
        <mxCell id="CW47n4GM8YFiodCjkTIw-3" value="" style="endArrow=none;html=1;rounded=0;entryX=0.5;entryY=0;entryDx=0;entryDy=0;exitX=0.5;exitY=1;exitDx=0;exitDy=0;" edge="1" parent="CW47n4GM8YFiodCjkTIw-1" source="CW47n4GM8YFiodCjkTIw-1" target="CW47n4GM8YFiodCjkTIw-2">
          <mxGeometry width="50" height="50" relative="1" as="geometry">
            <mxPoint x="76" y="540" as="sourcePoint" />
            <mxPoint x="126" y="490" as="targetPoint" />
          </mxGeometry>
        </mxCell>
        <mxCell id="CW47n4GM8YFiodCjkTIw-4" value="User" style="text;html=1;align=center;verticalAlign=middle;whiteSpace=wrap;rounded=0;fontSize=19;" vertex="1" parent="CW47n4GM8YFiodCjkTIw-1">
          <mxGeometry x="120" y="21.5" width="60" height="30" as="geometry" />
        </mxCell>
        <mxCell id="CW47n4GM8YFiodCjkTIw-5" value="Sistem" style="text;html=1;align=center;verticalAlign=middle;whiteSpace=wrap;rounded=0;fontSize=19;" vertex="1" parent="CW47n4GM8YFiodCjkTIw-1">
          <mxGeometry x="436" y="23" width="60" height="30" as="geometry" />
        </mxCell>
        <mxCell id="CW47n4GM8YFiodCjkTIw-6" style="edgeStyle=orthogonalEdgeStyle;rounded=0;orthogonalLoop=1;jettySize=auto;html=1;exitX=0.5;exitY=1;exitDx=0;exitDy=0;entryX=0.5;entryY=0;entryDx=0;entryDy=0;" edge="1" parent="CW47n4GM8YFiodCjkTIw-1" source="CW47n4GM8YFiodCjkTIw-7" target="CW47n4GM8YFiodCjkTIw-9">
          <mxGeometry relative="1" as="geometry" />
        </mxCell>
        <mxCell id="CW47n4GM8YFiodCjkTIw-7" value="" style="ellipse;whiteSpace=wrap;html=1;aspect=fixed;fillColor=#dae8fc;strokeColor=#6c8ebf;" vertex="1" parent="CW47n4GM8YFiodCjkTIw-1">
          <mxGeometry x="130" y="60" width="50" height="50" as="geometry" />
        </mxCell>
        <mxCell id="CW47n4GM8YFiodCjkTIw-8" style="edgeStyle=orthogonalEdgeStyle;rounded=0;orthogonalLoop=1;jettySize=auto;html=1;exitX=1;exitY=0.5;exitDx=0;exitDy=0;entryX=0;entryY=0.5;entryDx=0;entryDy=0;" edge="1" parent="CW47n4GM8YFiodCjkTIw-1" source="CW47n4GM8YFiodCjkTIw-9" target="CW47n4GM8YFiodCjkTIw-11">
          <mxGeometry relative="1" as="geometry" />
        </mxCell>
        <mxCell id="CW47n4GM8YFiodCjkTIw-9" value="User membuka website" style="rounded=1;whiteSpace=wrap;html=1;fontSize=20;" vertex="1" parent="CW47n4GM8YFiodCjkTIw-1">
          <mxGeometry x="25" y="140" width="260" height="70" as="geometry" />
        </mxCell>
        <mxCell id="CW47n4GM8YFiodCjkTIw-10" style="edgeStyle=orthogonalEdgeStyle;rounded=0;orthogonalLoop=1;jettySize=auto;html=1;exitX=0.5;exitY=1;exitDx=0;exitDy=0;entryX=0.5;entryY=0;entryDx=0;entryDy=0;" edge="1" parent="CW47n4GM8YFiodCjkTIw-1" source="CW47n4GM8YFiodCjkTIw-11" target="CW47n4GM8YFiodCjkTIw-13">
          <mxGeometry relative="1" as="geometry" />
        </mxCell>
        <mxCell id="CW47n4GM8YFiodCjkTIw-11" value="Menampilkan form login" style="rounded=1;whiteSpace=wrap;html=1;fontSize=20;" vertex="1" parent="CW47n4GM8YFiodCjkTIw-1">
          <mxGeometry x="336" y="140" width="260" height="70" as="geometry" />
        </mxCell>
        <mxCell id="CW47n4GM8YFiodCjkTIw-12" style="edgeStyle=orthogonalEdgeStyle;rounded=0;orthogonalLoop=1;jettySize=auto;html=1;exitX=1;exitY=0.5;exitDx=0;exitDy=0;entryX=0;entryY=0.5;entryDx=0;entryDy=0;" edge="1" parent="CW47n4GM8YFiodCjkTIw-1" source="CW47n4GM8YFiodCjkTIw-13" target="CW47n4GM8YFiodCjkTIw-15">
          <mxGeometry relative="1" as="geometry" />
        </mxCell>
        <mxCell id="CW47n4GM8YFiodCjkTIw-13" value="Memasukkan username dan password" style="rounded=1;whiteSpace=wrap;html=1;fontSize=20;" vertex="1" parent="CW47n4GM8YFiodCjkTIw-1">
          <mxGeometry x="25" y="260" width="260" height="70" as="geometry" />
        </mxCell>
        <mxCell id="CW47n4GM8YFiodCjkTIw-14" style="edgeStyle=orthogonalEdgeStyle;rounded=0;orthogonalLoop=1;jettySize=auto;html=1;exitX=0.5;exitY=1;exitDx=0;exitDy=0;entryX=0.5;entryY=0;entryDx=0;entryDy=0;" edge="1" parent="CW47n4GM8YFiodCjkTIw-1" source="CW47n4GM8YFiodCjkTIw-15" target="CW47n4GM8YFiodCjkTIw-17">
          <mxGeometry relative="1" as="geometry" />
        </mxCell>
        <mxCell id="CW47n4GM8YFiodCjkTIw-15" value="Melakukan verifikasi" style="rounded=1;whiteSpace=wrap;html=1;fontSize=20;" vertex="1" parent="CW47n4GM8YFiodCjkTIw-1">
          <mxGeometry x="336" y="260" width="260" height="70" as="geometry" />
        </mxCell>
        <mxCell id="CW47n4GM8YFiodCjkTIw-16" value="Salah" style="edgeStyle=orthogonalEdgeStyle;rounded=0;orthogonalLoop=1;jettySize=auto;html=1;exitX=0;exitY=0.5;exitDx=0;exitDy=0;entryX=0.5;entryY=1;entryDx=0;entryDy=0;fontSize=20;" edge="1" parent="CW47n4GM8YFiodCjkTIw-1" source="CW47n4GM8YFiodCjkTIw-17" target="CW47n4GM8YFiodCjkTIw-13">
          <mxGeometry relative="1" as="geometry" />
        </mxCell>
        <mxCell id="CW47n4GM8YFiodCjkTIw-17" value="" style="rhombus;whiteSpace=wrap;html=1;" vertex="1" parent="CW47n4GM8YFiodCjkTIw-1">
          <mxGeometry x="426" y="360" width="80" height="80" as="geometry" />
        </mxCell>
        <mxCell id="CW47n4GM8YFiodCjkTIw-18" value="Menampilkan dashboard" style="rounded=1;whiteSpace=wrap;html=1;fontSize=20;" vertex="1" parent="CW47n4GM8YFiodCjkTIw-1">
          <mxGeometry x="336" y="500" width="260" height="70" as="geometry" />
        </mxCell>
        <mxCell id="CW47n4GM8YFiodCjkTIw-19" value="Benar" style="edgeStyle=orthogonalEdgeStyle;rounded=0;orthogonalLoop=1;jettySize=auto;html=1;exitX=0.5;exitY=1;exitDx=0;exitDy=0;entryX=0.5;entryY=0;entryDx=0;entryDy=0;fontSize=20;" edge="1" parent="CW47n4GM8YFiodCjkTIw-1" source="CW47n4GM8YFiodCjkTIw-17" target="CW47n4GM8YFiodCjkTIw-18">
          <mxGeometry relative="1" as="geometry" />
        </mxCell>
        <mxCell id="CW47n4GM8YFiodCjkTIw-20" value="" style="ellipse;shape=doubleEllipse;whiteSpace=wrap;html=1;aspect=fixed;fillColor=#dae8fc;strokeColor=#6c8ebf;" vertex="1" parent="CW47n4GM8YFiodCjkTIw-1">
          <mxGeometry x="436" y="600" width="60" height="60" as="geometry" />
        </mxCell>
        <mxCell id="CW47n4GM8YFiodCjkTIw-21" style="edgeStyle=orthogonalEdgeStyle;rounded=0;orthogonalLoop=1;jettySize=auto;html=1;exitX=0.5;exitY=1;exitDx=0;exitDy=0;entryX=0.5;entryY=0;entryDx=0;entryDy=0;" edge="1" parent="CW47n4GM8YFiodCjkTIw-1" source="CW47n4GM8YFiodCjkTIw-18" target="CW47n4GM8YFiodCjkTIw-20">
          <mxGeometry relative="1" as="geometry">
            <mxPoint x="466.00000000000045" y="600" as="targetPoint" />
          </mxGeometry>
        </mxCell>
        <mxCell id="CW47n4GM8YFiodCjkTIw-22" value="Lihat katalog logo" style="swimlane;whiteSpace=wrap;html=1;fontFamily=Helvetica;fontSize=20;labelBackgroundColor=default;container=0;fillColor=#dae8fc;strokeColor=#6c8ebf;" vertex="1" parent="1">
          <mxGeometry x="1060" y="150" width="620" height="670" as="geometry" />
        </mxCell>
        <mxCell id="CW47n4GM8YFiodCjkTIw-23" value="" style="rounded=0;whiteSpace=wrap;html=1;" vertex="1" parent="CW47n4GM8YFiodCjkTIw-22">
          <mxGeometry y="23" width="620" height="27" as="geometry" />
        </mxCell>
        <mxCell id="CW47n4GM8YFiodCjkTIw-24" value="" style="endArrow=none;html=1;rounded=0;entryX=0.5;entryY=0;entryDx=0;entryDy=0;exitX=0.5;exitY=1;exitDx=0;exitDy=0;" edge="1" parent="CW47n4GM8YFiodCjkTIw-22" source="CW47n4GM8YFiodCjkTIw-22" target="CW47n4GM8YFiodCjkTIw-23">
          <mxGeometry width="50" height="50" relative="1" as="geometry">
            <mxPoint x="76" y="540" as="sourcePoint" />
            <mxPoint x="126" y="490" as="targetPoint" />
          </mxGeometry>
        </mxCell>
        <mxCell id="CW47n4GM8YFiodCjkTIw-25" value="User" style="text;html=1;align=center;verticalAlign=middle;whiteSpace=wrap;rounded=0;fontSize=19;" vertex="1" parent="CW47n4GM8YFiodCjkTIw-22">
          <mxGeometry x="120" y="21.5" width="60" height="30" as="geometry" />
        </mxCell>
        <mxCell id="CW47n4GM8YFiodCjkTIw-26" value="Sistem" style="text;html=1;align=center;verticalAlign=middle;whiteSpace=wrap;rounded=0;fontSize=19;" vertex="1" parent="CW47n4GM8YFiodCjkTIw-22">
          <mxGeometry x="436" y="23" width="60" height="30" as="geometry" />
        </mxCell>
        <mxCell id="CW47n4GM8YFiodCjkTIw-27" style="edgeStyle=orthogonalEdgeStyle;rounded=0;orthogonalLoop=1;jettySize=auto;html=1;exitX=0.5;exitY=1;exitDx=0;exitDy=0;entryX=0.5;entryY=0;entryDx=0;entryDy=0;" edge="1" parent="CW47n4GM8YFiodCjkTIw-22" source="CW47n4GM8YFiodCjkTIw-28" target="CW47n4GM8YFiodCjkTIw-30">
          <mxGeometry relative="1" as="geometry" />
        </mxCell>
        <mxCell id="CW47n4GM8YFiodCjkTIw-28" value="" style="ellipse;whiteSpace=wrap;html=1;aspect=fixed;fillColor=#dae8fc;strokeColor=#6c8ebf;" vertex="1" parent="CW47n4GM8YFiodCjkTIw-22">
          <mxGeometry x="130" y="60" width="50" height="50" as="geometry" />
        </mxCell>
        <mxCell id="CW47n4GM8YFiodCjkTIw-29" style="edgeStyle=orthogonalEdgeStyle;rounded=0;orthogonalLoop=1;jettySize=auto;html=1;exitX=1;exitY=0.5;exitDx=0;exitDy=0;entryX=0;entryY=0.5;entryDx=0;entryDy=0;" edge="1" parent="CW47n4GM8YFiodCjkTIw-22" source="CW47n4GM8YFiodCjkTIw-30" target="CW47n4GM8YFiodCjkTIw-32">
          <mxGeometry relative="1" as="geometry" />
        </mxCell>
        <mxCell id="CW47n4GM8YFiodCjkTIw-30" value="User membuka website" style="rounded=1;whiteSpace=wrap;html=1;fontSize=20;" vertex="1" parent="CW47n4GM8YFiodCjkTIw-22">
          <mxGeometry x="25" y="140" width="260" height="70" as="geometry" />
        </mxCell>
        <mxCell id="CW47n4GM8YFiodCjkTIw-31" style="edgeStyle=orthogonalEdgeStyle;rounded=0;orthogonalLoop=1;jettySize=auto;html=1;exitX=0.5;exitY=1;exitDx=0;exitDy=0;entryX=0.5;entryY=0;entryDx=0;entryDy=0;" edge="1" parent="CW47n4GM8YFiodCjkTIw-22" source="CW47n4GM8YFiodCjkTIw-32" target="CW47n4GM8YFiodCjkTIw-34">
          <mxGeometry relative="1" as="geometry" />
        </mxCell>
        <mxCell id="CW47n4GM8YFiodCjkTIw-32" value="Menampilkan katalog logo" style="rounded=1;whiteSpace=wrap;html=1;fontSize=20;" vertex="1" parent="CW47n4GM8YFiodCjkTIw-22">
          <mxGeometry x="336" y="140" width="260" height="70" as="geometry" />
        </mxCell>
        <mxCell id="CW47n4GM8YFiodCjkTIw-33" style="edgeStyle=orthogonalEdgeStyle;rounded=0;orthogonalLoop=1;jettySize=auto;html=1;exitX=1;exitY=0.5;exitDx=0;exitDy=0;entryX=0;entryY=0.5;entryDx=0;entryDy=0;" edge="1" parent="CW47n4GM8YFiodCjkTIw-22" source="CW47n4GM8YFiodCjkTIw-34" target="CW47n4GM8YFiodCjkTIw-36">
          <mxGeometry relative="1" as="geometry" />
        </mxCell>
        <mxCell id="CW47n4GM8YFiodCjkTIw-34" value="mencari dan memilih logo" style="rounded=1;whiteSpace=wrap;html=1;fontSize=20;" vertex="1" parent="CW47n4GM8YFiodCjkTIw-22">
          <mxGeometry x="25" y="260" width="260" height="70" as="geometry" />
        </mxCell>
        <mxCell id="CW47n4GM8YFiodCjkTIw-36" value="menampilkan logo yang tersedia" style="rounded=1;whiteSpace=wrap;html=1;fontSize=20;" vertex="1" parent="CW47n4GM8YFiodCjkTIw-22">
          <mxGeometry x="336" y="260" width="260" height="70" as="geometry" />
        </mxCell>
        <mxCell id="CW47n4GM8YFiodCjkTIw-41" value="" style="ellipse;shape=doubleEllipse;whiteSpace=wrap;html=1;aspect=fixed;fillColor=#dae8fc;strokeColor=#6c8ebf;" vertex="1" parent="CW47n4GM8YFiodCjkTIw-22">
          <mxGeometry x="436" y="420" width="60" height="60" as="geometry" />
        </mxCell>
        <mxCell id="CW47n4GM8YFiodCjkTIw-42" style="edgeStyle=orthogonalEdgeStyle;rounded=0;orthogonalLoop=1;jettySize=auto;html=1;exitX=0.5;exitY=1;exitDx=0;exitDy=0;entryX=0.5;entryY=0;entryDx=0;entryDy=0;" edge="1" parent="CW47n4GM8YFiodCjkTIw-22" source="CW47n4GM8YFiodCjkTIw-36" target="CW47n4GM8YFiodCjkTIw-41">
          <mxGeometry relative="1" as="geometry">
            <mxPoint x="466.00000000000045" y="600" as="targetPoint" />
            <mxPoint x="466" y="570" as="sourcePoint" />
          </mxGeometry>
        </mxCell>
        <mxCell id="wIs6uxW0cD3kkij6SsNt-1" value="request custom" style="swimlane;whiteSpace=wrap;html=1;fontFamily=Helvetica;fontSize=20;labelBackgroundColor=default;container=0;fillColor=#dae8fc;strokeColor=#6c8ebf;" vertex="1" parent="1">
          <mxGeometry x="2460" y="150" width="620" height="670" as="geometry" />
        </mxCell>
        <mxCell id="wIs6uxW0cD3kkij6SsNt-2" value="" style="rounded=0;whiteSpace=wrap;html=1;" vertex="1" parent="wIs6uxW0cD3kkij6SsNt-1">
          <mxGeometry y="23" width="620" height="27" as="geometry" />
        </mxCell>
        <mxCell id="wIs6uxW0cD3kkij6SsNt-3" value="" style="endArrow=none;html=1;rounded=0;entryX=0.5;entryY=0;entryDx=0;entryDy=0;exitX=0.5;exitY=1;exitDx=0;exitDy=0;" edge="1" parent="wIs6uxW0cD3kkij6SsNt-1" source="wIs6uxW0cD3kkij6SsNt-1" target="wIs6uxW0cD3kkij6SsNt-2">
          <mxGeometry width="50" height="50" relative="1" as="geometry">
            <mxPoint x="76" y="540" as="sourcePoint" />
            <mxPoint x="126" y="490" as="targetPoint" />
          </mxGeometry>
        </mxCell>
        <mxCell id="wIs6uxW0cD3kkij6SsNt-4" value="User" style="text;html=1;align=center;verticalAlign=middle;whiteSpace=wrap;rounded=0;fontSize=19;" vertex="1" parent="wIs6uxW0cD3kkij6SsNt-1">
          <mxGeometry x="120" y="21.5" width="60" height="30" as="geometry" />
        </mxCell>
        <mxCell id="wIs6uxW0cD3kkij6SsNt-5" value="Sistem" style="text;html=1;align=center;verticalAlign=middle;whiteSpace=wrap;rounded=0;fontSize=19;" vertex="1" parent="wIs6uxW0cD3kkij6SsNt-1">
          <mxGeometry x="436" y="23" width="60" height="30" as="geometry" />
        </mxCell>
        <mxCell id="wIs6uxW0cD3kkij6SsNt-6" style="edgeStyle=orthogonalEdgeStyle;rounded=0;orthogonalLoop=1;jettySize=auto;html=1;exitX=0.5;exitY=1;exitDx=0;exitDy=0;entryX=0.5;entryY=0;entryDx=0;entryDy=0;" edge="1" parent="wIs6uxW0cD3kkij6SsNt-1" source="wIs6uxW0cD3kkij6SsNt-7" target="wIs6uxW0cD3kkij6SsNt-9">
          <mxGeometry relative="1" as="geometry" />
        </mxCell>
        <mxCell id="wIs6uxW0cD3kkij6SsNt-7" value="" style="ellipse;whiteSpace=wrap;html=1;aspect=fixed;fillColor=#dae8fc;strokeColor=#6c8ebf;" vertex="1" parent="wIs6uxW0cD3kkij6SsNt-1">
          <mxGeometry x="130" y="60" width="50" height="50" as="geometry" />
        </mxCell>
        <mxCell id="wIs6uxW0cD3kkij6SsNt-8" style="edgeStyle=orthogonalEdgeStyle;rounded=0;orthogonalLoop=1;jettySize=auto;html=1;exitX=1;exitY=0.5;exitDx=0;exitDy=0;entryX=0;entryY=0.5;entryDx=0;entryDy=0;" edge="1" parent="wIs6uxW0cD3kkij6SsNt-1" source="wIs6uxW0cD3kkij6SsNt-9" target="wIs6uxW0cD3kkij6SsNt-11">
          <mxGeometry relative="1" as="geometry" />
        </mxCell>
        <mxCell id="wIs6uxW0cD3kkij6SsNt-9" value="User membuka website" style="rounded=1;whiteSpace=wrap;html=1;fontSize=20;" vertex="1" parent="wIs6uxW0cD3kkij6SsNt-1">
          <mxGeometry x="25" y="140" width="260" height="70" as="geometry" />
        </mxCell>
        <mxCell id="wIs6uxW0cD3kkij6SsNt-10" style="edgeStyle=orthogonalEdgeStyle;rounded=0;orthogonalLoop=1;jettySize=auto;html=1;exitX=0.5;exitY=1;exitDx=0;exitDy=0;entryX=0.5;entryY=0;entryDx=0;entryDy=0;" edge="1" parent="wIs6uxW0cD3kkij6SsNt-1" source="wIs6uxW0cD3kkij6SsNt-11" target="wIs6uxW0cD3kkij6SsNt-13">
          <mxGeometry relative="1" as="geometry" />
        </mxCell>
        <mxCell id="wIs6uxW0cD3kkij6SsNt-11" value="Menampilkan katalog logo" style="rounded=1;whiteSpace=wrap;html=1;fontSize=20;" vertex="1" parent="wIs6uxW0cD3kkij6SsNt-1">
          <mxGeometry x="336" y="140" width="260" height="70" as="geometry" />
        </mxCell>
        <mxCell id="wIs6uxW0cD3kkij6SsNt-12" style="edgeStyle=orthogonalEdgeStyle;rounded=0;orthogonalLoop=1;jettySize=auto;html=1;exitX=1;exitY=0.5;exitDx=0;exitDy=0;entryX=0;entryY=0.5;entryDx=0;entryDy=0;" edge="1" parent="wIs6uxW0cD3kkij6SsNt-1" source="wIs6uxW0cD3kkij6SsNt-13" target="wIs6uxW0cD3kkij6SsNt-14">
          <mxGeometry relative="1" as="geometry" />
        </mxCell>
        <mxCell id="wIs6uxW0cD3kkij6SsNt-13" value="isi detail custom logo" style="rounded=1;whiteSpace=wrap;html=1;fontSize=20;" vertex="1" parent="wIs6uxW0cD3kkij6SsNt-1">
          <mxGeometry x="25" y="260" width="260" height="70" as="geometry" />
        </mxCell>
        <mxCell id="wIs6uxW0cD3kkij6SsNt-14" value="mencatat permintaan" style="rounded=1;whiteSpace=wrap;html=1;fontSize=20;" vertex="1" parent="wIs6uxW0cD3kkij6SsNt-1">
          <mxGeometry x="336" y="260" width="260" height="70" as="geometry" />
        </mxCell>
        <mxCell id="wIs6uxW0cD3kkij6SsNt-15" value="" style="ellipse;shape=doubleEllipse;whiteSpace=wrap;html=1;aspect=fixed;fillColor=#dae8fc;strokeColor=#6c8ebf;" vertex="1" parent="wIs6uxW0cD3kkij6SsNt-1">
          <mxGeometry x="436" y="550" width="60" height="60" as="geometry" />
        </mxCell>
        <mxCell id="wIs6uxW0cD3kkij6SsNt-16" style="edgeStyle=orthogonalEdgeStyle;rounded=0;orthogonalLoop=1;jettySize=auto;html=1;entryX=0.5;entryY=0;entryDx=0;entryDy=0;exitX=0.5;exitY=1;exitDx=0;exitDy=0;" edge="1" parent="wIs6uxW0cD3kkij6SsNt-1" source="wIs6uxW0cD3kkij6SsNt-18" target="wIs6uxW0cD3kkij6SsNt-15">
          <mxGeometry relative="1" as="geometry">
            <mxPoint x="466.00000000000045" y="600" as="targetPoint" />
            <mxPoint x="480" y="460" as="sourcePoint" />
          </mxGeometry>
        </mxCell>
        <mxCell id="wIs6uxW0cD3kkij6SsNt-17" value="melakukan pembayaran" style="rounded=1;whiteSpace=wrap;html=1;fontSize=20;" vertex="1" parent="wIs6uxW0cD3kkij6SsNt-1">
          <mxGeometry x="25" y="390" width="260" height="70" as="geometry" />
        </mxCell>
        <mxCell id="wIs6uxW0cD3kkij6SsNt-18" value="kirim hasil custom" style="rounded=1;whiteSpace=wrap;html=1;fontSize=20;" vertex="1" parent="wIs6uxW0cD3kkij6SsNt-1">
          <mxGeometry x="336" y="390" width="260" height="70" as="geometry" />
        </mxCell>
        <mxCell id="wIs6uxW0cD3kkij6SsNt-22" style="edgeStyle=orthogonalEdgeStyle;rounded=0;orthogonalLoop=1;jettySize=auto;html=1;exitX=0.5;exitY=1;exitDx=0;exitDy=0;entryX=0.5;entryY=0;entryDx=0;entryDy=0;" edge="1" parent="wIs6uxW0cD3kkij6SsNt-1" source="wIs6uxW0cD3kkij6SsNt-14" target="wIs6uxW0cD3kkij6SsNt-17">
          <mxGeometry relative="1" as="geometry">
            <mxPoint x="465.52" y="350" as="sourcePoint" />
            <mxPoint x="155" y="380" as="targetPoint" />
          </mxGeometry>
        </mxCell>
        <mxCell id="wIs6uxW0cD3kkij6SsNt-23" style="edgeStyle=orthogonalEdgeStyle;rounded=0;orthogonalLoop=1;jettySize=auto;html=1;exitX=1;exitY=0.5;exitDx=0;exitDy=0;entryX=0;entryY=0.5;entryDx=0;entryDy=0;" edge="1" parent="wIs6uxW0cD3kkij6SsNt-1">
          <mxGeometry relative="1" as="geometry">
            <mxPoint x="285" y="414.58000000000004" as="sourcePoint" />
            <mxPoint x="336" y="414.58000000000004" as="targetPoint" />
          </mxGeometry>
        </mxCell>
        <mxCell id="S967YiDvG2vHvlW-d_wy-1" value="bayar pesanan" style="swimlane;whiteSpace=wrap;html=1;fontFamily=Helvetica;fontSize=20;labelBackgroundColor=default;container=0;fillColor=#dae8fc;strokeColor=#6c8ebf;" vertex="1" parent="1">
          <mxGeometry x="3160" y="150" width="620" height="670" as="geometry" />
        </mxCell>
        <mxCell id="S967YiDvG2vHvlW-d_wy-2" value="" style="rounded=0;whiteSpace=wrap;html=1;" vertex="1" parent="S967YiDvG2vHvlW-d_wy-1">
          <mxGeometry y="23" width="620" height="27" as="geometry" />
        </mxCell>
        <mxCell id="S967YiDvG2vHvlW-d_wy-3" value="" style="endArrow=none;html=1;rounded=0;entryX=0.5;entryY=0;entryDx=0;entryDy=0;exitX=0.5;exitY=1;exitDx=0;exitDy=0;" edge="1" parent="S967YiDvG2vHvlW-d_wy-1" source="S967YiDvG2vHvlW-d_wy-1" target="S967YiDvG2vHvlW-d_wy-2">
          <mxGeometry width="50" height="50" relative="1" as="geometry">
            <mxPoint x="76" y="540" as="sourcePoint" />
            <mxPoint x="126" y="490" as="targetPoint" />
          </mxGeometry>
        </mxCell>
        <mxCell id="S967YiDvG2vHvlW-d_wy-4" value="User" style="text;html=1;align=center;verticalAlign=middle;whiteSpace=wrap;rounded=0;fontSize=19;" vertex="1" parent="S967YiDvG2vHvlW-d_wy-1">
          <mxGeometry x="120" y="21.5" width="60" height="30" as="geometry" />
        </mxCell>
        <mxCell id="S967YiDvG2vHvlW-d_wy-5" value="Sistem" style="text;html=1;align=center;verticalAlign=middle;whiteSpace=wrap;rounded=0;fontSize=19;" vertex="1" parent="S967YiDvG2vHvlW-d_wy-1">
          <mxGeometry x="436" y="23" width="60" height="30" as="geometry" />
        </mxCell>
        <mxCell id="S967YiDvG2vHvlW-d_wy-6" style="edgeStyle=orthogonalEdgeStyle;rounded=0;orthogonalLoop=1;jettySize=auto;html=1;exitX=0.5;exitY=1;exitDx=0;exitDy=0;entryX=0.5;entryY=0;entryDx=0;entryDy=0;" edge="1" parent="S967YiDvG2vHvlW-d_wy-1" source="S967YiDvG2vHvlW-d_wy-7" target="S967YiDvG2vHvlW-d_wy-9">
          <mxGeometry relative="1" as="geometry" />
        </mxCell>
        <mxCell id="S967YiDvG2vHvlW-d_wy-7" value="" style="ellipse;whiteSpace=wrap;html=1;aspect=fixed;fillColor=#dae8fc;strokeColor=#6c8ebf;" vertex="1" parent="S967YiDvG2vHvlW-d_wy-1">
          <mxGeometry x="130" y="60" width="50" height="50" as="geometry" />
        </mxCell>
        <mxCell id="S967YiDvG2vHvlW-d_wy-8" style="edgeStyle=orthogonalEdgeStyle;rounded=0;orthogonalLoop=1;jettySize=auto;html=1;exitX=1;exitY=0.5;exitDx=0;exitDy=0;entryX=0;entryY=0.5;entryDx=0;entryDy=0;" edge="1" parent="S967YiDvG2vHvlW-d_wy-1" source="S967YiDvG2vHvlW-d_wy-9" target="S967YiDvG2vHvlW-d_wy-11">
          <mxGeometry relative="1" as="geometry" />
        </mxCell>
        <mxCell id="S967YiDvG2vHvlW-d_wy-9" value="User membuka website" style="rounded=1;whiteSpace=wrap;html=1;fontSize=20;" vertex="1" parent="S967YiDvG2vHvlW-d_wy-1">
          <mxGeometry x="25" y="140" width="260" height="70" as="geometry" />
        </mxCell>
        <mxCell id="S967YiDvG2vHvlW-d_wy-10" style="edgeStyle=orthogonalEdgeStyle;rounded=0;orthogonalLoop=1;jettySize=auto;html=1;exitX=0.5;exitY=1;exitDx=0;exitDy=0;entryX=0.5;entryY=0;entryDx=0;entryDy=0;" edge="1" parent="S967YiDvG2vHvlW-d_wy-1" source="S967YiDvG2vHvlW-d_wy-11" target="S967YiDvG2vHvlW-d_wy-13">
          <mxGeometry relative="1" as="geometry" />
        </mxCell>
        <mxCell id="S967YiDvG2vHvlW-d_wy-11" value="Menampilkan dashboard" style="rounded=1;whiteSpace=wrap;html=1;fontSize=20;" vertex="1" parent="S967YiDvG2vHvlW-d_wy-1">
          <mxGeometry x="336" y="140" width="260" height="70" as="geometry" />
        </mxCell>
        <mxCell id="S967YiDvG2vHvlW-d_wy-12" style="edgeStyle=orthogonalEdgeStyle;rounded=0;orthogonalLoop=1;jettySize=auto;html=1;exitX=1;exitY=0.5;exitDx=0;exitDy=0;entryX=0;entryY=0.5;entryDx=0;entryDy=0;" edge="1" parent="S967YiDvG2vHvlW-d_wy-1" source="S967YiDvG2vHvlW-d_wy-13" target="S967YiDvG2vHvlW-d_wy-14">
          <mxGeometry relative="1" as="geometry" />
        </mxCell>
        <mxCell id="S967YiDvG2vHvlW-d_wy-13" value="pilih metoode pembayaran&amp;nbsp;" style="rounded=1;whiteSpace=wrap;html=1;fontSize=20;" vertex="1" parent="S967YiDvG2vHvlW-d_wy-1">
          <mxGeometry x="25" y="260" width="260" height="70" as="geometry" />
        </mxCell>
        <mxCell id="S967YiDvG2vHvlW-d_wy-14" value="verifikasi pembayaran&amp;nbsp;" style="rounded=1;whiteSpace=wrap;html=1;fontSize=20;" vertex="1" parent="S967YiDvG2vHvlW-d_wy-1">
          <mxGeometry x="336" y="260" width="260" height="70" as="geometry" />
        </mxCell>
        <mxCell id="S967YiDvG2vHvlW-d_wy-15" value="" style="ellipse;shape=doubleEllipse;whiteSpace=wrap;html=1;aspect=fixed;fillColor=#dae8fc;strokeColor=#6c8ebf;" vertex="1" parent="S967YiDvG2vHvlW-d_wy-1">
          <mxGeometry x="436" y="420" width="60" height="60" as="geometry" />
        </mxCell>
        <mxCell id="S967YiDvG2vHvlW-d_wy-16" style="edgeStyle=orthogonalEdgeStyle;rounded=0;orthogonalLoop=1;jettySize=auto;html=1;exitX=0.5;exitY=1;exitDx=0;exitDy=0;entryX=0.5;entryY=0;entryDx=0;entryDy=0;" edge="1" parent="S967YiDvG2vHvlW-d_wy-1" source="S967YiDvG2vHvlW-d_wy-14" target="S967YiDvG2vHvlW-d_wy-15">
          <mxGeometry relative="1" as="geometry">
            <mxPoint x="466.00000000000045" y="600" as="targetPoint" />
            <mxPoint x="466" y="570" as="sourcePoint" />
          </mxGeometry>
        </mxCell>
        <mxCell id="0Q9dXdJpLxPYOTgNWm4h-1" value="lihat status pesanan" style="swimlane;whiteSpace=wrap;html=1;fontFamily=Helvetica;fontSize=20;labelBackgroundColor=default;container=0;fillColor=#dae8fc;strokeColor=#6c8ebf;" vertex="1" parent="1">
          <mxGeometry x="3860" y="150" width="620" height="670" as="geometry" />
        </mxCell>
        <mxCell id="0Q9dXdJpLxPYOTgNWm4h-2" value="" style="rounded=0;whiteSpace=wrap;html=1;" vertex="1" parent="0Q9dXdJpLxPYOTgNWm4h-1">
          <mxGeometry y="23" width="620" height="27" as="geometry" />
        </mxCell>
        <mxCell id="0Q9dXdJpLxPYOTgNWm4h-3" value="" style="endArrow=none;html=1;rounded=0;entryX=0.5;entryY=0;entryDx=0;entryDy=0;exitX=0.5;exitY=1;exitDx=0;exitDy=0;" edge="1" parent="0Q9dXdJpLxPYOTgNWm4h-1" source="0Q9dXdJpLxPYOTgNWm4h-1" target="0Q9dXdJpLxPYOTgNWm4h-2">
          <mxGeometry width="50" height="50" relative="1" as="geometry">
            <mxPoint x="76" y="540" as="sourcePoint" />
            <mxPoint x="126" y="490" as="targetPoint" />
          </mxGeometry>
        </mxCell>
        <mxCell id="0Q9dXdJpLxPYOTgNWm4h-4" value="User" style="text;html=1;align=center;verticalAlign=middle;whiteSpace=wrap;rounded=0;fontSize=19;" vertex="1" parent="0Q9dXdJpLxPYOTgNWm4h-1">
          <mxGeometry x="120" y="21.5" width="60" height="30" as="geometry" />
        </mxCell>
        <mxCell id="0Q9dXdJpLxPYOTgNWm4h-5" value="Sistem" style="text;html=1;align=center;verticalAlign=middle;whiteSpace=wrap;rounded=0;fontSize=19;" vertex="1" parent="0Q9dXdJpLxPYOTgNWm4h-1">
          <mxGeometry x="436" y="23" width="60" height="30" as="geometry" />
        </mxCell>
        <mxCell id="0Q9dXdJpLxPYOTgNWm4h-6" style="edgeStyle=orthogonalEdgeStyle;rounded=0;orthogonalLoop=1;jettySize=auto;html=1;exitX=0.5;exitY=1;exitDx=0;exitDy=0;entryX=0.5;entryY=0;entryDx=0;entryDy=0;" edge="1" parent="0Q9dXdJpLxPYOTgNWm4h-1" source="0Q9dXdJpLxPYOTgNWm4h-7" target="0Q9dXdJpLxPYOTgNWm4h-9">
          <mxGeometry relative="1" as="geometry" />
        </mxCell>
        <mxCell id="0Q9dXdJpLxPYOTgNWm4h-7" value="" style="ellipse;whiteSpace=wrap;html=1;aspect=fixed;fillColor=#dae8fc;strokeColor=#6c8ebf;" vertex="1" parent="0Q9dXdJpLxPYOTgNWm4h-1">
          <mxGeometry x="130" y="60" width="50" height="50" as="geometry" />
        </mxCell>
        <mxCell id="0Q9dXdJpLxPYOTgNWm4h-8" style="edgeStyle=orthogonalEdgeStyle;rounded=0;orthogonalLoop=1;jettySize=auto;html=1;exitX=1;exitY=0.5;exitDx=0;exitDy=0;entryX=0;entryY=0.5;entryDx=0;entryDy=0;" edge="1" parent="0Q9dXdJpLxPYOTgNWm4h-1" source="0Q9dXdJpLxPYOTgNWm4h-9" target="0Q9dXdJpLxPYOTgNWm4h-11">
          <mxGeometry relative="1" as="geometry" />
        </mxCell>
        <mxCell id="0Q9dXdJpLxPYOTgNWm4h-9" value="User membuka website" style="rounded=1;whiteSpace=wrap;html=1;fontSize=20;" vertex="1" parent="0Q9dXdJpLxPYOTgNWm4h-1">
          <mxGeometry x="25" y="140" width="260" height="70" as="geometry" />
        </mxCell>
        <mxCell id="0Q9dXdJpLxPYOTgNWm4h-10" style="edgeStyle=orthogonalEdgeStyle;rounded=0;orthogonalLoop=1;jettySize=auto;html=1;exitX=0.5;exitY=1;exitDx=0;exitDy=0;entryX=0.5;entryY=0;entryDx=0;entryDy=0;" edge="1" parent="0Q9dXdJpLxPYOTgNWm4h-1" source="0Q9dXdJpLxPYOTgNWm4h-11" target="0Q9dXdJpLxPYOTgNWm4h-13">
          <mxGeometry relative="1" as="geometry" />
        </mxCell>
        <mxCell id="0Q9dXdJpLxPYOTgNWm4h-11" value="Menampilkan dashboard" style="rounded=1;whiteSpace=wrap;html=1;fontSize=20;" vertex="1" parent="0Q9dXdJpLxPYOTgNWm4h-1">
          <mxGeometry x="336" y="140" width="260" height="70" as="geometry" />
        </mxCell>
        <mxCell id="0Q9dXdJpLxPYOTgNWm4h-12" style="edgeStyle=orthogonalEdgeStyle;rounded=0;orthogonalLoop=1;jettySize=auto;html=1;exitX=1;exitY=0.5;exitDx=0;exitDy=0;entryX=0;entryY=0.5;entryDx=0;entryDy=0;" edge="1" parent="0Q9dXdJpLxPYOTgNWm4h-1" source="0Q9dXdJpLxPYOTgNWm4h-13" target="0Q9dXdJpLxPYOTgNWm4h-14">
          <mxGeometry relative="1" as="geometry" />
        </mxCell>
        <mxCell id="0Q9dXdJpLxPYOTgNWm4h-13" value="buka halaman status pesanana" style="rounded=1;whiteSpace=wrap;html=1;fontSize=20;" vertex="1" parent="0Q9dXdJpLxPYOTgNWm4h-1">
          <mxGeometry x="25" y="260" width="260" height="70" as="geometry" />
        </mxCell>
        <mxCell id="0Q9dXdJpLxPYOTgNWm4h-14" value="menampilkan status order" style="rounded=1;whiteSpace=wrap;html=1;fontSize=20;" vertex="1" parent="0Q9dXdJpLxPYOTgNWm4h-1">
          <mxGeometry x="336" y="260" width="260" height="70" as="geometry" />
        </mxCell>
        <mxCell id="0Q9dXdJpLxPYOTgNWm4h-15" value="" style="ellipse;shape=doubleEllipse;whiteSpace=wrap;html=1;aspect=fixed;fillColor=#dae8fc;strokeColor=#6c8ebf;" vertex="1" parent="0Q9dXdJpLxPYOTgNWm4h-1">
          <mxGeometry x="436" y="420" width="60" height="60" as="geometry" />
        </mxCell>
        <mxCell id="0Q9dXdJpLxPYOTgNWm4h-16" style="edgeStyle=orthogonalEdgeStyle;rounded=0;orthogonalLoop=1;jettySize=auto;html=1;exitX=0.5;exitY=1;exitDx=0;exitDy=0;entryX=0.5;entryY=0;entryDx=0;entryDy=0;" edge="1" parent="0Q9dXdJpLxPYOTgNWm4h-1" source="0Q9dXdJpLxPYOTgNWm4h-14" target="0Q9dXdJpLxPYOTgNWm4h-15">
          <mxGeometry relative="1" as="geometry">
            <mxPoint x="466.00000000000045" y="600" as="targetPoint" />
            <mxPoint x="466" y="570" as="sourcePoint" />
          </mxGeometry>
        </mxCell>
        <mxCell id="0Q9dXdJpLxPYOTgNWm4h-17" value="terima logo" style="swimlane;whiteSpace=wrap;html=1;fontFamily=Helvetica;fontSize=20;labelBackgroundColor=default;container=0;fillColor=#dae8fc;strokeColor=#6c8ebf;" vertex="1" parent="1">
          <mxGeometry x="4549" y="140" width="620" height="670" as="geometry" />
        </mxCell>
        <mxCell id="0Q9dXdJpLxPYOTgNWm4h-18" value="" style="rounded=0;whiteSpace=wrap;html=1;" vertex="1" parent="0Q9dXdJpLxPYOTgNWm4h-17">
          <mxGeometry y="23" width="620" height="27" as="geometry" />
        </mxCell>
        <mxCell id="0Q9dXdJpLxPYOTgNWm4h-19" value="" style="endArrow=none;html=1;rounded=0;entryX=0.5;entryY=0;entryDx=0;entryDy=0;exitX=0.5;exitY=1;exitDx=0;exitDy=0;" edge="1" parent="0Q9dXdJpLxPYOTgNWm4h-17" source="0Q9dXdJpLxPYOTgNWm4h-17" target="0Q9dXdJpLxPYOTgNWm4h-18">
          <mxGeometry width="50" height="50" relative="1" as="geometry">
            <mxPoint x="76" y="540" as="sourcePoint" />
            <mxPoint x="126" y="490" as="targetPoint" />
          </mxGeometry>
        </mxCell>
        <mxCell id="0Q9dXdJpLxPYOTgNWm4h-20" value="User" style="text;html=1;align=center;verticalAlign=middle;whiteSpace=wrap;rounded=0;fontSize=19;" vertex="1" parent="0Q9dXdJpLxPYOTgNWm4h-17">
          <mxGeometry x="120" y="21.5" width="60" height="30" as="geometry" />
        </mxCell>
        <mxCell id="0Q9dXdJpLxPYOTgNWm4h-21" value="Sistem" style="text;html=1;align=center;verticalAlign=middle;whiteSpace=wrap;rounded=0;fontSize=19;" vertex="1" parent="0Q9dXdJpLxPYOTgNWm4h-17">
          <mxGeometry x="436" y="23" width="60" height="30" as="geometry" />
        </mxCell>
        <mxCell id="0Q9dXdJpLxPYOTgNWm4h-22" style="edgeStyle=orthogonalEdgeStyle;rounded=0;orthogonalLoop=1;jettySize=auto;html=1;exitX=0.5;exitY=1;exitDx=0;exitDy=0;entryX=0.5;entryY=0;entryDx=0;entryDy=0;" edge="1" parent="0Q9dXdJpLxPYOTgNWm4h-17" source="0Q9dXdJpLxPYOTgNWm4h-23" target="0Q9dXdJpLxPYOTgNWm4h-25">
          <mxGeometry relative="1" as="geometry" />
        </mxCell>
        <mxCell id="0Q9dXdJpLxPYOTgNWm4h-23" value="" style="ellipse;whiteSpace=wrap;html=1;aspect=fixed;fillColor=#dae8fc;strokeColor=#6c8ebf;" vertex="1" parent="0Q9dXdJpLxPYOTgNWm4h-17">
          <mxGeometry x="130" y="60" width="50" height="50" as="geometry" />
        </mxCell>
        <mxCell id="0Q9dXdJpLxPYOTgNWm4h-24" style="edgeStyle=orthogonalEdgeStyle;rounded=0;orthogonalLoop=1;jettySize=auto;html=1;exitX=1;exitY=0.5;exitDx=0;exitDy=0;entryX=0;entryY=0.5;entryDx=0;entryDy=0;" edge="1" parent="0Q9dXdJpLxPYOTgNWm4h-17" source="0Q9dXdJpLxPYOTgNWm4h-25" target="0Q9dXdJpLxPYOTgNWm4h-27">
          <mxGeometry relative="1" as="geometry" />
        </mxCell>
        <mxCell id="0Q9dXdJpLxPYOTgNWm4h-25" value="User membuka website" style="rounded=1;whiteSpace=wrap;html=1;fontSize=20;" vertex="1" parent="0Q9dXdJpLxPYOTgNWm4h-17">
          <mxGeometry x="25" y="140" width="260" height="70" as="geometry" />
        </mxCell>
        <mxCell id="0Q9dXdJpLxPYOTgNWm4h-26" style="edgeStyle=orthogonalEdgeStyle;rounded=0;orthogonalLoop=1;jettySize=auto;html=1;exitX=0.5;exitY=1;exitDx=0;exitDy=0;entryX=0.5;entryY=0;entryDx=0;entryDy=0;" edge="1" parent="0Q9dXdJpLxPYOTgNWm4h-17" source="0Q9dXdJpLxPYOTgNWm4h-27" target="0Q9dXdJpLxPYOTgNWm4h-30">
          <mxGeometry relative="1" as="geometry" />
        </mxCell>
        <mxCell id="0Q9dXdJpLxPYOTgNWm4h-27" value="Menampilkan dashboard" style="rounded=1;whiteSpace=wrap;html=1;fontSize=20;" vertex="1" parent="0Q9dXdJpLxPYOTgNWm4h-17">
          <mxGeometry x="336" y="140" width="260" height="70" as="geometry" />
        </mxCell>
        <mxCell id="0Q9dXdJpLxPYOTgNWm4h-28" style="edgeStyle=orthogonalEdgeStyle;rounded=0;orthogonalLoop=1;jettySize=auto;html=1;entryX=1;entryY=0.5;entryDx=0;entryDy=0;exitX=0;exitY=0.5;exitDx=0;exitDy=0;" edge="1" parent="0Q9dXdJpLxPYOTgNWm4h-17" source="0Q9dXdJpLxPYOTgNWm4h-30" target="0Q9dXdJpLxPYOTgNWm4h-29">
          <mxGeometry relative="1" as="geometry">
            <mxPoint x="328" y="295" as="sourcePoint" />
          </mxGeometry>
        </mxCell>
        <mxCell id="0Q9dXdJpLxPYOTgNWm4h-29" value="download logo&amp;nbsp;" style="rounded=1;whiteSpace=wrap;html=1;fontSize=20;" vertex="1" parent="0Q9dXdJpLxPYOTgNWm4h-17">
          <mxGeometry x="25" y="260" width="260" height="70" as="geometry" />
        </mxCell>
        <mxCell id="0Q9dXdJpLxPYOTgNWm4h-30" value="mengunggah hasil logo" style="rounded=1;whiteSpace=wrap;html=1;fontSize=20;" vertex="1" parent="0Q9dXdJpLxPYOTgNWm4h-17">
          <mxGeometry x="336" y="260" width="260" height="70" as="geometry" />
        </mxCell>
        <mxCell id="0Q9dXdJpLxPYOTgNWm4h-31" value="" style="ellipse;shape=doubleEllipse;whiteSpace=wrap;html=1;aspect=fixed;fillColor=#dae8fc;strokeColor=#6c8ebf;" vertex="1" parent="0Q9dXdJpLxPYOTgNWm4h-17">
          <mxGeometry x="125" y="405" width="60" height="60" as="geometry" />
        </mxCell>
        <mxCell id="0Q9dXdJpLxPYOTgNWm4h-32" style="edgeStyle=orthogonalEdgeStyle;rounded=0;orthogonalLoop=1;jettySize=auto;html=1;exitX=0.5;exitY=1;exitDx=0;exitDy=0;entryX=0.5;entryY=0;entryDx=0;entryDy=0;" edge="1" parent="0Q9dXdJpLxPYOTgNWm4h-17" source="0Q9dXdJpLxPYOTgNWm4h-29" target="0Q9dXdJpLxPYOTgNWm4h-31">
          <mxGeometry relative="1" as="geometry">
            <mxPoint x="466.00000000000045" y="600" as="targetPoint" />
            <mxPoint x="466" y="570" as="sourcePoint" />
          </mxGeometry>
        </mxCell>
        <mxCell id="19QxKf1LYTE2DSf5ZE9K-1" value="Login" style="swimlane;whiteSpace=wrap;html=1;fontFamily=Helvetica;fontSize=20;labelBackgroundColor=default;container=0;fillColor=#dae8fc;strokeColor=#6c8ebf;" vertex="1" parent="1">
          <mxGeometry x="370" y="910" width="620" height="670" as="geometry" />
        </mxCell>
        <mxCell id="19QxKf1LYTE2DSf5ZE9K-2" value="" style="rounded=0;whiteSpace=wrap;html=1;" vertex="1" parent="19QxKf1LYTE2DSf5ZE9K-1">
          <mxGeometry y="23" width="620" height="27" as="geometry" />
        </mxCell>
        <mxCell id="19QxKf1LYTE2DSf5ZE9K-3" value="" style="endArrow=none;html=1;rounded=0;entryX=0.5;entryY=0;entryDx=0;entryDy=0;exitX=0.5;exitY=1;exitDx=0;exitDy=0;" edge="1" parent="19QxKf1LYTE2DSf5ZE9K-1" source="19QxKf1LYTE2DSf5ZE9K-1" target="19QxKf1LYTE2DSf5ZE9K-2">
          <mxGeometry width="50" height="50" relative="1" as="geometry">
            <mxPoint x="76" y="540" as="sourcePoint" />
            <mxPoint x="126" y="490" as="targetPoint" />
          </mxGeometry>
        </mxCell>
        <mxCell id="19QxKf1LYTE2DSf5ZE9K-4" value="Admin" style="text;html=1;align=center;verticalAlign=middle;whiteSpace=wrap;rounded=0;fontSize=19;" vertex="1" parent="19QxKf1LYTE2DSf5ZE9K-1">
          <mxGeometry x="120" y="21.5" width="60" height="30" as="geometry" />
        </mxCell>
        <mxCell id="19QxKf1LYTE2DSf5ZE9K-5" value="Sistem" style="text;html=1;align=center;verticalAlign=middle;whiteSpace=wrap;rounded=0;fontSize=19;" vertex="1" parent="19QxKf1LYTE2DSf5ZE9K-1">
          <mxGeometry x="436" y="23" width="60" height="30" as="geometry" />
        </mxCell>
        <mxCell id="19QxKf1LYTE2DSf5ZE9K-6" style="edgeStyle=orthogonalEdgeStyle;rounded=0;orthogonalLoop=1;jettySize=auto;html=1;exitX=0.5;exitY=1;exitDx=0;exitDy=0;entryX=0.5;entryY=0;entryDx=0;entryDy=0;" edge="1" parent="19QxKf1LYTE2DSf5ZE9K-1" source="19QxKf1LYTE2DSf5ZE9K-7" target="19QxKf1LYTE2DSf5ZE9K-9">
          <mxGeometry relative="1" as="geometry" />
        </mxCell>
        <mxCell id="19QxKf1LYTE2DSf5ZE9K-7" value="" style="ellipse;whiteSpace=wrap;html=1;aspect=fixed;fillColor=#dae8fc;strokeColor=#6c8ebf;" vertex="1" parent="19QxKf1LYTE2DSf5ZE9K-1">
          <mxGeometry x="130" y="60" width="50" height="50" as="geometry" />
        </mxCell>
        <mxCell id="19QxKf1LYTE2DSf5ZE9K-8" style="edgeStyle=orthogonalEdgeStyle;rounded=0;orthogonalLoop=1;jettySize=auto;html=1;exitX=1;exitY=0.5;exitDx=0;exitDy=0;entryX=0;entryY=0.5;entryDx=0;entryDy=0;" edge="1" parent="19QxKf1LYTE2DSf5ZE9K-1" source="19QxKf1LYTE2DSf5ZE9K-9" target="19QxKf1LYTE2DSf5ZE9K-11">
          <mxGeometry relative="1" as="geometry" />
        </mxCell>
        <mxCell id="19QxKf1LYTE2DSf5ZE9K-9" value="Admin membuka website" style="rounded=1;whiteSpace=wrap;html=1;fontSize=20;" vertex="1" parent="19QxKf1LYTE2DSf5ZE9K-1">
          <mxGeometry x="25" y="140" width="260" height="70" as="geometry" />
        </mxCell>
        <mxCell id="19QxKf1LYTE2DSf5ZE9K-10" style="edgeStyle=orthogonalEdgeStyle;rounded=0;orthogonalLoop=1;jettySize=auto;html=1;exitX=0.5;exitY=1;exitDx=0;exitDy=0;entryX=0.5;entryY=0;entryDx=0;entryDy=0;" edge="1" parent="19QxKf1LYTE2DSf5ZE9K-1" source="19QxKf1LYTE2DSf5ZE9K-11" target="19QxKf1LYTE2DSf5ZE9K-13">
          <mxGeometry relative="1" as="geometry" />
        </mxCell>
        <mxCell id="19QxKf1LYTE2DSf5ZE9K-11" value="Menampilkan form login" style="rounded=1;whiteSpace=wrap;html=1;fontSize=20;" vertex="1" parent="19QxKf1LYTE2DSf5ZE9K-1">
          <mxGeometry x="336" y="140" width="260" height="70" as="geometry" />
        </mxCell>
        <mxCell id="19QxKf1LYTE2DSf5ZE9K-12" style="edgeStyle=orthogonalEdgeStyle;rounded=0;orthogonalLoop=1;jettySize=auto;html=1;exitX=1;exitY=0.5;exitDx=0;exitDy=0;entryX=0;entryY=0.5;entryDx=0;entryDy=0;" edge="1" parent="19QxKf1LYTE2DSf5ZE9K-1" source="19QxKf1LYTE2DSf5ZE9K-13" target="19QxKf1LYTE2DSf5ZE9K-15">
          <mxGeometry relative="1" as="geometry" />
        </mxCell>
        <mxCell id="19QxKf1LYTE2DSf5ZE9K-13" value="Memasukkan username dan password" style="rounded=1;whiteSpace=wrap;html=1;fontSize=20;" vertex="1" parent="19QxKf1LYTE2DSf5ZE9K-1">
          <mxGeometry x="25" y="260" width="260" height="70" as="geometry" />
        </mxCell>
        <mxCell id="19QxKf1LYTE2DSf5ZE9K-14" style="edgeStyle=orthogonalEdgeStyle;rounded=0;orthogonalLoop=1;jettySize=auto;html=1;exitX=0.5;exitY=1;exitDx=0;exitDy=0;entryX=0.5;entryY=0;entryDx=0;entryDy=0;" edge="1" parent="19QxKf1LYTE2DSf5ZE9K-1" source="19QxKf1LYTE2DSf5ZE9K-15" target="19QxKf1LYTE2DSf5ZE9K-17">
          <mxGeometry relative="1" as="geometry" />
        </mxCell>
        <mxCell id="19QxKf1LYTE2DSf5ZE9K-15" value="Melakukan verifikasi" style="rounded=1;whiteSpace=wrap;html=1;fontSize=20;" vertex="1" parent="19QxKf1LYTE2DSf5ZE9K-1">
          <mxGeometry x="336" y="260" width="260" height="70" as="geometry" />
        </mxCell>
        <mxCell id="19QxKf1LYTE2DSf5ZE9K-16" value="Salah" style="edgeStyle=orthogonalEdgeStyle;rounded=0;orthogonalLoop=1;jettySize=auto;html=1;exitX=0;exitY=0.5;exitDx=0;exitDy=0;entryX=0.5;entryY=1;entryDx=0;entryDy=0;fontSize=20;" edge="1" parent="19QxKf1LYTE2DSf5ZE9K-1" source="19QxKf1LYTE2DSf5ZE9K-17" target="19QxKf1LYTE2DSf5ZE9K-13">
          <mxGeometry relative="1" as="geometry" />
        </mxCell>
        <mxCell id="19QxKf1LYTE2DSf5ZE9K-17" value="" style="rhombus;whiteSpace=wrap;html=1;" vertex="1" parent="19QxKf1LYTE2DSf5ZE9K-1">
          <mxGeometry x="426" y="360" width="80" height="80" as="geometry" />
        </mxCell>
        <mxCell id="19QxKf1LYTE2DSf5ZE9K-18" value="Menampilkan dashboard" style="rounded=1;whiteSpace=wrap;html=1;fontSize=20;" vertex="1" parent="19QxKf1LYTE2DSf5ZE9K-1">
          <mxGeometry x="336" y="500" width="260" height="70" as="geometry" />
        </mxCell>
        <mxCell id="19QxKf1LYTE2DSf5ZE9K-19" value="Benar" style="edgeStyle=orthogonalEdgeStyle;rounded=0;orthogonalLoop=1;jettySize=auto;html=1;exitX=0.5;exitY=1;exitDx=0;exitDy=0;entryX=0.5;entryY=0;entryDx=0;entryDy=0;fontSize=20;" edge="1" parent="19QxKf1LYTE2DSf5ZE9K-1" source="19QxKf1LYTE2DSf5ZE9K-17" target="19QxKf1LYTE2DSf5ZE9K-18">
          <mxGeometry relative="1" as="geometry" />
        </mxCell>
        <mxCell id="19QxKf1LYTE2DSf5ZE9K-20" value="" style="ellipse;shape=doubleEllipse;whiteSpace=wrap;html=1;aspect=fixed;fillColor=#dae8fc;strokeColor=#6c8ebf;" vertex="1" parent="19QxKf1LYTE2DSf5ZE9K-1">
          <mxGeometry x="436" y="600" width="60" height="60" as="geometry" />
        </mxCell>
        <mxCell id="19QxKf1LYTE2DSf5ZE9K-21" style="edgeStyle=orthogonalEdgeStyle;rounded=0;orthogonalLoop=1;jettySize=auto;html=1;exitX=0.5;exitY=1;exitDx=0;exitDy=0;entryX=0.5;entryY=0;entryDx=0;entryDy=0;" edge="1" parent="19QxKf1LYTE2DSf5ZE9K-1" source="19QxKf1LYTE2DSf5ZE9K-18" target="19QxKf1LYTE2DSf5ZE9K-20">
          <mxGeometry relative="1" as="geometry">
            <mxPoint x="466.00000000000045" y="600" as="targetPoint" />
          </mxGeometry>
        </mxCell>
        <mxCell id="U01-s40DVssWOLEhqHhj-1" value="kelola katalog logo" style="swimlane;whiteSpace=wrap;html=1;fontFamily=Helvetica;fontSize=20;labelBackgroundColor=default;container=0;fillColor=#dae8fc;strokeColor=#6c8ebf;" vertex="1" parent="1">
          <mxGeometry x="1060" y="910" width="620" height="670" as="geometry" />
        </mxCell>
        <mxCell id="U01-s40DVssWOLEhqHhj-2" value="" style="rounded=0;whiteSpace=wrap;html=1;" vertex="1" parent="U01-s40DVssWOLEhqHhj-1">
          <mxGeometry y="23" width="620" height="27" as="geometry" />
        </mxCell>
        <mxCell id="U01-s40DVssWOLEhqHhj-3" value="" style="endArrow=none;html=1;rounded=0;entryX=0.5;entryY=0;entryDx=0;entryDy=0;exitX=0.5;exitY=1;exitDx=0;exitDy=0;" edge="1" parent="U01-s40DVssWOLEhqHhj-1" source="U01-s40DVssWOLEhqHhj-1" target="U01-s40DVssWOLEhqHhj-2">
          <mxGeometry width="50" height="50" relative="1" as="geometry">
            <mxPoint x="76" y="540" as="sourcePoint" />
            <mxPoint x="126" y="490" as="targetPoint" />
          </mxGeometry>
        </mxCell>
        <mxCell id="U01-s40DVssWOLEhqHhj-4" value="Admin" style="text;html=1;align=center;verticalAlign=middle;whiteSpace=wrap;rounded=0;fontSize=19;" vertex="1" parent="U01-s40DVssWOLEhqHhj-1">
          <mxGeometry x="120" y="21.5" width="60" height="30" as="geometry" />
        </mxCell>
        <mxCell id="U01-s40DVssWOLEhqHhj-5" value="Sistem" style="text;html=1;align=center;verticalAlign=middle;whiteSpace=wrap;rounded=0;fontSize=19;" vertex="1" parent="U01-s40DVssWOLEhqHhj-1">
          <mxGeometry x="436" y="23" width="60" height="30" as="geometry" />
        </mxCell>
        <mxCell id="U01-s40DVssWOLEhqHhj-6" style="edgeStyle=orthogonalEdgeStyle;rounded=0;orthogonalLoop=1;jettySize=auto;html=1;exitX=0.5;exitY=1;exitDx=0;exitDy=0;entryX=0.5;entryY=0;entryDx=0;entryDy=0;" edge="1" parent="U01-s40DVssWOLEhqHhj-1" source="U01-s40DVssWOLEhqHhj-7" target="U01-s40DVssWOLEhqHhj-9">
          <mxGeometry relative="1" as="geometry" />
        </mxCell>
        <mxCell id="U01-s40DVssWOLEhqHhj-7" value="" style="ellipse;whiteSpace=wrap;html=1;aspect=fixed;fillColor=#dae8fc;strokeColor=#6c8ebf;" vertex="1" parent="U01-s40DVssWOLEhqHhj-1">
          <mxGeometry x="130" y="60" width="50" height="50" as="geometry" />
        </mxCell>
        <mxCell id="U01-s40DVssWOLEhqHhj-8" style="edgeStyle=orthogonalEdgeStyle;rounded=0;orthogonalLoop=1;jettySize=auto;html=1;exitX=1;exitY=0.5;exitDx=0;exitDy=0;entryX=0;entryY=0.5;entryDx=0;entryDy=0;" edge="1" parent="U01-s40DVssWOLEhqHhj-1" source="U01-s40DVssWOLEhqHhj-9" target="U01-s40DVssWOLEhqHhj-11">
          <mxGeometry relative="1" as="geometry" />
        </mxCell>
        <mxCell id="U01-s40DVssWOLEhqHhj-9" value="Admin membuka website" style="rounded=1;whiteSpace=wrap;html=1;fontSize=20;" vertex="1" parent="U01-s40DVssWOLEhqHhj-1">
          <mxGeometry x="25" y="140" width="260" height="70" as="geometry" />
        </mxCell>
        <mxCell id="U01-s40DVssWOLEhqHhj-10" style="edgeStyle=orthogonalEdgeStyle;rounded=0;orthogonalLoop=1;jettySize=auto;html=1;exitX=0.5;exitY=1;exitDx=0;exitDy=0;entryX=0.5;entryY=0;entryDx=0;entryDy=0;" edge="1" parent="U01-s40DVssWOLEhqHhj-1" source="U01-s40DVssWOLEhqHhj-11" target="U01-s40DVssWOLEhqHhj-13">
          <mxGeometry relative="1" as="geometry" />
        </mxCell>
        <mxCell id="U01-s40DVssWOLEhqHhj-11" value="menampilkan dashboard" style="rounded=1;whiteSpace=wrap;html=1;fontSize=20;" vertex="1" parent="U01-s40DVssWOLEhqHhj-1">
          <mxGeometry x="336" y="140" width="260" height="70" as="geometry" />
        </mxCell>
        <mxCell id="U01-s40DVssWOLEhqHhj-12" style="edgeStyle=orthogonalEdgeStyle;rounded=0;orthogonalLoop=1;jettySize=auto;html=1;exitX=1;exitY=0.5;exitDx=0;exitDy=0;entryX=0;entryY=0.5;entryDx=0;entryDy=0;" edge="1" parent="U01-s40DVssWOLEhqHhj-1" source="U01-s40DVssWOLEhqHhj-13" target="U01-s40DVssWOLEhqHhj-14">
          <mxGeometry relative="1" as="geometry" />
        </mxCell>
        <mxCell id="U01-s40DVssWOLEhqHhj-13" value="pilih menu katalog logo" style="rounded=1;whiteSpace=wrap;html=1;fontSize=20;" vertex="1" parent="U01-s40DVssWOLEhqHhj-1">
          <mxGeometry x="25" y="260" width="260" height="70" as="geometry" />
        </mxCell>
        <mxCell id="U01-s40DVssWOLEhqHhj-14" value="menampilkan katalog logo" style="rounded=1;whiteSpace=wrap;html=1;fontSize=20;" vertex="1" parent="U01-s40DVssWOLEhqHhj-1">
          <mxGeometry x="336" y="260" width="260" height="70" as="geometry" />
        </mxCell>
        <mxCell id="U01-s40DVssWOLEhqHhj-15" value="" style="ellipse;shape=doubleEllipse;whiteSpace=wrap;html=1;aspect=fixed;fillColor=#dae8fc;strokeColor=#6c8ebf;" vertex="1" parent="U01-s40DVssWOLEhqHhj-1">
          <mxGeometry x="436" y="520" width="60" height="60" as="geometry" />
        </mxCell>
        <mxCell id="U01-s40DVssWOLEhqHhj-16" style="edgeStyle=orthogonalEdgeStyle;rounded=0;orthogonalLoop=1;jettySize=auto;html=1;exitX=0.5;exitY=1;exitDx=0;exitDy=0;" edge="1" parent="U01-s40DVssWOLEhqHhj-1" source="U01-s40DVssWOLEhqHhj-18">
          <mxGeometry relative="1" as="geometry">
            <mxPoint x="466" y="520" as="targetPoint" />
            <mxPoint x="466" y="480" as="sourcePoint" />
          </mxGeometry>
        </mxCell>
        <mxCell id="U01-s40DVssWOLEhqHhj-17" value="tambah,edit,hapus logo" style="rounded=1;whiteSpace=wrap;html=1;fontSize=20;" vertex="1" parent="U01-s40DVssWOLEhqHhj-1">
          <mxGeometry x="25" y="390" width="260" height="70" as="geometry" />
        </mxCell>
        <mxCell id="U01-s40DVssWOLEhqHhj-18" value="perbarui katalog logo" style="rounded=1;whiteSpace=wrap;html=1;fontSize=20;" vertex="1" parent="U01-s40DVssWOLEhqHhj-1">
          <mxGeometry x="336" y="390" width="260" height="70" as="geometry" />
        </mxCell>
        <mxCell id="U01-s40DVssWOLEhqHhj-19" style="edgeStyle=orthogonalEdgeStyle;rounded=0;orthogonalLoop=1;jettySize=auto;html=1;exitX=0.5;exitY=1;exitDx=0;exitDy=0;" edge="1" parent="U01-s40DVssWOLEhqHhj-1" source="U01-s40DVssWOLEhqHhj-14">
          <mxGeometry relative="1" as="geometry">
            <mxPoint x="461" y="360" as="sourcePoint" />
            <mxPoint x="150" y="390" as="targetPoint" />
          </mxGeometry>
        </mxCell>
        <mxCell id="U01-s40DVssWOLEhqHhj-20" style="edgeStyle=orthogonalEdgeStyle;rounded=0;orthogonalLoop=1;jettySize=auto;html=1;exitX=1;exitY=0.5;exitDx=0;exitDy=0;entryX=0;entryY=0.5;entryDx=0;entryDy=0;" edge="1" parent="U01-s40DVssWOLEhqHhj-1" source="U01-s40DVssWOLEhqHhj-17" target="U01-s40DVssWOLEhqHhj-18">
          <mxGeometry relative="1" as="geometry">
            <mxPoint x="300" y="170" as="sourcePoint" />
            <mxPoint x="351" y="170" as="targetPoint" />
          </mxGeometry>
        </mxCell>
        <mxCell id="jIVI22Kga38PvGlYPv63-1" value="kelola transaksi" style="swimlane;whiteSpace=wrap;html=1;fontFamily=Helvetica;fontSize=20;labelBackgroundColor=default;container=0;fillColor=#dae8fc;strokeColor=#6c8ebf;" vertex="1" parent="1">
          <mxGeometry x="1758" y="910" width="620" height="670" as="geometry" />
        </mxCell>
        <mxCell id="jIVI22Kga38PvGlYPv63-2" value="" style="rounded=0;whiteSpace=wrap;html=1;" vertex="1" parent="jIVI22Kga38PvGlYPv63-1">
          <mxGeometry y="23" width="620" height="27" as="geometry" />
        </mxCell>
        <mxCell id="jIVI22Kga38PvGlYPv63-3" value="" style="endArrow=none;html=1;rounded=0;entryX=0.5;entryY=0;entryDx=0;entryDy=0;exitX=0.5;exitY=1;exitDx=0;exitDy=0;" edge="1" parent="jIVI22Kga38PvGlYPv63-1" source="jIVI22Kga38PvGlYPv63-1" target="jIVI22Kga38PvGlYPv63-2">
          <mxGeometry width="50" height="50" relative="1" as="geometry">
            <mxPoint x="76" y="540" as="sourcePoint" />
            <mxPoint x="126" y="490" as="targetPoint" />
          </mxGeometry>
        </mxCell>
        <mxCell id="jIVI22Kga38PvGlYPv63-4" value="Admin" style="text;html=1;align=center;verticalAlign=middle;whiteSpace=wrap;rounded=0;fontSize=19;" vertex="1" parent="jIVI22Kga38PvGlYPv63-1">
          <mxGeometry x="120" y="21.5" width="60" height="30" as="geometry" />
        </mxCell>
        <mxCell id="jIVI22Kga38PvGlYPv63-5" value="Sistem" style="text;html=1;align=center;verticalAlign=middle;whiteSpace=wrap;rounded=0;fontSize=19;" vertex="1" parent="jIVI22Kga38PvGlYPv63-1">
          <mxGeometry x="436" y="23" width="60" height="30" as="geometry" />
        </mxCell>
        <mxCell id="jIVI22Kga38PvGlYPv63-6" style="edgeStyle=orthogonalEdgeStyle;rounded=0;orthogonalLoop=1;jettySize=auto;html=1;exitX=0.5;exitY=1;exitDx=0;exitDy=0;entryX=0.5;entryY=0;entryDx=0;entryDy=0;" edge="1" parent="jIVI22Kga38PvGlYPv63-1" source="jIVI22Kga38PvGlYPv63-7" target="jIVI22Kga38PvGlYPv63-9">
          <mxGeometry relative="1" as="geometry" />
        </mxCell>
        <mxCell id="jIVI22Kga38PvGlYPv63-7" value="" style="ellipse;whiteSpace=wrap;html=1;aspect=fixed;fillColor=#dae8fc;strokeColor=#6c8ebf;" vertex="1" parent="jIVI22Kga38PvGlYPv63-1">
          <mxGeometry x="130" y="60" width="50" height="50" as="geometry" />
        </mxCell>
        <mxCell id="jIVI22Kga38PvGlYPv63-8" style="edgeStyle=orthogonalEdgeStyle;rounded=0;orthogonalLoop=1;jettySize=auto;html=1;exitX=1;exitY=0.5;exitDx=0;exitDy=0;entryX=0;entryY=0.5;entryDx=0;entryDy=0;" edge="1" parent="jIVI22Kga38PvGlYPv63-1" source="jIVI22Kga38PvGlYPv63-9" target="jIVI22Kga38PvGlYPv63-11">
          <mxGeometry relative="1" as="geometry" />
        </mxCell>
        <mxCell id="jIVI22Kga38PvGlYPv63-9" value="Admin membuka website" style="rounded=1;whiteSpace=wrap;html=1;fontSize=20;" vertex="1" parent="jIVI22Kga38PvGlYPv63-1">
          <mxGeometry x="25" y="140" width="260" height="70" as="geometry" />
        </mxCell>
        <mxCell id="jIVI22Kga38PvGlYPv63-10" style="edgeStyle=orthogonalEdgeStyle;rounded=0;orthogonalLoop=1;jettySize=auto;html=1;exitX=0.5;exitY=1;exitDx=0;exitDy=0;entryX=0.5;entryY=0;entryDx=0;entryDy=0;" edge="1" parent="jIVI22Kga38PvGlYPv63-1" source="jIVI22Kga38PvGlYPv63-11" target="jIVI22Kga38PvGlYPv63-13">
          <mxGeometry relative="1" as="geometry" />
        </mxCell>
        <mxCell id="jIVI22Kga38PvGlYPv63-11" value="menampilkan dashboard" style="rounded=1;whiteSpace=wrap;html=1;fontSize=20;" vertex="1" parent="jIVI22Kga38PvGlYPv63-1">
          <mxGeometry x="336" y="140" width="260" height="70" as="geometry" />
        </mxCell>
        <mxCell id="jIVI22Kga38PvGlYPv63-12" style="edgeStyle=orthogonalEdgeStyle;rounded=0;orthogonalLoop=1;jettySize=auto;html=1;exitX=1;exitY=0.5;exitDx=0;exitDy=0;entryX=0;entryY=0.5;entryDx=0;entryDy=0;" edge="1" parent="jIVI22Kga38PvGlYPv63-1" source="jIVI22Kga38PvGlYPv63-13" target="jIVI22Kga38PvGlYPv63-14">
          <mxGeometry relative="1" as="geometry" />
        </mxCell>
        <mxCell id="jIVI22Kga38PvGlYPv63-13" value="memantau transaksi masuk dan verifikasi pembayaran&amp;nbsp;" style="rounded=1;whiteSpace=wrap;html=1;fontSize=20;" vertex="1" parent="jIVI22Kga38PvGlYPv63-1">
          <mxGeometry x="25" y="260" width="260" height="70" as="geometry" />
        </mxCell>
        <mxCell id="jIVI22Kga38PvGlYPv63-14" value="menampilkan detail&lt;div&gt;&amp;nbsp;transaksi&lt;/div&gt;" style="rounded=1;whiteSpace=wrap;html=1;fontSize=20;" vertex="1" parent="jIVI22Kga38PvGlYPv63-1">
          <mxGeometry x="336" y="260" width="260" height="70" as="geometry" />
        </mxCell>
        <mxCell id="jIVI22Kga38PvGlYPv63-21" value="" style="edgeStyle=orthogonalEdgeStyle;rounded=0;orthogonalLoop=1;jettySize=auto;html=1;exitX=0.5;exitY=1;exitDx=0;exitDy=0;" edge="1" parent="jIVI22Kga38PvGlYPv63-1" source="jIVI22Kga38PvGlYPv63-14" target="jIVI22Kga38PvGlYPv63-15">
          <mxGeometry relative="1" as="geometry">
            <mxPoint x="2224" y="1430" as="targetPoint" />
            <mxPoint x="2224" y="1240" as="sourcePoint" />
          </mxGeometry>
        </mxCell>
        <mxCell id="jIVI22Kga38PvGlYPv63-15" value="" style="ellipse;shape=doubleEllipse;whiteSpace=wrap;html=1;aspect=fixed;fillColor=#dae8fc;strokeColor=#6c8ebf;" vertex="1" parent="jIVI22Kga38PvGlYPv63-1">
          <mxGeometry x="436" y="420" width="60" height="60" as="geometry" />
        </mxCell>
        <mxCell id="xpHzLXc-DIMDwqfOJ5SG-1" value="proses pesanan" style="swimlane;whiteSpace=wrap;html=1;fontFamily=Helvetica;fontSize=20;labelBackgroundColor=default;container=0;fillColor=#dae8fc;strokeColor=#6c8ebf;" vertex="1" parent="1">
          <mxGeometry x="2440" y="900" width="620" height="670" as="geometry" />
        </mxCell>
        <mxCell id="xpHzLXc-DIMDwqfOJ5SG-2" value="" style="rounded=0;whiteSpace=wrap;html=1;" vertex="1" parent="xpHzLXc-DIMDwqfOJ5SG-1">
          <mxGeometry y="23" width="620" height="27" as="geometry" />
        </mxCell>
        <mxCell id="xpHzLXc-DIMDwqfOJ5SG-3" value="" style="endArrow=none;html=1;rounded=0;entryX=0.5;entryY=0;entryDx=0;entryDy=0;exitX=0.5;exitY=1;exitDx=0;exitDy=0;" edge="1" parent="xpHzLXc-DIMDwqfOJ5SG-1" source="xpHzLXc-DIMDwqfOJ5SG-1" target="xpHzLXc-DIMDwqfOJ5SG-2">
          <mxGeometry width="50" height="50" relative="1" as="geometry">
            <mxPoint x="76" y="540" as="sourcePoint" />
            <mxPoint x="126" y="490" as="targetPoint" />
          </mxGeometry>
        </mxCell>
        <mxCell id="xpHzLXc-DIMDwqfOJ5SG-4" value="Admin" style="text;html=1;align=center;verticalAlign=middle;whiteSpace=wrap;rounded=0;fontSize=19;" vertex="1" parent="xpHzLXc-DIMDwqfOJ5SG-1">
          <mxGeometry x="120" y="21.5" width="60" height="30" as="geometry" />
        </mxCell>
        <mxCell id="xpHzLXc-DIMDwqfOJ5SG-5" value="Sistem" style="text;html=1;align=center;verticalAlign=middle;whiteSpace=wrap;rounded=0;fontSize=19;" vertex="1" parent="xpHzLXc-DIMDwqfOJ5SG-1">
          <mxGeometry x="436" y="23" width="60" height="30" as="geometry" />
        </mxCell>
        <mxCell id="xpHzLXc-DIMDwqfOJ5SG-6" style="edgeStyle=orthogonalEdgeStyle;rounded=0;orthogonalLoop=1;jettySize=auto;html=1;exitX=0.5;exitY=1;exitDx=0;exitDy=0;entryX=0.5;entryY=0;entryDx=0;entryDy=0;" edge="1" parent="xpHzLXc-DIMDwqfOJ5SG-1" source="xpHzLXc-DIMDwqfOJ5SG-7" target="xpHzLXc-DIMDwqfOJ5SG-9">
          <mxGeometry relative="1" as="geometry" />
        </mxCell>
        <mxCell id="xpHzLXc-DIMDwqfOJ5SG-7" value="" style="ellipse;whiteSpace=wrap;html=1;aspect=fixed;fillColor=#dae8fc;strokeColor=#6c8ebf;" vertex="1" parent="xpHzLXc-DIMDwqfOJ5SG-1">
          <mxGeometry x="130" y="60" width="50" height="50" as="geometry" />
        </mxCell>
        <mxCell id="xpHzLXc-DIMDwqfOJ5SG-8" style="edgeStyle=orthogonalEdgeStyle;rounded=0;orthogonalLoop=1;jettySize=auto;html=1;exitX=1;exitY=0.5;exitDx=0;exitDy=0;entryX=0;entryY=0.5;entryDx=0;entryDy=0;" edge="1" parent="xpHzLXc-DIMDwqfOJ5SG-1" source="xpHzLXc-DIMDwqfOJ5SG-9" target="xpHzLXc-DIMDwqfOJ5SG-11">
          <mxGeometry relative="1" as="geometry" />
        </mxCell>
        <mxCell id="xpHzLXc-DIMDwqfOJ5SG-9" value="Admin membuka website" style="rounded=1;whiteSpace=wrap;html=1;fontSize=20;" vertex="1" parent="xpHzLXc-DIMDwqfOJ5SG-1">
          <mxGeometry x="25" y="140" width="260" height="70" as="geometry" />
        </mxCell>
        <mxCell id="xpHzLXc-DIMDwqfOJ5SG-10" style="edgeStyle=orthogonalEdgeStyle;rounded=0;orthogonalLoop=1;jettySize=auto;html=1;exitX=0.5;exitY=1;exitDx=0;exitDy=0;entryX=0.5;entryY=0;entryDx=0;entryDy=0;" edge="1" parent="xpHzLXc-DIMDwqfOJ5SG-1" source="xpHzLXc-DIMDwqfOJ5SG-11" target="xpHzLXc-DIMDwqfOJ5SG-13">
          <mxGeometry relative="1" as="geometry" />
        </mxCell>
        <mxCell id="xpHzLXc-DIMDwqfOJ5SG-11" value="menampilkan dashboard" style="rounded=1;whiteSpace=wrap;html=1;fontSize=20;" vertex="1" parent="xpHzLXc-DIMDwqfOJ5SG-1">
          <mxGeometry x="336" y="140" width="260" height="70" as="geometry" />
        </mxCell>
        <mxCell id="xpHzLXc-DIMDwqfOJ5SG-12" style="edgeStyle=orthogonalEdgeStyle;rounded=0;orthogonalLoop=1;jettySize=auto;html=1;exitX=1;exitY=0.5;exitDx=0;exitDy=0;entryX=0;entryY=0.5;entryDx=0;entryDy=0;" edge="1" parent="xpHzLXc-DIMDwqfOJ5SG-1" source="xpHzLXc-DIMDwqfOJ5SG-13" target="xpHzLXc-DIMDwqfOJ5SG-14">
          <mxGeometry relative="1" as="geometry" />
        </mxCell>
        <mxCell id="xpHzLXc-DIMDwqfOJ5SG-13" value="kirim file/ buat desain&lt;div&gt;&amp;nbsp;custom&lt;/div&gt;" style="rounded=1;whiteSpace=wrap;html=1;fontSize=20;" vertex="1" parent="xpHzLXc-DIMDwqfOJ5SG-1">
          <mxGeometry x="25" y="260" width="260" height="70" as="geometry" />
        </mxCell>
        <mxCell id="xpHzLXc-DIMDwqfOJ5SG-14" value="beri notifikasi status pesanan&amp;nbsp;" style="rounded=1;whiteSpace=wrap;html=1;fontSize=20;" vertex="1" parent="xpHzLXc-DIMDwqfOJ5SG-1">
          <mxGeometry x="336" y="260" width="260" height="70" as="geometry" />
        </mxCell>
        <mxCell id="xpHzLXc-DIMDwqfOJ5SG-15" value="" style="edgeStyle=orthogonalEdgeStyle;rounded=0;orthogonalLoop=1;jettySize=auto;html=1;exitX=0.5;exitY=1;exitDx=0;exitDy=0;" edge="1" parent="xpHzLXc-DIMDwqfOJ5SG-1" source="xpHzLXc-DIMDwqfOJ5SG-14" target="xpHzLXc-DIMDwqfOJ5SG-16">
          <mxGeometry relative="1" as="geometry">
            <mxPoint x="2224" y="1430" as="targetPoint" />
            <mxPoint x="2224" y="1240" as="sourcePoint" />
          </mxGeometry>
        </mxCell>
        <mxCell id="xpHzLXc-DIMDwqfOJ5SG-16" value="" style="ellipse;shape=doubleEllipse;whiteSpace=wrap;html=1;aspect=fixed;fillColor=#dae8fc;strokeColor=#6c8ebf;" vertex="1" parent="xpHzLXc-DIMDwqfOJ5SG-1">
          <mxGeometry x="436" y="420" width="60" height="60" as="geometry" />
        </mxCell>
        <mxCell id="k5M09adt67nla0Ir62JL-1" value="kirim logo&amp;nbsp;" style="swimlane;whiteSpace=wrap;html=1;fontFamily=Helvetica;fontSize=20;labelBackgroundColor=default;container=0;fillColor=#dae8fc;strokeColor=#6c8ebf;" vertex="1" parent="1">
          <mxGeometry x="3130" y="900" width="620" height="670" as="geometry" />
        </mxCell>
        <mxCell id="k5M09adt67nla0Ir62JL-2" value="" style="rounded=0;whiteSpace=wrap;html=1;" vertex="1" parent="k5M09adt67nla0Ir62JL-1">
          <mxGeometry y="23" width="620" height="27" as="geometry" />
        </mxCell>
        <mxCell id="k5M09adt67nla0Ir62JL-3" value="" style="endArrow=none;html=1;rounded=0;entryX=0.5;entryY=0;entryDx=0;entryDy=0;exitX=0.5;exitY=1;exitDx=0;exitDy=0;" edge="1" parent="k5M09adt67nla0Ir62JL-1" source="k5M09adt67nla0Ir62JL-1" target="k5M09adt67nla0Ir62JL-2">
          <mxGeometry width="50" height="50" relative="1" as="geometry">
            <mxPoint x="76" y="540" as="sourcePoint" />
            <mxPoint x="126" y="490" as="targetPoint" />
          </mxGeometry>
        </mxCell>
        <mxCell id="k5M09adt67nla0Ir62JL-4" value="Admin" style="text;html=1;align=center;verticalAlign=middle;whiteSpace=wrap;rounded=0;fontSize=19;" vertex="1" parent="k5M09adt67nla0Ir62JL-1">
          <mxGeometry x="120" y="21.5" width="60" height="30" as="geometry" />
        </mxCell>
        <mxCell id="k5M09adt67nla0Ir62JL-5" value="Sistem" style="text;html=1;align=center;verticalAlign=middle;whiteSpace=wrap;rounded=0;fontSize=19;" vertex="1" parent="k5M09adt67nla0Ir62JL-1">
          <mxGeometry x="436" y="23" width="60" height="30" as="geometry" />
        </mxCell>
        <mxCell id="k5M09adt67nla0Ir62JL-6" style="edgeStyle=orthogonalEdgeStyle;rounded=0;orthogonalLoop=1;jettySize=auto;html=1;exitX=0.5;exitY=1;exitDx=0;exitDy=0;entryX=0.5;entryY=0;entryDx=0;entryDy=0;" edge="1" parent="k5M09adt67nla0Ir62JL-1" source="k5M09adt67nla0Ir62JL-7" target="k5M09adt67nla0Ir62JL-9">
          <mxGeometry relative="1" as="geometry" />
        </mxCell>
        <mxCell id="k5M09adt67nla0Ir62JL-7" value="" style="ellipse;whiteSpace=wrap;html=1;aspect=fixed;fillColor=#dae8fc;strokeColor=#6c8ebf;" vertex="1" parent="k5M09adt67nla0Ir62JL-1">
          <mxGeometry x="130" y="60" width="50" height="50" as="geometry" />
        </mxCell>
        <mxCell id="k5M09adt67nla0Ir62JL-8" style="edgeStyle=orthogonalEdgeStyle;rounded=0;orthogonalLoop=1;jettySize=auto;html=1;exitX=1;exitY=0.5;exitDx=0;exitDy=0;entryX=0;entryY=0.5;entryDx=0;entryDy=0;" edge="1" parent="k5M09adt67nla0Ir62JL-1" source="k5M09adt67nla0Ir62JL-9" target="k5M09adt67nla0Ir62JL-11">
          <mxGeometry relative="1" as="geometry" />
        </mxCell>
        <mxCell id="k5M09adt67nla0Ir62JL-9" value="Admin membuka website" style="rounded=1;whiteSpace=wrap;html=1;fontSize=20;" vertex="1" parent="k5M09adt67nla0Ir62JL-1">
          <mxGeometry x="25" y="140" width="260" height="70" as="geometry" />
        </mxCell>
        <mxCell id="k5M09adt67nla0Ir62JL-10" style="edgeStyle=orthogonalEdgeStyle;rounded=0;orthogonalLoop=1;jettySize=auto;html=1;exitX=0.5;exitY=1;exitDx=0;exitDy=0;entryX=0.5;entryY=0;entryDx=0;entryDy=0;" edge="1" parent="k5M09adt67nla0Ir62JL-1" source="k5M09adt67nla0Ir62JL-11" target="k5M09adt67nla0Ir62JL-13">
          <mxGeometry relative="1" as="geometry" />
        </mxCell>
        <mxCell id="k5M09adt67nla0Ir62JL-11" value="menampilkan dashboard" style="rounded=1;whiteSpace=wrap;html=1;fontSize=20;" vertex="1" parent="k5M09adt67nla0Ir62JL-1">
          <mxGeometry x="336" y="140" width="260" height="70" as="geometry" />
        </mxCell>
        <mxCell id="k5M09adt67nla0Ir62JL-12" style="edgeStyle=orthogonalEdgeStyle;rounded=0;orthogonalLoop=1;jettySize=auto;html=1;exitX=1;exitY=0.5;exitDx=0;exitDy=0;entryX=0;entryY=0.5;entryDx=0;entryDy=0;" edge="1" parent="k5M09adt67nla0Ir62JL-1" source="k5M09adt67nla0Ir62JL-13" target="k5M09adt67nla0Ir62JL-14">
          <mxGeometry relative="1" as="geometry" />
        </mxCell>
        <mxCell id="k5M09adt67nla0Ir62JL-13" value="unggah file logo" style="rounded=1;whiteSpace=wrap;html=1;fontSize=20;" vertex="1" parent="k5M09adt67nla0Ir62JL-1">
          <mxGeometry x="25" y="260" width="260" height="70" as="geometry" />
        </mxCell>
        <mxCell id="k5M09adt67nla0Ir62JL-14" value="beri notifikasi kepada customer" style="rounded=1;whiteSpace=wrap;html=1;fontSize=20;" vertex="1" parent="k5M09adt67nla0Ir62JL-1">
          <mxGeometry x="336" y="260" width="260" height="70" as="geometry" />
        </mxCell>
        <mxCell id="k5M09adt67nla0Ir62JL-15" value="" style="edgeStyle=orthogonalEdgeStyle;rounded=0;orthogonalLoop=1;jettySize=auto;html=1;exitX=0.5;exitY=1;exitDx=0;exitDy=0;" edge="1" parent="k5M09adt67nla0Ir62JL-1" source="k5M09adt67nla0Ir62JL-14" target="k5M09adt67nla0Ir62JL-16">
          <mxGeometry relative="1" as="geometry">
            <mxPoint x="2224" y="1430" as="targetPoint" />
            <mxPoint x="2224" y="1240" as="sourcePoint" />
          </mxGeometry>
        </mxCell>
        <mxCell id="k5M09adt67nla0Ir62JL-16" value="" style="ellipse;shape=doubleEllipse;whiteSpace=wrap;html=1;aspect=fixed;fillColor=#dae8fc;strokeColor=#6c8ebf;" vertex="1" parent="k5M09adt67nla0Ir62JL-1">
          <mxGeometry x="436" y="420" width="60" height="60" as="geometry" />
        </mxCell>
        <mxCell id="qqthnX1xUBAUr08aKTAU-1" value="beli logo" style="swimlane;whiteSpace=wrap;html=1;fontFamily=Helvetica;fontSize=20;labelBackgroundColor=default;container=0;fillColor=#dae8fc;strokeColor=#6c8ebf;" vertex="1" parent="1">
          <mxGeometry x="1770" y="150" width="620" height="670" as="geometry" />
        </mxCell>
        <mxCell id="qqthnX1xUBAUr08aKTAU-2" value="" style="rounded=0;whiteSpace=wrap;html=1;" vertex="1" parent="qqthnX1xUBAUr08aKTAU-1">
          <mxGeometry y="23" width="620" height="27" as="geometry" />
        </mxCell>
        <mxCell id="qqthnX1xUBAUr08aKTAU-3" value="" style="endArrow=none;html=1;rounded=0;entryX=0.5;entryY=0;entryDx=0;entryDy=0;exitX=0.5;exitY=1;exitDx=0;exitDy=0;" edge="1" parent="qqthnX1xUBAUr08aKTAU-1" source="qqthnX1xUBAUr08aKTAU-1" target="qqthnX1xUBAUr08aKTAU-2">
          <mxGeometry width="50" height="50" relative="1" as="geometry">
            <mxPoint x="76" y="540" as="sourcePoint" />
            <mxPoint x="126" y="490" as="targetPoint" />
          </mxGeometry>
        </mxCell>
        <mxCell id="qqthnX1xUBAUr08aKTAU-4" value="User" style="text;html=1;align=center;verticalAlign=middle;whiteSpace=wrap;rounded=0;fontSize=19;" vertex="1" parent="qqthnX1xUBAUr08aKTAU-1">
          <mxGeometry x="120" y="21.5" width="60" height="30" as="geometry" />
        </mxCell>
        <mxCell id="qqthnX1xUBAUr08aKTAU-5" value="Sistem" style="text;html=1;align=center;verticalAlign=middle;whiteSpace=wrap;rounded=0;fontSize=19;" vertex="1" parent="qqthnX1xUBAUr08aKTAU-1">
          <mxGeometry x="436" y="23" width="60" height="30" as="geometry" />
        </mxCell>
        <mxCell id="qqthnX1xUBAUr08aKTAU-6" style="edgeStyle=orthogonalEdgeStyle;rounded=0;orthogonalLoop=1;jettySize=auto;html=1;exitX=0.5;exitY=1;exitDx=0;exitDy=0;entryX=0.5;entryY=0;entryDx=0;entryDy=0;" edge="1" parent="qqthnX1xUBAUr08aKTAU-1" source="qqthnX1xUBAUr08aKTAU-7" target="qqthnX1xUBAUr08aKTAU-9">
          <mxGeometry relative="1" as="geometry" />
        </mxCell>
        <mxCell id="qqthnX1xUBAUr08aKTAU-7" value="" style="ellipse;whiteSpace=wrap;html=1;aspect=fixed;fillColor=#dae8fc;strokeColor=#6c8ebf;" vertex="1" parent="qqthnX1xUBAUr08aKTAU-1">
          <mxGeometry x="130" y="60" width="50" height="50" as="geometry" />
        </mxCell>
        <mxCell id="qqthnX1xUBAUr08aKTAU-8" style="edgeStyle=orthogonalEdgeStyle;rounded=0;orthogonalLoop=1;jettySize=auto;html=1;exitX=1;exitY=0.5;exitDx=0;exitDy=0;entryX=0;entryY=0.5;entryDx=0;entryDy=0;" edge="1" parent="qqthnX1xUBAUr08aKTAU-1" source="qqthnX1xUBAUr08aKTAU-9" target="qqthnX1xUBAUr08aKTAU-11">
          <mxGeometry relative="1" as="geometry" />
        </mxCell>
        <mxCell id="qqthnX1xUBAUr08aKTAU-9" value="User membuka website" style="rounded=1;whiteSpace=wrap;html=1;fontSize=20;" vertex="1" parent="qqthnX1xUBAUr08aKTAU-1">
          <mxGeometry x="25" y="140" width="260" height="70" as="geometry" />
        </mxCell>
        <mxCell id="qqthnX1xUBAUr08aKTAU-10" style="edgeStyle=orthogonalEdgeStyle;rounded=0;orthogonalLoop=1;jettySize=auto;html=1;exitX=0.5;exitY=1;exitDx=0;exitDy=0;entryX=0.5;entryY=0;entryDx=0;entryDy=0;" edge="1" parent="qqthnX1xUBAUr08aKTAU-1" source="qqthnX1xUBAUr08aKTAU-11" target="qqthnX1xUBAUr08aKTAU-13">
          <mxGeometry relative="1" as="geometry" />
        </mxCell>
        <mxCell id="qqthnX1xUBAUr08aKTAU-11" value="Menampilkan katalog logo" style="rounded=1;whiteSpace=wrap;html=1;fontSize=20;" vertex="1" parent="qqthnX1xUBAUr08aKTAU-1">
          <mxGeometry x="336" y="140" width="260" height="70" as="geometry" />
        </mxCell>
        <mxCell id="qqthnX1xUBAUr08aKTAU-12" style="edgeStyle=orthogonalEdgeStyle;rounded=0;orthogonalLoop=1;jettySize=auto;html=1;exitX=1;exitY=0.5;exitDx=0;exitDy=0;entryX=0;entryY=0.5;entryDx=0;entryDy=0;" edge="1" parent="qqthnX1xUBAUr08aKTAU-1" source="qqthnX1xUBAUr08aKTAU-13" target="qqthnX1xUBAUr08aKTAU-14">
          <mxGeometry relative="1" as="geometry" />
        </mxCell>
        <mxCell id="qqthnX1xUBAUr08aKTAU-13" value="mencari dan memilih logo" style="rounded=1;whiteSpace=wrap;html=1;fontSize=20;" vertex="1" parent="qqthnX1xUBAUr08aKTAU-1">
          <mxGeometry x="25" y="260" width="260" height="70" as="geometry" />
        </mxCell>
        <mxCell id="qqthnX1xUBAUr08aKTAU-14" value="menampilkan logo yang tersedia" style="rounded=1;whiteSpace=wrap;html=1;fontSize=20;" vertex="1" parent="qqthnX1xUBAUr08aKTAU-1">
          <mxGeometry x="336" y="260" width="260" height="70" as="geometry" />
        </mxCell>
        <mxCell id="qqthnX1xUBAUr08aKTAU-15" value="" style="ellipse;shape=doubleEllipse;whiteSpace=wrap;html=1;aspect=fixed;fillColor=#dae8fc;strokeColor=#6c8ebf;" vertex="1" parent="qqthnX1xUBAUr08aKTAU-1">
          <mxGeometry x="438" y="550" width="60" height="60" as="geometry" />
        </mxCell>
        <mxCell id="qqthnX1xUBAUr08aKTAU-16" style="edgeStyle=orthogonalEdgeStyle;rounded=0;orthogonalLoop=1;jettySize=auto;html=1;entryX=0.5;entryY=0;entryDx=0;entryDy=0;exitX=0.5;exitY=1;exitDx=0;exitDy=0;" edge="1" parent="qqthnX1xUBAUr08aKTAU-1" source="qqthnX1xUBAUr08aKTAU-18" target="qqthnX1xUBAUr08aKTAU-15">
          <mxGeometry relative="1" as="geometry">
            <mxPoint x="466.00000000000045" y="600" as="targetPoint" />
            <mxPoint x="466" y="490" as="sourcePoint" />
          </mxGeometry>
        </mxCell>
        <mxCell id="qqthnX1xUBAUr08aKTAU-17" value="beli logo" style="rounded=1;whiteSpace=wrap;html=1;fontSize=20;" vertex="1" parent="qqthnX1xUBAUr08aKTAU-1">
          <mxGeometry x="25" y="390" width="260" height="70" as="geometry" />
        </mxCell>
        <mxCell id="qqthnX1xUBAUr08aKTAU-18" value="konfirmasi psanan&amp;nbsp;" style="rounded=1;whiteSpace=wrap;html=1;fontSize=20;" vertex="1" parent="qqthnX1xUBAUr08aKTAU-1">
          <mxGeometry x="338" y="390" width="260" height="70" as="geometry" />
        </mxCell>
        <mxCell id="qqthnX1xUBAUr08aKTAU-19" style="edgeStyle=orthogonalEdgeStyle;rounded=0;orthogonalLoop=1;jettySize=auto;html=1;exitX=0.5;exitY=1;exitDx=0;exitDy=0;entryX=0.5;entryY=0;entryDx=0;entryDy=0;" edge="1" parent="qqthnX1xUBAUr08aKTAU-1" source="qqthnX1xUBAUr08aKTAU-14">
          <mxGeometry relative="1" as="geometry">
            <mxPoint x="465.5" y="340" as="sourcePoint" />
            <mxPoint x="154.5" y="390" as="targetPoint" />
            <Array as="points">
              <mxPoint x="466" y="360" />
              <mxPoint x="155" y="360" />
            </Array>
          </mxGeometry>
        </mxCell>
        <mxCell id="ETVe_OWojirftLV4swlr-1" value="Logout" style="swimlane;whiteSpace=wrap;html=1;fontFamily=Helvetica;fontSize=20;labelBackgroundColor=default;container=0;fillColor=#dae8fc;strokeColor=#6c8ebf;" vertex="1" parent="1">
          <mxGeometry x="5250" y="140" width="660" height="1170" as="geometry" />
        </mxCell>
        <mxCell id="ETVe_OWojirftLV4swlr-2" value="" style="rounded=0;whiteSpace=wrap;html=1;" vertex="1" parent="ETVe_OWojirftLV4swlr-1">
          <mxGeometry y="23" width="620" height="27" as="geometry" />
        </mxCell>
        <mxCell id="ETVe_OWojirftLV4swlr-3" value="" style="endArrow=none;html=1;rounded=0;entryX=0.5;entryY=0;entryDx=0;entryDy=0;exitX=0.5;exitY=1;exitDx=0;exitDy=0;" edge="1" parent="ETVe_OWojirftLV4swlr-1" source="ETVe_OWojirftLV4swlr-1" target="ETVe_OWojirftLV4swlr-2">
          <mxGeometry width="50" height="50" relative="1" as="geometry">
            <mxPoint x="76" y="540" as="sourcePoint" />
            <mxPoint x="126" y="490" as="targetPoint" />
          </mxGeometry>
        </mxCell>
        <mxCell id="ETVe_OWojirftLV4swlr-4" value="User" style="text;html=1;align=center;verticalAlign=middle;whiteSpace=wrap;rounded=0;fontSize=19;" vertex="1" parent="ETVe_OWojirftLV4swlr-1">
          <mxGeometry x="120" y="21.5" width="60" height="30" as="geometry" />
        </mxCell>
        <mxCell id="ETVe_OWojirftLV4swlr-5" value="Sistem" style="text;html=1;align=center;verticalAlign=middle;whiteSpace=wrap;rounded=0;fontSize=19;" vertex="1" parent="ETVe_OWojirftLV4swlr-1">
          <mxGeometry x="436" y="23" width="60" height="30" as="geometry" />
        </mxCell>
        <mxCell id="ETVe_OWojirftLV4swlr-6" style="edgeStyle=orthogonalEdgeStyle;rounded=0;orthogonalLoop=1;jettySize=auto;html=1;exitX=0.5;exitY=1;exitDx=0;exitDy=0;entryX=0.5;entryY=0;entryDx=0;entryDy=0;" edge="1" parent="ETVe_OWojirftLV4swlr-1" source="ETVe_OWojirftLV4swlr-7" target="ETVe_OWojirftLV4swlr-9">
          <mxGeometry relative="1" as="geometry" />
        </mxCell>
        <mxCell id="ETVe_OWojirftLV4swlr-7" value="" style="ellipse;whiteSpace=wrap;html=1;aspect=fixed;fillColor=#dae8fc;strokeColor=#6c8ebf;" vertex="1" parent="ETVe_OWojirftLV4swlr-1">
          <mxGeometry x="130" y="60" width="50" height="50" as="geometry" />
        </mxCell>
        <mxCell id="ETVe_OWojirftLV4swlr-8" style="edgeStyle=orthogonalEdgeStyle;rounded=0;orthogonalLoop=1;jettySize=auto;html=1;exitX=1;exitY=0.5;exitDx=0;exitDy=0;entryX=0;entryY=0.5;entryDx=0;entryDy=0;" edge="1" parent="ETVe_OWojirftLV4swlr-1" source="ETVe_OWojirftLV4swlr-9">
          <mxGeometry relative="1" as="geometry">
            <mxPoint x="336" y="175" as="targetPoint" />
          </mxGeometry>
        </mxCell>
        <mxCell id="ETVe_OWojirftLV4swlr-9" value="pilih logout" style="rounded=1;whiteSpace=wrap;html=1;fontSize=20;" vertex="1" parent="ETVe_OWojirftLV4swlr-1">
          <mxGeometry x="25" y="140" width="260" height="70" as="geometry" />
        </mxCell>
        <mxCell id="ETVe_OWojirftLV4swlr-14" style="edgeStyle=orthogonalEdgeStyle;rounded=0;orthogonalLoop=1;jettySize=auto;html=1;exitX=0.5;exitY=1;exitDx=0;exitDy=0;entryX=0.5;entryY=0;entryDx=0;entryDy=0;" edge="1" parent="ETVe_OWojirftLV4swlr-1" source="ETVe_OWojirftLV4swlr-15" target="ETVe_OWojirftLV4swlr-17">
          <mxGeometry relative="1" as="geometry" />
        </mxCell>
        <mxCell id="ETVe_OWojirftLV4swlr-15" value="Melakukan verifikasi" style="rounded=1;whiteSpace=wrap;html=1;fontSize=20;" vertex="1" parent="ETVe_OWojirftLV4swlr-1">
          <mxGeometry x="336" y="140" width="260" height="70" as="geometry" />
        </mxCell>
        <mxCell id="ETVe_OWojirftLV4swlr-17" value="" style="rhombus;whiteSpace=wrap;html=1;" vertex="1" parent="ETVe_OWojirftLV4swlr-1">
          <mxGeometry x="426" y="250" width="80" height="80" as="geometry" />
        </mxCell>
        <mxCell id="ETVe_OWojirftLV4swlr-18" value="menampilkan halaman logout" style="rounded=1;whiteSpace=wrap;html=1;fontSize=20;" vertex="1" parent="ETVe_OWojirftLV4swlr-1">
          <mxGeometry x="336" y="390" width="260" height="70" as="geometry" />
        </mxCell>
        <mxCell id="ETVe_OWojirftLV4swlr-19" value="Ya" style="edgeStyle=orthogonalEdgeStyle;rounded=0;orthogonalLoop=1;jettySize=auto;html=1;exitX=0.5;exitY=1;exitDx=0;exitDy=0;entryX=0.5;entryY=0;entryDx=0;entryDy=0;fontSize=20;" edge="1" parent="ETVe_OWojirftLV4swlr-1" source="ETVe_OWojirftLV4swlr-17" target="ETVe_OWojirftLV4swlr-18">
          <mxGeometry relative="1" as="geometry" />
        </mxCell>
        <mxCell id="ETVe_OWojirftLV4swlr-20" value="" style="ellipse;shape=doubleEllipse;whiteSpace=wrap;html=1;aspect=fixed;fillColor=#dae8fc;strokeColor=#6c8ebf;" vertex="1" parent="ETVe_OWojirftLV4swlr-1">
          <mxGeometry x="436" y="510" width="60" height="60" as="geometry" />
        </mxCell>
        <mxCell id="ETVe_OWojirftLV4swlr-21" style="edgeStyle=orthogonalEdgeStyle;rounded=0;orthogonalLoop=1;jettySize=auto;html=1;exitX=0.5;exitY=1;exitDx=0;exitDy=0;entryX=0.5;entryY=0;entryDx=0;entryDy=0;" edge="1" parent="ETVe_OWojirftLV4swlr-1" source="ETVe_OWojirftLV4swlr-18" target="ETVe_OWojirftLV4swlr-20">
          <mxGeometry relative="1" as="geometry">
            <mxPoint x="466.00000000000045" y="600" as="targetPoint" />
          </mxGeometry>
        </mxCell>
        <mxCell id="ETVe_OWojirftLV4swlr-22" style="edgeStyle=orthogonalEdgeStyle;rounded=0;orthogonalLoop=1;jettySize=auto;html=1;" edge="1" parent="ETVe_OWojirftLV4swlr-1">
          <mxGeometry relative="1" as="geometry">
            <mxPoint x="426" y="287.97" as="sourcePoint" />
            <mxPoint x="154" y="210" as="targetPoint" />
          </mxGeometry>
        </mxCell>
        <mxCell id="ETVe_OWojirftLV4swlr-23" value="Tidak" style="edgeLabel;html=1;align=center;verticalAlign=middle;resizable=0;points=[];fontSize=12;" connectable="0" vertex="1" parent="ETVe_OWojirftLV4swlr-22">
          <mxGeometry x="-0.1334" relative="1" as="geometry">
            <mxPoint as="offset" />
          </mxGeometry>
        </mxCell>
        <mxCell id="ETVe_OWojirftLV4swlr-24" value="Logout" style="swimlane;whiteSpace=wrap;html=1;fontFamily=Helvetica;fontSize=20;labelBackgroundColor=default;container=0;fillColor=#dae8fc;strokeColor=#6c8ebf;" vertex="1" parent="1">
          <mxGeometry x="3860" y="890" width="620" height="670" as="geometry" />
        </mxCell>
        <mxCell id="ETVe_OWojirftLV4swlr-25" value="" style="rounded=0;whiteSpace=wrap;html=1;" vertex="1" parent="ETVe_OWojirftLV4swlr-24">
          <mxGeometry y="23" width="620" height="27" as="geometry" />
        </mxCell>
        <mxCell id="ETVe_OWojirftLV4swlr-26" value="" style="endArrow=none;html=1;rounded=0;entryX=0.5;entryY=0;entryDx=0;entryDy=0;exitX=0.5;exitY=1;exitDx=0;exitDy=0;" edge="1" parent="ETVe_OWojirftLV4swlr-24" source="ETVe_OWojirftLV4swlr-24" target="ETVe_OWojirftLV4swlr-25">
          <mxGeometry width="50" height="50" relative="1" as="geometry">
            <mxPoint x="76" y="540" as="sourcePoint" />
            <mxPoint x="126" y="490" as="targetPoint" />
          </mxGeometry>
        </mxCell>
        <mxCell id="ETVe_OWojirftLV4swlr-27" value="User" style="text;html=1;align=center;verticalAlign=middle;whiteSpace=wrap;rounded=0;fontSize=19;" vertex="1" parent="ETVe_OWojirftLV4swlr-24">
          <mxGeometry x="120" y="21.5" width="60" height="30" as="geometry" />
        </mxCell>
        <mxCell id="ETVe_OWojirftLV4swlr-28" value="Sistem" style="text;html=1;align=center;verticalAlign=middle;whiteSpace=wrap;rounded=0;fontSize=19;" vertex="1" parent="ETVe_OWojirftLV4swlr-24">
          <mxGeometry x="436" y="23" width="60" height="30" as="geometry" />
        </mxCell>
        <mxCell id="ETVe_OWojirftLV4swlr-29" style="edgeStyle=orthogonalEdgeStyle;rounded=0;orthogonalLoop=1;jettySize=auto;html=1;exitX=0.5;exitY=1;exitDx=0;exitDy=0;entryX=0.5;entryY=0;entryDx=0;entryDy=0;" edge="1" parent="ETVe_OWojirftLV4swlr-24" source="ETVe_OWojirftLV4swlr-30" target="ETVe_OWojirftLV4swlr-32">
          <mxGeometry relative="1" as="geometry" />
        </mxCell>
        <mxCell id="ETVe_OWojirftLV4swlr-30" value="" style="ellipse;whiteSpace=wrap;html=1;aspect=fixed;fillColor=#dae8fc;strokeColor=#6c8ebf;" vertex="1" parent="ETVe_OWojirftLV4swlr-24">
          <mxGeometry x="130" y="60" width="50" height="50" as="geometry" />
        </mxCell>
        <mxCell id="ETVe_OWojirftLV4swlr-31" style="edgeStyle=orthogonalEdgeStyle;rounded=0;orthogonalLoop=1;jettySize=auto;html=1;exitX=1;exitY=0.5;exitDx=0;exitDy=0;entryX=0;entryY=0.5;entryDx=0;entryDy=0;" edge="1" parent="ETVe_OWojirftLV4swlr-24" source="ETVe_OWojirftLV4swlr-32">
          <mxGeometry relative="1" as="geometry">
            <mxPoint x="336" y="175" as="targetPoint" />
          </mxGeometry>
        </mxCell>
        <mxCell id="ETVe_OWojirftLV4swlr-32" value="pilih logout" style="rounded=1;whiteSpace=wrap;html=1;fontSize=20;" vertex="1" parent="ETVe_OWojirftLV4swlr-24">
          <mxGeometry x="25" y="140" width="260" height="70" as="geometry" />
        </mxCell>
        <mxCell id="ETVe_OWojirftLV4swlr-33" style="edgeStyle=orthogonalEdgeStyle;rounded=0;orthogonalLoop=1;jettySize=auto;html=1;exitX=0.5;exitY=1;exitDx=0;exitDy=0;entryX=0.5;entryY=0;entryDx=0;entryDy=0;" edge="1" parent="ETVe_OWojirftLV4swlr-24" source="ETVe_OWojirftLV4swlr-34" target="ETVe_OWojirftLV4swlr-35">
          <mxGeometry relative="1" as="geometry" />
        </mxCell>
        <mxCell id="ETVe_OWojirftLV4swlr-34" value="Melakukan verifikasi" style="rounded=1;whiteSpace=wrap;html=1;fontSize=20;" vertex="1" parent="ETVe_OWojirftLV4swlr-24">
          <mxGeometry x="336" y="140" width="260" height="70" as="geometry" />
        </mxCell>
        <mxCell id="ETVe_OWojirftLV4swlr-35" value="" style="rhombus;whiteSpace=wrap;html=1;" vertex="1" parent="ETVe_OWojirftLV4swlr-24">
          <mxGeometry x="426" y="250" width="80" height="80" as="geometry" />
        </mxCell>
        <mxCell id="ETVe_OWojirftLV4swlr-36" value="menampilkan halaman logout" style="rounded=1;whiteSpace=wrap;html=1;fontSize=20;" vertex="1" parent="ETVe_OWojirftLV4swlr-24">
          <mxGeometry x="336" y="390" width="260" height="70" as="geometry" />
        </mxCell>
        <mxCell id="ETVe_OWojirftLV4swlr-37" value="Ya" style="edgeStyle=orthogonalEdgeStyle;rounded=0;orthogonalLoop=1;jettySize=auto;html=1;exitX=0.5;exitY=1;exitDx=0;exitDy=0;entryX=0.5;entryY=0;entryDx=0;entryDy=0;fontSize=20;" edge="1" parent="ETVe_OWojirftLV4swlr-24" source="ETVe_OWojirftLV4swlr-35" target="ETVe_OWojirftLV4swlr-36">
          <mxGeometry relative="1" as="geometry" />
        </mxCell>
        <mxCell id="ETVe_OWojirftLV4swlr-38" value="" style="ellipse;shape=doubleEllipse;whiteSpace=wrap;html=1;aspect=fixed;fillColor=#dae8fc;strokeColor=#6c8ebf;" vertex="1" parent="ETVe_OWojirftLV4swlr-24">
          <mxGeometry x="436" y="510" width="60" height="60" as="geometry" />
        </mxCell>
        <mxCell id="ETVe_OWojirftLV4swlr-39" style="edgeStyle=orthogonalEdgeStyle;rounded=0;orthogonalLoop=1;jettySize=auto;html=1;exitX=0.5;exitY=1;exitDx=0;exitDy=0;entryX=0.5;entryY=0;entryDx=0;entryDy=0;" edge="1" parent="ETVe_OWojirftLV4swlr-24" source="ETVe_OWojirftLV4swlr-36" target="ETVe_OWojirftLV4swlr-38">
          <mxGeometry relative="1" as="geometry">
            <mxPoint x="466.00000000000045" y="600" as="targetPoint" />
          </mxGeometry>
        </mxCell>
        <mxCell id="ETVe_OWojirftLV4swlr-40" style="edgeStyle=orthogonalEdgeStyle;rounded=0;orthogonalLoop=1;jettySize=auto;html=1;" edge="1" parent="ETVe_OWojirftLV4swlr-24">
          <mxGeometry relative="1" as="geometry">
            <mxPoint x="426" y="287.97" as="sourcePoint" />
            <mxPoint x="154" y="210" as="targetPoint" />
          </mxGeometry>
        </mxCell>
        <mxCell id="ETVe_OWojirftLV4swlr-41" value="Tidak" style="edgeLabel;html=1;align=center;verticalAlign=middle;resizable=0;points=[];fontSize=12;" connectable="0" vertex="1" parent="ETVe_OWojirftLV4swlr-40">
          <mxGeometry x="-0.1334" relative="1" as="geometry">
            <mxPoint as="offset" />
          </mxGeometry>
        </mxCell>
      </root>
    </mxGraphModel>
  </diagram>
  <diagram id="XgBSbXAYb1Y1MVEoixbE" name="sequence diagram">
    <mxGraphModel grid="1" page="1" gridSize="10" guides="1" tooltips="1" connect="1" arrows="1" fold="1" pageScale="1" pageWidth="827" pageHeight="1169" math="0" shadow="0">
      <root>
        <mxCell id="0" />
        <mxCell id="1" parent="0" />
        <mxCell id="E4UE5NcM0zdMoruqIu9k-1" value="Login" style="swimlane;whiteSpace=wrap;html=1;fontFamily=Helvetica;fontSize=20;labelBackgroundColor=default;container=0;fillColor=#dae8fc;strokeColor=#6c8ebf;" vertex="1" parent="1">
          <mxGeometry x="180" y="270" width="730" height="530" as="geometry" />
        </mxCell>
        <mxCell id="E4UE5NcM0zdMoruqIu9k-35" value="user/admin" style="shape=umlLifeline;perimeter=lifelinePerimeter;whiteSpace=wrap;html=1;container=0;dropTarget=0;collapsible=0;recursiveResize=0;outlineConnect=0;portConstraint=eastwest;newEdgeStyle={&quot;edgeStyle&quot;:&quot;elbowEdgeStyle&quot;,&quot;elbow&quot;:&quot;vertical&quot;,&quot;curved&quot;:0,&quot;rounded&quot;:0};" vertex="1" parent="E4UE5NcM0zdMoruqIu9k-1">
          <mxGeometry x="10" y="130" width="100" height="300" as="geometry" />
        </mxCell>
        <mxCell id="E4UE5NcM0zdMoruqIu9k-36" value="" style="html=1;points=[];perimeter=orthogonalPerimeter;outlineConnect=0;targetShapes=umlLifeline;portConstraint=eastwest;newEdgeStyle={&quot;edgeStyle&quot;:&quot;elbowEdgeStyle&quot;,&quot;elbow&quot;:&quot;vertical&quot;,&quot;curved&quot;:0,&quot;rounded&quot;:0};" vertex="1" parent="E4UE5NcM0zdMoruqIu9k-35">
          <mxGeometry x="45" y="70" width="10" height="110" as="geometry" />
        </mxCell>
        <mxCell id="E4UE5NcM0zdMoruqIu9k-37" value="" style="html=1;points=[[0,0,0,0,5],[0,1,0,0,-5],[1,0,0,0,5],[1,1,0,0,-5]];perimeter=orthogonalPerimeter;outlineConnect=0;targetShapes=umlLifeline;portConstraint=eastwest;newEdgeStyle={&quot;curved&quot;:0,&quot;rounded&quot;:0};" vertex="1" parent="E4UE5NcM0zdMoruqIu9k-35">
          <mxGeometry x="45" y="210" width="10" height="40" as="geometry" />
        </mxCell>
        <mxCell id="E4UE5NcM0zdMoruqIu9k-38" value="form login" style="shape=umlLifeline;perimeter=lifelinePerimeter;whiteSpace=wrap;html=1;container=0;dropTarget=0;collapsible=0;recursiveResize=0;outlineConnect=0;portConstraint=eastwest;newEdgeStyle={&quot;edgeStyle&quot;:&quot;elbowEdgeStyle&quot;,&quot;elbow&quot;:&quot;vertical&quot;,&quot;curved&quot;:0,&quot;rounded&quot;:0};" vertex="1" parent="E4UE5NcM0zdMoruqIu9k-1">
          <mxGeometry x="190" y="130" width="100" height="300" as="geometry" />
        </mxCell>
        <mxCell id="E4UE5NcM0zdMoruqIu9k-39" value="" style="html=1;points=[];perimeter=orthogonalPerimeter;outlineConnect=0;targetShapes=umlLifeline;portConstraint=eastwest;newEdgeStyle={&quot;edgeStyle&quot;:&quot;elbowEdgeStyle&quot;,&quot;elbow&quot;:&quot;vertical&quot;,&quot;curved&quot;:0,&quot;rounded&quot;:0};" vertex="1" parent="E4UE5NcM0zdMoruqIu9k-38">
          <mxGeometry x="45" y="80" width="10" height="100" as="geometry" />
        </mxCell>
        <mxCell id="E4UE5NcM0zdMoruqIu9k-40" value="1. membuka halaman login" style="html=1;verticalAlign=bottom;endArrow=block;edgeStyle=elbowEdgeStyle;elbow=vertical;curved=0;rounded=0;" edge="1" parent="E4UE5NcM0zdMoruqIu9k-1" source="E4UE5NcM0zdMoruqIu9k-36" target="E4UE5NcM0zdMoruqIu9k-39">
          <mxGeometry relative="1" as="geometry">
            <mxPoint x="165" y="220" as="sourcePoint" />
            <Array as="points">
              <mxPoint x="150" y="210" />
            </Array>
          </mxGeometry>
        </mxCell>
        <mxCell id="E4UE5NcM0zdMoruqIu9k-41" value="" style="html=1;verticalAlign=bottom;endArrow=open;dashed=1;endSize=8;edgeStyle=elbowEdgeStyle;elbow=vertical;curved=0;rounded=0;" edge="1" parent="E4UE5NcM0zdMoruqIu9k-1" target="E4UE5NcM0zdMoruqIu9k-35">
          <mxGeometry x="0.5534" relative="1" as="geometry">
            <mxPoint x="250" y="340" as="targetPoint" />
            <Array as="points">
              <mxPoint x="345" y="340" />
            </Array>
            <mxPoint x="420" y="340" as="sourcePoint" />
            <mxPoint as="offset" />
          </mxGeometry>
        </mxCell>
        <mxCell id="E4UE5NcM0zdMoruqIu9k-42" value="6. kembali ke menu login jika pesan gagal" style="edgeLabel;html=1;align=center;verticalAlign=middle;resizable=0;points=[];" connectable="0" vertex="1" parent="E4UE5NcM0zdMoruqIu9k-41">
          <mxGeometry x="0.0042" relative="1" as="geometry">
            <mxPoint as="offset" />
          </mxGeometry>
        </mxCell>
        <mxCell id="E4UE5NcM0zdMoruqIu9k-43" value="database" style="shape=umlLifeline;perimeter=lifelinePerimeter;whiteSpace=wrap;html=1;container=0;dropTarget=0;collapsible=0;recursiveResize=0;outlineConnect=0;portConstraint=eastwest;newEdgeStyle={&quot;edgeStyle&quot;:&quot;elbowEdgeStyle&quot;,&quot;elbow&quot;:&quot;vertical&quot;,&quot;curved&quot;:0,&quot;rounded&quot;:0};" vertex="1" parent="E4UE5NcM0zdMoruqIu9k-1">
          <mxGeometry x="373" y="130" width="100" height="300" as="geometry" />
        </mxCell>
        <mxCell id="E4UE5NcM0zdMoruqIu9k-44" value="" style="html=1;points=[];perimeter=orthogonalPerimeter;outlineConnect=0;targetShapes=umlLifeline;portConstraint=eastwest;newEdgeStyle={&quot;edgeStyle&quot;:&quot;elbowEdgeStyle&quot;,&quot;elbow&quot;:&quot;vertical&quot;,&quot;curved&quot;:0,&quot;rounded&quot;:0};" vertex="1" parent="E4UE5NcM0zdMoruqIu9k-43">
          <mxGeometry x="45" y="160" width="10" height="50" as="geometry" />
        </mxCell>
        <mxCell id="E4UE5NcM0zdMoruqIu9k-45" value="menu utama" style="shape=umlLifeline;perimeter=lifelinePerimeter;whiteSpace=wrap;html=1;container=0;dropTarget=0;collapsible=0;recursiveResize=0;outlineConnect=0;portConstraint=eastwest;newEdgeStyle={&quot;edgeStyle&quot;:&quot;elbowEdgeStyle&quot;,&quot;elbow&quot;:&quot;vertical&quot;,&quot;curved&quot;:0,&quot;rounded&quot;:0};" vertex="1" parent="E4UE5NcM0zdMoruqIu9k-1">
          <mxGeometry x="556" y="130" width="100" height="300" as="geometry" />
        </mxCell>
        <mxCell id="E4UE5NcM0zdMoruqIu9k-46" value="" style="html=1;points=[];perimeter=orthogonalPerimeter;outlineConnect=0;targetShapes=umlLifeline;portConstraint=eastwest;newEdgeStyle={&quot;edgeStyle&quot;:&quot;elbowEdgeStyle&quot;,&quot;elbow&quot;:&quot;vertical&quot;,&quot;curved&quot;:0,&quot;rounded&quot;:0};" vertex="1" parent="E4UE5NcM0zdMoruqIu9k-45">
          <mxGeometry x="45" y="80" width="10" height="170" as="geometry" />
        </mxCell>
        <mxCell id="E4UE5NcM0zdMoruqIu9k-47" value="2.mengisi username dan password" style="html=1;verticalAlign=bottom;endArrow=block;edgeStyle=elbowEdgeStyle;elbow=vertical;curved=0;rounded=0;" edge="1" parent="E4UE5NcM0zdMoruqIu9k-1">
          <mxGeometry relative="1" as="geometry">
            <mxPoint x="65" y="250" as="sourcePoint" />
            <Array as="points">
              <mxPoint x="150" y="250" />
            </Array>
            <mxPoint x="235" y="250" as="targetPoint" />
          </mxGeometry>
        </mxCell>
        <mxCell id="E4UE5NcM0zdMoruqIu9k-48" value="3.menekan tombol log in" style="html=1;verticalAlign=bottom;endArrow=block;edgeStyle=elbowEdgeStyle;elbow=vertical;curved=0;rounded=0;" edge="1" parent="E4UE5NcM0zdMoruqIu9k-1">
          <mxGeometry relative="1" as="geometry">
            <mxPoint x="66" y="286" as="sourcePoint" />
            <Array as="points">
              <mxPoint x="151" y="286" />
            </Array>
            <mxPoint x="236" y="286" as="targetPoint" />
          </mxGeometry>
        </mxCell>
        <mxCell id="E4UE5NcM0zdMoruqIu9k-49" value="4. validasi username dan password" style="html=1;verticalAlign=bottom;endArrow=block;edgeStyle=elbowEdgeStyle;elbow=vertical;curved=0;rounded=0;" edge="1" parent="E4UE5NcM0zdMoruqIu9k-1">
          <mxGeometry relative="1" as="geometry">
            <mxPoint x="246" y="310" as="sourcePoint" />
            <Array as="points">
              <mxPoint x="331" y="310" />
            </Array>
            <mxPoint x="416" y="310" as="targetPoint" />
          </mxGeometry>
        </mxCell>
        <mxCell id="E4UE5NcM0zdMoruqIu9k-50" value="5. masuk ke menu utama&amp;nbsp;" style="html=1;verticalAlign=bottom;endArrow=block;edgeStyle=elbowEdgeStyle;elbow=horizontal;curved=0;rounded=0;" edge="1" parent="E4UE5NcM0zdMoruqIu9k-1">
          <mxGeometry relative="1" as="geometry">
            <mxPoint x="430" y="320" as="sourcePoint" />
            <Array as="points">
              <mxPoint x="515" y="320" />
            </Array>
            <mxPoint x="600" y="320" as="targetPoint" />
          </mxGeometry>
        </mxCell>
        <mxCell id="E4UE5NcM0zdMoruqIu9k-51" value="" style="shape=umlActor;verticalLabelPosition=bottom;verticalAlign=top;html=1;outlineConnect=0;" vertex="1" parent="E4UE5NcM0zdMoruqIu9k-1">
          <mxGeometry x="40" y="70" width="30" height="60" as="geometry" />
        </mxCell>
        <mxCell id="E4UE5NcM0zdMoruqIu9k-52" value="beli logo" style="swimlane;whiteSpace=wrap;html=1;fontFamily=Helvetica;fontSize=20;labelBackgroundColor=default;container=0;fillColor=#dae8fc;strokeColor=#6c8ebf;" vertex="1" parent="1">
          <mxGeometry x="1630" y="270" width="560" height="530" as="geometry" />
        </mxCell>
        <mxCell id="E4UE5NcM0zdMoruqIu9k-53" value="user" style="shape=umlLifeline;perimeter=lifelinePerimeter;whiteSpace=wrap;html=1;container=0;dropTarget=0;collapsible=0;recursiveResize=0;outlineConnect=0;portConstraint=eastwest;newEdgeStyle={&quot;edgeStyle&quot;:&quot;elbowEdgeStyle&quot;,&quot;elbow&quot;:&quot;vertical&quot;,&quot;curved&quot;:0,&quot;rounded&quot;:0};" vertex="1" parent="E4UE5NcM0zdMoruqIu9k-52">
          <mxGeometry x="10" y="130" width="100" height="300" as="geometry" />
        </mxCell>
        <mxCell id="E4UE5NcM0zdMoruqIu9k-54" value="" style="html=1;points=[];perimeter=orthogonalPerimeter;outlineConnect=0;targetShapes=umlLifeline;portConstraint=eastwest;newEdgeStyle={&quot;edgeStyle&quot;:&quot;elbowEdgeStyle&quot;,&quot;elbow&quot;:&quot;vertical&quot;,&quot;curved&quot;:0,&quot;rounded&quot;:0};" vertex="1" parent="E4UE5NcM0zdMoruqIu9k-53">
          <mxGeometry x="45" y="70" width="10" height="110" as="geometry" />
        </mxCell>
        <mxCell id="E4UE5NcM0zdMoruqIu9k-56" value="sistem" style="shape=umlLifeline;perimeter=lifelinePerimeter;whiteSpace=wrap;html=1;container=0;dropTarget=0;collapsible=0;recursiveResize=0;outlineConnect=0;portConstraint=eastwest;newEdgeStyle={&quot;edgeStyle&quot;:&quot;elbowEdgeStyle&quot;,&quot;elbow&quot;:&quot;vertical&quot;,&quot;curved&quot;:0,&quot;rounded&quot;:0};" vertex="1" parent="E4UE5NcM0zdMoruqIu9k-52">
          <mxGeometry x="190" y="130" width="100" height="300" as="geometry" />
        </mxCell>
        <mxCell id="E4UE5NcM0zdMoruqIu9k-57" value="" style="html=1;points=[];perimeter=orthogonalPerimeter;outlineConnect=0;targetShapes=umlLifeline;portConstraint=eastwest;newEdgeStyle={&quot;edgeStyle&quot;:&quot;elbowEdgeStyle&quot;,&quot;elbow&quot;:&quot;vertical&quot;,&quot;curved&quot;:0,&quot;rounded&quot;:0};" vertex="1" parent="E4UE5NcM0zdMoruqIu9k-56">
          <mxGeometry x="45" y="80" width="10" height="100" as="geometry" />
        </mxCell>
        <mxCell id="E4UE5NcM0zdMoruqIu9k-58" value="1. login &amp;amp; pilih logo dari katalog" style="html=1;verticalAlign=bottom;endArrow=block;edgeStyle=elbowEdgeStyle;elbow=vertical;curved=0;rounded=0;" edge="1" parent="E4UE5NcM0zdMoruqIu9k-52" source="E4UE5NcM0zdMoruqIu9k-54" target="E4UE5NcM0zdMoruqIu9k-57">
          <mxGeometry relative="1" as="geometry">
            <mxPoint x="165" y="220" as="sourcePoint" />
            <Array as="points">
              <mxPoint x="150" y="210" />
            </Array>
          </mxGeometry>
        </mxCell>
        <mxCell id="E4UE5NcM0zdMoruqIu9k-61" value="databsse" style="shape=umlLifeline;perimeter=lifelinePerimeter;whiteSpace=wrap;html=1;container=0;dropTarget=0;collapsible=0;recursiveResize=0;outlineConnect=0;portConstraint=eastwest;newEdgeStyle={&quot;edgeStyle&quot;:&quot;elbowEdgeStyle&quot;,&quot;elbow&quot;:&quot;vertical&quot;,&quot;curved&quot;:0,&quot;rounded&quot;:0};" vertex="1" parent="E4UE5NcM0zdMoruqIu9k-52">
          <mxGeometry x="373" y="130" width="100" height="300" as="geometry" />
        </mxCell>
        <mxCell id="E4UE5NcM0zdMoruqIu9k-62" value="" style="html=1;points=[];perimeter=orthogonalPerimeter;outlineConnect=0;targetShapes=umlLifeline;portConstraint=eastwest;newEdgeStyle={&quot;edgeStyle&quot;:&quot;elbowEdgeStyle&quot;,&quot;elbow&quot;:&quot;vertical&quot;,&quot;curved&quot;:0,&quot;rounded&quot;:0};" vertex="1" parent="E4UE5NcM0zdMoruqIu9k-61">
          <mxGeometry x="45" y="145" width="10" height="40" as="geometry" />
        </mxCell>
        <mxCell id="E4UE5NcM0zdMoruqIu9k-69" value="" style="shape=umlActor;verticalLabelPosition=bottom;verticalAlign=top;html=1;outlineConnect=0;" vertex="1" parent="E4UE5NcM0zdMoruqIu9k-52">
          <mxGeometry x="40" y="70" width="30" height="60" as="geometry" />
        </mxCell>
        <mxCell id="E4UE5NcM0zdMoruqIu9k-70" value="2. tampilkan detail logo &amp;amp; harga" style="html=1;verticalAlign=bottom;endArrow=block;edgeStyle=elbowEdgeStyle;elbow=vertical;curved=0;rounded=0;" edge="1" parent="E4UE5NcM0zdMoruqIu9k-52">
          <mxGeometry x="-0.0614" relative="1" as="geometry">
            <mxPoint x="230.55" y="250" as="sourcePoint" />
            <Array as="points">
              <mxPoint x="155.55" y="250" />
            </Array>
            <mxPoint x="60" y="250" as="targetPoint" />
            <mxPoint as="offset" />
          </mxGeometry>
        </mxCell>
        <mxCell id="E4UE5NcM0zdMoruqIu9k-71" value="3. melakukan pembayaran" style="html=1;verticalAlign=bottom;endArrow=block;edgeStyle=elbowEdgeStyle;elbow=vertical;curved=0;rounded=0;" edge="1" parent="E4UE5NcM0zdMoruqIu9k-52" target="E4UE5NcM0zdMoruqIu9k-57">
          <mxGeometry relative="1" as="geometry">
            <mxPoint x="60" y="310" as="sourcePoint" />
            <Array as="points">
              <mxPoint x="145" y="310" />
            </Array>
            <mxPoint x="230" y="310" as="targetPoint" />
          </mxGeometry>
        </mxCell>
        <mxCell id="Lna5vxEm3aA6Pjo8IUbZ-19" value="4. buat data pesanan&amp;nbsp;" style="html=1;verticalAlign=bottom;endArrow=block;edgeStyle=elbowEdgeStyle;elbow=vertical;curved=0;rounded=0;" edge="1" parent="E4UE5NcM0zdMoruqIu9k-52" target="E4UE5NcM0zdMoruqIu9k-62">
          <mxGeometry relative="1" as="geometry">
            <mxPoint x="240" y="310" as="sourcePoint" />
            <Array as="points">
              <mxPoint x="325" y="310" />
            </Array>
            <mxPoint x="415" y="310" as="targetPoint" />
          </mxGeometry>
        </mxCell>
        <mxCell id="E4UE5NcM0zdMoruqIu9k-76" value="custom logo" style="swimlane;whiteSpace=wrap;html=1;fontFamily=Helvetica;fontSize=20;labelBackgroundColor=default;container=0;fillColor=#dae8fc;strokeColor=#6c8ebf;" vertex="1" parent="1">
          <mxGeometry x="2270" y="270" width="530" height="450" as="geometry" />
        </mxCell>
        <mxCell id="E4UE5NcM0zdMoruqIu9k-77" value="user" style="shape=umlLifeline;perimeter=lifelinePerimeter;whiteSpace=wrap;html=1;container=0;dropTarget=0;collapsible=0;recursiveResize=0;outlineConnect=0;portConstraint=eastwest;newEdgeStyle={&quot;edgeStyle&quot;:&quot;elbowEdgeStyle&quot;,&quot;elbow&quot;:&quot;vertical&quot;,&quot;curved&quot;:0,&quot;rounded&quot;:0};" vertex="1" parent="E4UE5NcM0zdMoruqIu9k-76">
          <mxGeometry x="10" y="130" width="100" height="270" as="geometry" />
        </mxCell>
        <mxCell id="E4UE5NcM0zdMoruqIu9k-78" value="" style="html=1;points=[];perimeter=orthogonalPerimeter;outlineConnect=0;targetShapes=umlLifeline;portConstraint=eastwest;newEdgeStyle={&quot;edgeStyle&quot;:&quot;elbowEdgeStyle&quot;,&quot;elbow&quot;:&quot;vertical&quot;,&quot;curved&quot;:0,&quot;rounded&quot;:0};" vertex="1" parent="E4UE5NcM0zdMoruqIu9k-77">
          <mxGeometry x="45" y="70" width="10" height="110" as="geometry" />
        </mxCell>
        <mxCell id="E4UE5NcM0zdMoruqIu9k-79" value="sistem" style="shape=umlLifeline;perimeter=lifelinePerimeter;whiteSpace=wrap;html=1;container=0;dropTarget=0;collapsible=0;recursiveResize=0;outlineConnect=0;portConstraint=eastwest;newEdgeStyle={&quot;edgeStyle&quot;:&quot;elbowEdgeStyle&quot;,&quot;elbow&quot;:&quot;vertical&quot;,&quot;curved&quot;:0,&quot;rounded&quot;:0};" vertex="1" parent="E4UE5NcM0zdMoruqIu9k-76">
          <mxGeometry x="190" y="130" width="100" height="260" as="geometry" />
        </mxCell>
        <mxCell id="E4UE5NcM0zdMoruqIu9k-80" value="" style="html=1;points=[];perimeter=orthogonalPerimeter;outlineConnect=0;targetShapes=umlLifeline;portConstraint=eastwest;newEdgeStyle={&quot;edgeStyle&quot;:&quot;elbowEdgeStyle&quot;,&quot;elbow&quot;:&quot;vertical&quot;,&quot;curved&quot;:0,&quot;rounded&quot;:0};" vertex="1" parent="E4UE5NcM0zdMoruqIu9k-79">
          <mxGeometry x="45" y="80" width="10" height="100" as="geometry" />
        </mxCell>
        <mxCell id="E4UE5NcM0zdMoruqIu9k-82" value="1. isi form request logo" style="html=1;verticalAlign=bottom;endArrow=block;edgeStyle=elbowEdgeStyle;elbow=vertical;curved=0;rounded=0;" edge="1" parent="E4UE5NcM0zdMoruqIu9k-76" source="E4UE5NcM0zdMoruqIu9k-78" target="E4UE5NcM0zdMoruqIu9k-80">
          <mxGeometry relative="1" as="geometry">
            <mxPoint x="165" y="220" as="sourcePoint" />
            <Array as="points">
              <mxPoint x="150" y="210" />
            </Array>
          </mxGeometry>
        </mxCell>
        <mxCell id="E4UE5NcM0zdMoruqIu9k-83" value="database" style="shape=umlLifeline;perimeter=lifelinePerimeter;whiteSpace=wrap;html=1;container=0;dropTarget=0;collapsible=0;recursiveResize=0;outlineConnect=0;portConstraint=eastwest;newEdgeStyle={&quot;edgeStyle&quot;:&quot;elbowEdgeStyle&quot;,&quot;elbow&quot;:&quot;vertical&quot;,&quot;curved&quot;:0,&quot;rounded&quot;:0};" vertex="1" parent="E4UE5NcM0zdMoruqIu9k-76">
          <mxGeometry x="373" y="130" width="100" height="270" as="geometry" />
        </mxCell>
        <mxCell id="E4UE5NcM0zdMoruqIu9k-84" value="" style="html=1;points=[];perimeter=orthogonalPerimeter;outlineConnect=0;targetShapes=umlLifeline;portConstraint=eastwest;newEdgeStyle={&quot;edgeStyle&quot;:&quot;elbowEdgeStyle&quot;,&quot;elbow&quot;:&quot;vertical&quot;,&quot;curved&quot;:0,&quot;rounded&quot;:0};" vertex="1" parent="E4UE5NcM0zdMoruqIu9k-83">
          <mxGeometry x="45" y="140" width="10" height="40" as="geometry" />
        </mxCell>
        <mxCell id="E4UE5NcM0zdMoruqIu9k-87" value="" style="shape=umlActor;verticalLabelPosition=bottom;verticalAlign=top;html=1;outlineConnect=0;" vertex="1" parent="E4UE5NcM0zdMoruqIu9k-76">
          <mxGeometry x="40" y="70" width="30" height="60" as="geometry" />
        </mxCell>
        <mxCell id="E4UE5NcM0zdMoruqIu9k-90" value="2. simpan request order" style="html=1;verticalAlign=bottom;endArrow=block;edgeStyle=elbowEdgeStyle;elbow=horizontal;curved=0;rounded=0;" edge="1" parent="E4UE5NcM0zdMoruqIu9k-76">
          <mxGeometry relative="1" as="geometry">
            <mxPoint x="250" y="270" as="sourcePoint" />
            <Array as="points">
              <mxPoint x="325" y="270" />
            </Array>
            <mxPoint x="418" y="270" as="targetPoint" />
          </mxGeometry>
        </mxCell>
        <mxCell id="Lna5vxEm3aA6Pjo8IUbZ-23" value="3. tampilkan ringkasan order" style="html=1;verticalAlign=bottom;endArrow=block;edgeStyle=elbowEdgeStyle;elbow=horizontal;curved=0;rounded=0;" edge="1" parent="E4UE5NcM0zdMoruqIu9k-76" target="E4UE5NcM0zdMoruqIu9k-77">
          <mxGeometry relative="1" as="geometry">
            <mxPoint x="240" y="310" as="sourcePoint" />
            <Array as="points">
              <mxPoint x="240" y="310" />
            </Array>
            <mxPoint x="288" y="370" as="targetPoint" />
          </mxGeometry>
        </mxCell>
        <mxCell id="Lna5vxEm3aA6Pjo8IUbZ-1" value="lihat katalog logo" style="swimlane;whiteSpace=wrap;html=1;fontFamily=Helvetica;fontSize=20;labelBackgroundColor=default;container=0;fillColor=#dae8fc;strokeColor=#6c8ebf;" vertex="1" parent="1">
          <mxGeometry x="970" y="270" width="590" height="530" as="geometry" />
        </mxCell>
        <mxCell id="Lna5vxEm3aA6Pjo8IUbZ-2" value="user" style="shape=umlLifeline;perimeter=lifelinePerimeter;whiteSpace=wrap;html=1;container=0;dropTarget=0;collapsible=0;recursiveResize=0;outlineConnect=0;portConstraint=eastwest;newEdgeStyle={&quot;edgeStyle&quot;:&quot;elbowEdgeStyle&quot;,&quot;elbow&quot;:&quot;vertical&quot;,&quot;curved&quot;:0,&quot;rounded&quot;:0};" vertex="1" parent="Lna5vxEm3aA6Pjo8IUbZ-1">
          <mxGeometry x="10" y="130" width="100" height="300" as="geometry" />
        </mxCell>
        <mxCell id="Lna5vxEm3aA6Pjo8IUbZ-3" value="" style="html=1;points=[];perimeter=orthogonalPerimeter;outlineConnect=0;targetShapes=umlLifeline;portConstraint=eastwest;newEdgeStyle={&quot;edgeStyle&quot;:&quot;elbowEdgeStyle&quot;,&quot;elbow&quot;:&quot;vertical&quot;,&quot;curved&quot;:0,&quot;rounded&quot;:0};" vertex="1" parent="Lna5vxEm3aA6Pjo8IUbZ-2">
          <mxGeometry x="45" y="80" width="10" height="100" as="geometry" />
        </mxCell>
        <mxCell id="Lna5vxEm3aA6Pjo8IUbZ-4" value="sistem" style="shape=umlLifeline;perimeter=lifelinePerimeter;whiteSpace=wrap;html=1;container=0;dropTarget=0;collapsible=0;recursiveResize=0;outlineConnect=0;portConstraint=eastwest;newEdgeStyle={&quot;edgeStyle&quot;:&quot;elbowEdgeStyle&quot;,&quot;elbow&quot;:&quot;vertical&quot;,&quot;curved&quot;:0,&quot;rounded&quot;:0};" vertex="1" parent="Lna5vxEm3aA6Pjo8IUbZ-1">
          <mxGeometry x="190" y="130" width="100" height="300" as="geometry" />
        </mxCell>
        <mxCell id="Lna5vxEm3aA6Pjo8IUbZ-5" value="" style="html=1;points=[];perimeter=orthogonalPerimeter;outlineConnect=0;targetShapes=umlLifeline;portConstraint=eastwest;newEdgeStyle={&quot;edgeStyle&quot;:&quot;elbowEdgeStyle&quot;,&quot;elbow&quot;:&quot;vertical&quot;,&quot;curved&quot;:0,&quot;rounded&quot;:0};" vertex="1" parent="Lna5vxEm3aA6Pjo8IUbZ-4">
          <mxGeometry x="45" y="80" width="10" height="100" as="geometry" />
        </mxCell>
        <mxCell id="Lna5vxEm3aA6Pjo8IUbZ-7" value="1. buka halama&amp;nbsp; katalog" style="html=1;verticalAlign=bottom;endArrow=block;edgeStyle=elbowEdgeStyle;elbow=vertical;curved=0;rounded=0;" edge="1" parent="Lna5vxEm3aA6Pjo8IUbZ-1" source="Lna5vxEm3aA6Pjo8IUbZ-3" target="Lna5vxEm3aA6Pjo8IUbZ-5">
          <mxGeometry relative="1" as="geometry">
            <mxPoint x="165" y="220" as="sourcePoint" />
            <Array as="points">
              <mxPoint x="150" y="210" />
            </Array>
          </mxGeometry>
        </mxCell>
        <mxCell id="Lna5vxEm3aA6Pjo8IUbZ-8" value="Database" style="shape=umlLifeline;perimeter=lifelinePerimeter;whiteSpace=wrap;html=1;container=0;dropTarget=0;collapsible=0;recursiveResize=0;outlineConnect=0;portConstraint=eastwest;newEdgeStyle={&quot;edgeStyle&quot;:&quot;elbowEdgeStyle&quot;,&quot;elbow&quot;:&quot;vertical&quot;,&quot;curved&quot;:0,&quot;rounded&quot;:0};" vertex="1" parent="Lna5vxEm3aA6Pjo8IUbZ-1">
          <mxGeometry x="373" y="130" width="100" height="300" as="geometry" />
        </mxCell>
        <mxCell id="Lna5vxEm3aA6Pjo8IUbZ-9" value="" style="html=1;points=[];perimeter=orthogonalPerimeter;outlineConnect=0;targetShapes=umlLifeline;portConstraint=eastwest;newEdgeStyle={&quot;edgeStyle&quot;:&quot;elbowEdgeStyle&quot;,&quot;elbow&quot;:&quot;vertical&quot;,&quot;curved&quot;:0,&quot;rounded&quot;:0};" vertex="1" parent="Lna5vxEm3aA6Pjo8IUbZ-8">
          <mxGeometry x="45" y="140" width="10" height="40" as="geometry" />
        </mxCell>
        <mxCell id="Lna5vxEm3aA6Pjo8IUbZ-12" value="" style="shape=umlActor;verticalLabelPosition=bottom;verticalAlign=top;html=1;outlineConnect=0;" vertex="1" parent="Lna5vxEm3aA6Pjo8IUbZ-1">
          <mxGeometry x="40" y="70" width="30" height="60" as="geometry" />
        </mxCell>
        <mxCell id="Lna5vxEm3aA6Pjo8IUbZ-15" value="2. ambil data logo" style="html=1;verticalAlign=bottom;endArrow=block;edgeStyle=elbowEdgeStyle;elbow=vertical;curved=0;rounded=0;" edge="1" parent="Lna5vxEm3aA6Pjo8IUbZ-1" source="Lna5vxEm3aA6Pjo8IUbZ-5">
          <mxGeometry relative="1" as="geometry">
            <mxPoint x="250" y="270" as="sourcePoint" />
            <Array as="points">
              <mxPoint x="325" y="270" />
            </Array>
            <mxPoint x="418" y="270" as="targetPoint" />
          </mxGeometry>
        </mxCell>
        <mxCell id="Lna5vxEm3aA6Pjo8IUbZ-16" value="3. kirim daftar logo" style="html=1;verticalAlign=bottom;endArrow=block;edgeStyle=elbowEdgeStyle;elbow=vertical;curved=0;rounded=0;" edge="1" parent="Lna5vxEm3aA6Pjo8IUbZ-1" target="Lna5vxEm3aA6Pjo8IUbZ-5">
          <mxGeometry relative="1" as="geometry">
            <mxPoint x="427.5" y="310" as="sourcePoint" />
            <Array as="points">
              <mxPoint x="341" y="310" />
            </Array>
            <mxPoint x="250" y="310" as="targetPoint" />
          </mxGeometry>
        </mxCell>
        <mxCell id="Lna5vxEm3aA6Pjo8IUbZ-18" value="4. tampilkan katalog logo" style="html=1;verticalAlign=bottom;endArrow=block;edgeStyle=elbowEdgeStyle;elbow=vertical;curved=0;rounded=0;" edge="1" parent="Lna5vxEm3aA6Pjo8IUbZ-1">
          <mxGeometry relative="1" as="geometry">
            <mxPoint x="242.5" y="310" as="sourcePoint" />
            <Array as="points">
              <mxPoint x="156" y="310" />
            </Array>
            <mxPoint x="60" y="310" as="targetPoint" />
          </mxGeometry>
        </mxCell>
        <mxCell id="Lna5vxEm3aA6Pjo8IUbZ-24" value="bayar pesanan" style="swimlane;whiteSpace=wrap;html=1;fontFamily=Helvetica;fontSize=20;labelBackgroundColor=default;container=0;fillColor=#dae8fc;strokeColor=#6c8ebf;" vertex="1" parent="1">
          <mxGeometry x="2850" y="270" width="730" height="530" as="geometry" />
        </mxCell>
        <mxCell id="Lna5vxEm3aA6Pjo8IUbZ-25" value="user" style="shape=umlLifeline;perimeter=lifelinePerimeter;whiteSpace=wrap;html=1;container=0;dropTarget=0;collapsible=0;recursiveResize=0;outlineConnect=0;portConstraint=eastwest;newEdgeStyle={&quot;edgeStyle&quot;:&quot;elbowEdgeStyle&quot;,&quot;elbow&quot;:&quot;vertical&quot;,&quot;curved&quot;:0,&quot;rounded&quot;:0};" vertex="1" parent="Lna5vxEm3aA6Pjo8IUbZ-24">
          <mxGeometry x="10" y="130" width="100" height="300" as="geometry" />
        </mxCell>
        <mxCell id="Lna5vxEm3aA6Pjo8IUbZ-26" value="" style="html=1;points=[];perimeter=orthogonalPerimeter;outlineConnect=0;targetShapes=umlLifeline;portConstraint=eastwest;newEdgeStyle={&quot;edgeStyle&quot;:&quot;elbowEdgeStyle&quot;,&quot;elbow&quot;:&quot;vertical&quot;,&quot;curved&quot;:0,&quot;rounded&quot;:0};" vertex="1" parent="Lna5vxEm3aA6Pjo8IUbZ-25">
          <mxGeometry x="45" y="70" width="10" height="180" as="geometry" />
        </mxCell>
        <mxCell id="Lna5vxEm3aA6Pjo8IUbZ-28" value="sistem" style="shape=umlLifeline;perimeter=lifelinePerimeter;whiteSpace=wrap;html=1;container=0;dropTarget=0;collapsible=0;recursiveResize=0;outlineConnect=0;portConstraint=eastwest;newEdgeStyle={&quot;edgeStyle&quot;:&quot;elbowEdgeStyle&quot;,&quot;elbow&quot;:&quot;vertical&quot;,&quot;curved&quot;:0,&quot;rounded&quot;:0};" vertex="1" parent="Lna5vxEm3aA6Pjo8IUbZ-24">
          <mxGeometry x="190" y="130" width="100" height="300" as="geometry" />
        </mxCell>
        <mxCell id="Lna5vxEm3aA6Pjo8IUbZ-29" value="" style="html=1;points=[];perimeter=orthogonalPerimeter;outlineConnect=0;targetShapes=umlLifeline;portConstraint=eastwest;newEdgeStyle={&quot;edgeStyle&quot;:&quot;elbowEdgeStyle&quot;,&quot;elbow&quot;:&quot;vertical&quot;,&quot;curved&quot;:0,&quot;rounded&quot;:0};" vertex="1" parent="Lna5vxEm3aA6Pjo8IUbZ-28">
          <mxGeometry x="45" y="80" width="10" height="60" as="geometry" />
        </mxCell>
        <mxCell id="Lna5vxEm3aA6Pjo8IUbZ-43" value="" style="html=1;points=[];perimeter=orthogonalPerimeter;outlineConnect=0;targetShapes=umlLifeline;portConstraint=eastwest;newEdgeStyle={&quot;edgeStyle&quot;:&quot;elbowEdgeStyle&quot;,&quot;elbow&quot;:&quot;vertical&quot;,&quot;curved&quot;:0,&quot;rounded&quot;:0};" vertex="1" parent="Lna5vxEm3aA6Pjo8IUbZ-28">
          <mxGeometry x="45" y="185" width="10" height="65" as="geometry" />
        </mxCell>
        <mxCell id="Lna5vxEm3aA6Pjo8IUbZ-30" value="1. pilih metode pembayaran" style="html=1;verticalAlign=bottom;endArrow=block;edgeStyle=elbowEdgeStyle;elbow=vertical;curved=0;rounded=0;" edge="1" parent="Lna5vxEm3aA6Pjo8IUbZ-24" source="Lna5vxEm3aA6Pjo8IUbZ-26" target="Lna5vxEm3aA6Pjo8IUbZ-29">
          <mxGeometry relative="1" as="geometry">
            <mxPoint x="165" y="220" as="sourcePoint" />
            <Array as="points">
              <mxPoint x="150" y="210" />
            </Array>
          </mxGeometry>
        </mxCell>
        <mxCell id="Lna5vxEm3aA6Pjo8IUbZ-33" value="payment gataway" style="shape=umlLifeline;perimeter=lifelinePerimeter;whiteSpace=wrap;html=1;container=0;dropTarget=0;collapsible=0;recursiveResize=0;outlineConnect=0;portConstraint=eastwest;newEdgeStyle={&quot;edgeStyle&quot;:&quot;elbowEdgeStyle&quot;,&quot;elbow&quot;:&quot;vertical&quot;,&quot;curved&quot;:0,&quot;rounded&quot;:0};" vertex="1" parent="Lna5vxEm3aA6Pjo8IUbZ-24">
          <mxGeometry x="373" y="130" width="100" height="300" as="geometry" />
        </mxCell>
        <mxCell id="Lna5vxEm3aA6Pjo8IUbZ-34" value="" style="html=1;points=[];perimeter=orthogonalPerimeter;outlineConnect=0;targetShapes=umlLifeline;portConstraint=eastwest;newEdgeStyle={&quot;edgeStyle&quot;:&quot;elbowEdgeStyle&quot;,&quot;elbow&quot;:&quot;vertical&quot;,&quot;curved&quot;:0,&quot;rounded&quot;:0};" vertex="1" parent="Lna5vxEm3aA6Pjo8IUbZ-33">
          <mxGeometry x="45" y="140" width="10" height="50" as="geometry" />
        </mxCell>
        <mxCell id="Lna5vxEm3aA6Pjo8IUbZ-35" value="Database" style="shape=umlLifeline;perimeter=lifelinePerimeter;whiteSpace=wrap;html=1;container=0;dropTarget=0;collapsible=0;recursiveResize=0;outlineConnect=0;portConstraint=eastwest;newEdgeStyle={&quot;edgeStyle&quot;:&quot;elbowEdgeStyle&quot;,&quot;elbow&quot;:&quot;vertical&quot;,&quot;curved&quot;:0,&quot;rounded&quot;:0};" vertex="1" parent="Lna5vxEm3aA6Pjo8IUbZ-24">
          <mxGeometry x="556" y="130" width="100" height="300" as="geometry" />
        </mxCell>
        <mxCell id="Lna5vxEm3aA6Pjo8IUbZ-36" value="" style="html=1;points=[];perimeter=orthogonalPerimeter;outlineConnect=0;targetShapes=umlLifeline;portConstraint=eastwest;newEdgeStyle={&quot;edgeStyle&quot;:&quot;elbowEdgeStyle&quot;,&quot;elbow&quot;:&quot;vertical&quot;,&quot;curved&quot;:0,&quot;rounded&quot;:0};" vertex="1" parent="Lna5vxEm3aA6Pjo8IUbZ-35">
          <mxGeometry x="45" y="230" width="10" height="30" as="geometry" />
        </mxCell>
        <mxCell id="Lna5vxEm3aA6Pjo8IUbZ-39" value="2. kirim detail transaksi" style="html=1;verticalAlign=bottom;endArrow=block;edgeStyle=elbowEdgeStyle;elbow=vertical;curved=0;rounded=0;" edge="1" parent="Lna5vxEm3aA6Pjo8IUbZ-24">
          <mxGeometry relative="1" as="geometry">
            <mxPoint x="250" y="270" as="sourcePoint" />
            <Array as="points">
              <mxPoint x="335" y="270" />
            </Array>
            <mxPoint x="420" y="270" as="targetPoint" />
          </mxGeometry>
        </mxCell>
        <mxCell id="Lna5vxEm3aA6Pjo8IUbZ-40" value="4. update status pesanan" style="html=1;verticalAlign=bottom;endArrow=block;edgeStyle=elbowEdgeStyle;elbow=horizontal;curved=0;rounded=0;" edge="1" parent="Lna5vxEm3aA6Pjo8IUbZ-24" target="Lna5vxEm3aA6Pjo8IUbZ-35">
          <mxGeometry relative="1" as="geometry">
            <mxPoint x="240" y="360" as="sourcePoint" />
            <Array as="points">
              <mxPoint x="325" y="360" />
            </Array>
            <mxPoint x="410" y="360" as="targetPoint" />
          </mxGeometry>
        </mxCell>
        <mxCell id="Lna5vxEm3aA6Pjo8IUbZ-41" value="" style="shape=umlActor;verticalLabelPosition=bottom;verticalAlign=top;html=1;outlineConnect=0;" vertex="1" parent="Lna5vxEm3aA6Pjo8IUbZ-24">
          <mxGeometry x="40" y="70" width="30" height="60" as="geometry" />
        </mxCell>
        <mxCell id="Lna5vxEm3aA6Pjo8IUbZ-42" value="3. konfirmasi sukses" style="html=1;verticalAlign=bottom;endArrow=block;edgeStyle=elbowEdgeStyle;elbow=vertical;curved=0;rounded=0;" edge="1" parent="Lna5vxEm3aA6Pjo8IUbZ-24" source="Lna5vxEm3aA6Pjo8IUbZ-34" target="Lna5vxEm3aA6Pjo8IUbZ-28">
          <mxGeometry relative="1" as="geometry">
            <mxPoint x="210" y="330" as="sourcePoint" />
            <Array as="points">
              <mxPoint x="410" y="320" />
            </Array>
            <mxPoint x="380" y="330" as="targetPoint" />
          </mxGeometry>
        </mxCell>
        <mxCell id="Lna5vxEm3aA6Pjo8IUbZ-44" value="5. tampilkan bukti pembayaran&amp;nbsp;" style="html=1;verticalAlign=bottom;endArrow=block;edgeStyle=elbowEdgeStyle;elbow=vertical;curved=0;rounded=0;" edge="1" parent="Lna5vxEm3aA6Pjo8IUbZ-24">
          <mxGeometry relative="1" as="geometry">
            <mxPoint x="238" y="380" as="sourcePoint" />
            <Array as="points">
              <mxPoint x="230" y="380" />
            </Array>
            <mxPoint x="60" y="380" as="targetPoint" />
          </mxGeometry>
        </mxCell>
        <mxCell id="Lna5vxEm3aA6Pjo8IUbZ-46" value="lihat status pesanan" style="swimlane;whiteSpace=wrap;html=1;fontFamily=Helvetica;fontSize=20;labelBackgroundColor=default;container=0;fillColor=#dae8fc;strokeColor=#6c8ebf;" vertex="1" parent="1">
          <mxGeometry x="3630" y="270" width="530" height="450" as="geometry" />
        </mxCell>
        <mxCell id="Lna5vxEm3aA6Pjo8IUbZ-47" value="user" style="shape=umlLifeline;perimeter=lifelinePerimeter;whiteSpace=wrap;html=1;container=0;dropTarget=0;collapsible=0;recursiveResize=0;outlineConnect=0;portConstraint=eastwest;newEdgeStyle={&quot;edgeStyle&quot;:&quot;elbowEdgeStyle&quot;,&quot;elbow&quot;:&quot;vertical&quot;,&quot;curved&quot;:0,&quot;rounded&quot;:0};" vertex="1" parent="Lna5vxEm3aA6Pjo8IUbZ-46">
          <mxGeometry x="10" y="130" width="100" height="270" as="geometry" />
        </mxCell>
        <mxCell id="Lna5vxEm3aA6Pjo8IUbZ-48" value="" style="html=1;points=[];perimeter=orthogonalPerimeter;outlineConnect=0;targetShapes=umlLifeline;portConstraint=eastwest;newEdgeStyle={&quot;edgeStyle&quot;:&quot;elbowEdgeStyle&quot;,&quot;elbow&quot;:&quot;vertical&quot;,&quot;curved&quot;:0,&quot;rounded&quot;:0};" vertex="1" parent="Lna5vxEm3aA6Pjo8IUbZ-47">
          <mxGeometry x="45" y="70" width="10" height="150" as="geometry" />
        </mxCell>
        <mxCell id="Lna5vxEm3aA6Pjo8IUbZ-49" value="sistem" style="shape=umlLifeline;perimeter=lifelinePerimeter;whiteSpace=wrap;html=1;container=0;dropTarget=0;collapsible=0;recursiveResize=0;outlineConnect=0;portConstraint=eastwest;newEdgeStyle={&quot;edgeStyle&quot;:&quot;elbowEdgeStyle&quot;,&quot;elbow&quot;:&quot;vertical&quot;,&quot;curved&quot;:0,&quot;rounded&quot;:0};" vertex="1" parent="Lna5vxEm3aA6Pjo8IUbZ-46">
          <mxGeometry x="190" y="130" width="100" height="260" as="geometry" />
        </mxCell>
        <mxCell id="Lna5vxEm3aA6Pjo8IUbZ-50" value="" style="html=1;points=[];perimeter=orthogonalPerimeter;outlineConnect=0;targetShapes=umlLifeline;portConstraint=eastwest;newEdgeStyle={&quot;edgeStyle&quot;:&quot;elbowEdgeStyle&quot;,&quot;elbow&quot;:&quot;vertical&quot;,&quot;curved&quot;:0,&quot;rounded&quot;:0};" vertex="1" parent="Lna5vxEm3aA6Pjo8IUbZ-49">
          <mxGeometry x="45" y="80" width="10" height="60" as="geometry" />
        </mxCell>
        <mxCell id="Lna5vxEm3aA6Pjo8IUbZ-57" value="" style="html=1;points=[];perimeter=orthogonalPerimeter;outlineConnect=0;targetShapes=umlLifeline;portConstraint=eastwest;newEdgeStyle={&quot;edgeStyle&quot;:&quot;elbowEdgeStyle&quot;,&quot;elbow&quot;:&quot;vertical&quot;,&quot;curved&quot;:0,&quot;rounded&quot;:0};" vertex="1" parent="Lna5vxEm3aA6Pjo8IUbZ-49">
          <mxGeometry x="45" y="180" width="10" height="40" as="geometry" />
        </mxCell>
        <mxCell id="Lna5vxEm3aA6Pjo8IUbZ-51" value="1. buka halaman pesanan" style="html=1;verticalAlign=bottom;endArrow=block;edgeStyle=elbowEdgeStyle;elbow=horizontal;curved=0;rounded=0;" edge="1" parent="Lna5vxEm3aA6Pjo8IUbZ-46" source="Lna5vxEm3aA6Pjo8IUbZ-48" target="Lna5vxEm3aA6Pjo8IUbZ-50">
          <mxGeometry relative="1" as="geometry">
            <mxPoint x="165" y="220" as="sourcePoint" />
            <Array as="points">
              <mxPoint x="150" y="210" />
            </Array>
          </mxGeometry>
        </mxCell>
        <mxCell id="Lna5vxEm3aA6Pjo8IUbZ-52" value="database" style="shape=umlLifeline;perimeter=lifelinePerimeter;whiteSpace=wrap;html=1;container=0;dropTarget=0;collapsible=0;recursiveResize=0;outlineConnect=0;portConstraint=eastwest;newEdgeStyle={&quot;edgeStyle&quot;:&quot;elbowEdgeStyle&quot;,&quot;elbow&quot;:&quot;vertical&quot;,&quot;curved&quot;:0,&quot;rounded&quot;:0};" vertex="1" parent="Lna5vxEm3aA6Pjo8IUbZ-46">
          <mxGeometry x="373" y="130" width="100" height="270" as="geometry" />
        </mxCell>
        <mxCell id="Lna5vxEm3aA6Pjo8IUbZ-53" value="" style="html=1;points=[];perimeter=orthogonalPerimeter;outlineConnect=0;targetShapes=umlLifeline;portConstraint=eastwest;newEdgeStyle={&quot;edgeStyle&quot;:&quot;elbowEdgeStyle&quot;,&quot;elbow&quot;:&quot;vertical&quot;,&quot;curved&quot;:0,&quot;rounded&quot;:0};" vertex="1" parent="Lna5vxEm3aA6Pjo8IUbZ-52">
          <mxGeometry x="45" y="140" width="10" height="40" as="geometry" />
        </mxCell>
        <mxCell id="Lna5vxEm3aA6Pjo8IUbZ-54" value="" style="shape=umlActor;verticalLabelPosition=bottom;verticalAlign=top;html=1;outlineConnect=0;" vertex="1" parent="Lna5vxEm3aA6Pjo8IUbZ-46">
          <mxGeometry x="40" y="70" width="30" height="60" as="geometry" />
        </mxCell>
        <mxCell id="Lna5vxEm3aA6Pjo8IUbZ-55" value="2. ambil data status order" style="html=1;verticalAlign=bottom;endArrow=block;edgeStyle=elbowEdgeStyle;elbow=horizontal;curved=0;rounded=0;" edge="1" parent="Lna5vxEm3aA6Pjo8IUbZ-46">
          <mxGeometry relative="1" as="geometry">
            <mxPoint x="250" y="270" as="sourcePoint" />
            <Array as="points">
              <mxPoint x="325" y="270" />
            </Array>
            <mxPoint x="418" y="270" as="targetPoint" />
          </mxGeometry>
        </mxCell>
        <mxCell id="Lna5vxEm3aA6Pjo8IUbZ-56" value="3. kirim status order" style="html=1;verticalAlign=bottom;endArrow=block;edgeStyle=elbowEdgeStyle;elbow=horizontal;curved=0;rounded=0;" edge="1" parent="Lna5vxEm3aA6Pjo8IUbZ-46">
          <mxGeometry relative="1" as="geometry">
            <mxPoint x="420.45" y="310" as="sourcePoint" />
            <Array as="points">
              <mxPoint x="420.45" y="310" />
            </Array>
            <mxPoint x="239.99761904761834" y="310" as="targetPoint" />
          </mxGeometry>
        </mxCell>
        <mxCell id="Lna5vxEm3aA6Pjo8IUbZ-58" value="4. tampilkan status pesanan" style="html=1;verticalAlign=bottom;endArrow=block;edgeStyle=elbowEdgeStyle;elbow=horizontal;curved=0;rounded=0;" edge="1" parent="Lna5vxEm3aA6Pjo8IUbZ-46">
          <mxGeometry relative="1" as="geometry">
            <mxPoint x="240.45238095238165" y="350" as="sourcePoint" />
            <Array as="points">
              <mxPoint x="240.45238095238165" y="350" />
            </Array>
            <mxPoint x="60" y="350" as="targetPoint" />
          </mxGeometry>
        </mxCell>
        <mxCell id="Lna5vxEm3aA6Pjo8IUbZ-59" value="terima logo" style="swimlane;whiteSpace=wrap;html=1;fontFamily=Helvetica;fontSize=20;labelBackgroundColor=default;container=0;fillColor=#dae8fc;strokeColor=#6c8ebf;" vertex="1" parent="1">
          <mxGeometry x="4220" y="270" width="530" height="460" as="geometry" />
        </mxCell>
        <mxCell id="Lna5vxEm3aA6Pjo8IUbZ-60" value="user" style="shape=umlLifeline;perimeter=lifelinePerimeter;whiteSpace=wrap;html=1;container=0;dropTarget=0;collapsible=0;recursiveResize=0;outlineConnect=0;portConstraint=eastwest;newEdgeStyle={&quot;edgeStyle&quot;:&quot;elbowEdgeStyle&quot;,&quot;elbow&quot;:&quot;vertical&quot;,&quot;curved&quot;:0,&quot;rounded&quot;:0};" vertex="1" parent="Lna5vxEm3aA6Pjo8IUbZ-59">
          <mxGeometry x="10" y="130" width="100" height="310" as="geometry" />
        </mxCell>
        <mxCell id="Lna5vxEm3aA6Pjo8IUbZ-61" value="" style="html=1;points=[];perimeter=orthogonalPerimeter;outlineConnect=0;targetShapes=umlLifeline;portConstraint=eastwest;newEdgeStyle={&quot;edgeStyle&quot;:&quot;elbowEdgeStyle&quot;,&quot;elbow&quot;:&quot;vertical&quot;,&quot;curved&quot;:0,&quot;rounded&quot;:0};" vertex="1" parent="Lna5vxEm3aA6Pjo8IUbZ-60">
          <mxGeometry x="45" y="70" width="10" height="190" as="geometry" />
        </mxCell>
        <mxCell id="Lna5vxEm3aA6Pjo8IUbZ-62" value="sistem" style="shape=umlLifeline;perimeter=lifelinePerimeter;whiteSpace=wrap;html=1;container=0;dropTarget=0;collapsible=0;recursiveResize=0;outlineConnect=0;portConstraint=eastwest;newEdgeStyle={&quot;edgeStyle&quot;:&quot;elbowEdgeStyle&quot;,&quot;elbow&quot;:&quot;vertical&quot;,&quot;curved&quot;:0,&quot;rounded&quot;:0};" vertex="1" parent="Lna5vxEm3aA6Pjo8IUbZ-59">
          <mxGeometry x="190" y="130" width="100" height="320" as="geometry" />
        </mxCell>
        <mxCell id="Lna5vxEm3aA6Pjo8IUbZ-63" value="" style="html=1;points=[];perimeter=orthogonalPerimeter;outlineConnect=0;targetShapes=umlLifeline;portConstraint=eastwest;newEdgeStyle={&quot;edgeStyle&quot;:&quot;elbowEdgeStyle&quot;,&quot;elbow&quot;:&quot;vertical&quot;,&quot;curved&quot;:0,&quot;rounded&quot;:0};" vertex="1" parent="Lna5vxEm3aA6Pjo8IUbZ-62">
          <mxGeometry x="45" y="80" width="10" height="60" as="geometry" />
        </mxCell>
        <mxCell id="Lna5vxEm3aA6Pjo8IUbZ-64" value="" style="html=1;points=[];perimeter=orthogonalPerimeter;outlineConnect=0;targetShapes=umlLifeline;portConstraint=eastwest;newEdgeStyle={&quot;edgeStyle&quot;:&quot;elbowEdgeStyle&quot;,&quot;elbow&quot;:&quot;vertical&quot;,&quot;curved&quot;:0,&quot;rounded&quot;:0};" vertex="1" parent="Lna5vxEm3aA6Pjo8IUbZ-62">
          <mxGeometry x="45" y="180" width="10" height="40" as="geometry" />
        </mxCell>
        <mxCell id="Lna5vxEm3aA6Pjo8IUbZ-65" value="1. cek status pesanan" style="html=1;verticalAlign=bottom;endArrow=block;edgeStyle=elbowEdgeStyle;elbow=vertical;curved=0;rounded=0;" edge="1" parent="Lna5vxEm3aA6Pjo8IUbZ-59" source="Lna5vxEm3aA6Pjo8IUbZ-61" target="Lna5vxEm3aA6Pjo8IUbZ-63">
          <mxGeometry relative="1" as="geometry">
            <mxPoint x="165" y="220" as="sourcePoint" />
            <Array as="points">
              <mxPoint x="150" y="210" />
            </Array>
          </mxGeometry>
        </mxCell>
        <mxCell id="Lna5vxEm3aA6Pjo8IUbZ-66" value="database" style="shape=umlLifeline;perimeter=lifelinePerimeter;whiteSpace=wrap;html=1;container=0;dropTarget=0;collapsible=0;recursiveResize=0;outlineConnect=0;portConstraint=eastwest;newEdgeStyle={&quot;edgeStyle&quot;:&quot;elbowEdgeStyle&quot;,&quot;elbow&quot;:&quot;vertical&quot;,&quot;curved&quot;:0,&quot;rounded&quot;:0};" vertex="1" parent="Lna5vxEm3aA6Pjo8IUbZ-59">
          <mxGeometry x="373" y="130" width="100" height="320" as="geometry" />
        </mxCell>
        <mxCell id="Lna5vxEm3aA6Pjo8IUbZ-67" value="" style="html=1;points=[];perimeter=orthogonalPerimeter;outlineConnect=0;targetShapes=umlLifeline;portConstraint=eastwest;newEdgeStyle={&quot;edgeStyle&quot;:&quot;elbowEdgeStyle&quot;,&quot;elbow&quot;:&quot;vertical&quot;,&quot;curved&quot;:0,&quot;rounded&quot;:0};" vertex="1" parent="Lna5vxEm3aA6Pjo8IUbZ-66">
          <mxGeometry x="45" y="140" width="10" height="40" as="geometry" />
        </mxCell>
        <mxCell id="Lna5vxEm3aA6Pjo8IUbZ-68" value="" style="shape=umlActor;verticalLabelPosition=bottom;verticalAlign=top;html=1;outlineConnect=0;" vertex="1" parent="Lna5vxEm3aA6Pjo8IUbZ-59">
          <mxGeometry x="40" y="70" width="30" height="60" as="geometry" />
        </mxCell>
        <mxCell id="Lna5vxEm3aA6Pjo8IUbZ-69" value="2. ambil data status order" style="html=1;verticalAlign=bottom;endArrow=block;edgeStyle=elbowEdgeStyle;elbow=horizontal;curved=0;rounded=0;" edge="1" parent="Lna5vxEm3aA6Pjo8IUbZ-59">
          <mxGeometry relative="1" as="geometry">
            <mxPoint x="250" y="270" as="sourcePoint" />
            <Array as="points">
              <mxPoint x="325" y="270" />
            </Array>
            <mxPoint x="418" y="270" as="targetPoint" />
          </mxGeometry>
        </mxCell>
        <mxCell id="Lna5vxEm3aA6Pjo8IUbZ-70" value="3. jika complete, ambil file logo" style="html=1;verticalAlign=bottom;endArrow=block;edgeStyle=elbowEdgeStyle;elbow=horizontal;curved=0;rounded=0;" edge="1" parent="Lna5vxEm3aA6Pjo8IUbZ-59">
          <mxGeometry relative="1" as="geometry">
            <mxPoint x="420.45" y="310" as="sourcePoint" />
            <Array as="points">
              <mxPoint x="420.45" y="310" />
            </Array>
            <mxPoint x="239.99761904761834" y="310" as="targetPoint" />
          </mxGeometry>
        </mxCell>
        <mxCell id="Lna5vxEm3aA6Pjo8IUbZ-71" value="4.&amp;nbsp; sediakan link download" style="html=1;verticalAlign=bottom;endArrow=block;edgeStyle=elbowEdgeStyle;elbow=horizontal;curved=0;rounded=0;" edge="1" parent="Lna5vxEm3aA6Pjo8IUbZ-59">
          <mxGeometry relative="1" as="geometry">
            <mxPoint x="240.45238095238165" y="350" as="sourcePoint" />
            <Array as="points">
              <mxPoint x="240.45238095238165" y="350" />
            </Array>
            <mxPoint x="60" y="350" as="targetPoint" />
          </mxGeometry>
        </mxCell>
        <mxCell id="Lna5vxEm3aA6Pjo8IUbZ-72" value="5. download logo" style="html=1;verticalAlign=bottom;endArrow=block;edgeStyle=elbowEdgeStyle;elbow=horizontal;curved=0;rounded=0;" edge="1" parent="Lna5vxEm3aA6Pjo8IUbZ-59" target="Lna5vxEm3aA6Pjo8IUbZ-73">
          <mxGeometry relative="1" as="geometry">
            <mxPoint x="60" y="390" as="sourcePoint" />
            <Array as="points">
              <mxPoint x="135" y="390" />
            </Array>
            <mxPoint x="228" y="390" as="targetPoint" />
          </mxGeometry>
        </mxCell>
        <mxCell id="Lna5vxEm3aA6Pjo8IUbZ-73" value="" style="html=1;points=[];perimeter=orthogonalPerimeter;outlineConnect=0;targetShapes=umlLifeline;portConstraint=eastwest;newEdgeStyle={&quot;edgeStyle&quot;:&quot;elbowEdgeStyle&quot;,&quot;elbow&quot;:&quot;vertical&quot;,&quot;curved&quot;:0,&quot;rounded&quot;:0};" vertex="1" parent="Lna5vxEm3aA6Pjo8IUbZ-59">
          <mxGeometry x="235" y="390" width="10" height="40" as="geometry" />
        </mxCell>
        <mxCell id="q4aDCh73-JiOkQmLhJ8Y-19" value="kelola transaksi" style="swimlane;whiteSpace=wrap;html=1;fontFamily=Helvetica;fontSize=20;labelBackgroundColor=default;container=0;fillColor=#dae8fc;strokeColor=#6c8ebf;" vertex="1" parent="1">
          <mxGeometry x="770" y="890" width="510" height="410" as="geometry" />
        </mxCell>
        <mxCell id="q4aDCh73-JiOkQmLhJ8Y-20" value="Admin" style="shape=umlLifeline;perimeter=lifelinePerimeter;whiteSpace=wrap;html=1;container=0;dropTarget=0;collapsible=0;recursiveResize=0;outlineConnect=0;portConstraint=eastwest;newEdgeStyle={&quot;edgeStyle&quot;:&quot;elbowEdgeStyle&quot;,&quot;elbow&quot;:&quot;vertical&quot;,&quot;curved&quot;:0,&quot;rounded&quot;:0};" vertex="1" parent="q4aDCh73-JiOkQmLhJ8Y-19">
          <mxGeometry x="10" y="130" width="100" height="260" as="geometry" />
        </mxCell>
        <mxCell id="q4aDCh73-JiOkQmLhJ8Y-21" value="" style="html=1;points=[];perimeter=orthogonalPerimeter;outlineConnect=0;targetShapes=umlLifeline;portConstraint=eastwest;newEdgeStyle={&quot;edgeStyle&quot;:&quot;elbowEdgeStyle&quot;,&quot;elbow&quot;:&quot;vertical&quot;,&quot;curved&quot;:0,&quot;rounded&quot;:0};" vertex="1" parent="q4aDCh73-JiOkQmLhJ8Y-20">
          <mxGeometry x="45" y="80" width="10" height="140" as="geometry" />
        </mxCell>
        <mxCell id="q4aDCh73-JiOkQmLhJ8Y-22" value="sistem" style="shape=umlLifeline;perimeter=lifelinePerimeter;whiteSpace=wrap;html=1;container=0;dropTarget=0;collapsible=0;recursiveResize=0;outlineConnect=0;portConstraint=eastwest;newEdgeStyle={&quot;edgeStyle&quot;:&quot;elbowEdgeStyle&quot;,&quot;elbow&quot;:&quot;vertical&quot;,&quot;curved&quot;:0,&quot;rounded&quot;:0};" vertex="1" parent="q4aDCh73-JiOkQmLhJ8Y-19">
          <mxGeometry x="190" y="130" width="100" height="260" as="geometry" />
        </mxCell>
        <mxCell id="q4aDCh73-JiOkQmLhJ8Y-23" value="" style="html=1;points=[];perimeter=orthogonalPerimeter;outlineConnect=0;targetShapes=umlLifeline;portConstraint=eastwest;newEdgeStyle={&quot;edgeStyle&quot;:&quot;elbowEdgeStyle&quot;,&quot;elbow&quot;:&quot;vertical&quot;,&quot;curved&quot;:0,&quot;rounded&quot;:0};" vertex="1" parent="q4aDCh73-JiOkQmLhJ8Y-22">
          <mxGeometry x="45" y="80" width="10" height="60" as="geometry" />
        </mxCell>
        <mxCell id="q4aDCh73-JiOkQmLhJ8Y-31" value="" style="html=1;points=[];perimeter=orthogonalPerimeter;outlineConnect=0;targetShapes=umlLifeline;portConstraint=eastwest;newEdgeStyle={&quot;edgeStyle&quot;:&quot;elbowEdgeStyle&quot;,&quot;elbow&quot;:&quot;vertical&quot;,&quot;curved&quot;:0,&quot;rounded&quot;:0};" vertex="1" parent="q4aDCh73-JiOkQmLhJ8Y-22">
          <mxGeometry x="45" y="180" width="10" height="40" as="geometry" />
        </mxCell>
        <mxCell id="q4aDCh73-JiOkQmLhJ8Y-24" value="1. buka daftar transaksi" style="html=1;verticalAlign=bottom;endArrow=block;edgeStyle=elbowEdgeStyle;elbow=horizontal;curved=0;rounded=0;" edge="1" parent="q4aDCh73-JiOkQmLhJ8Y-19" source="q4aDCh73-JiOkQmLhJ8Y-21" target="q4aDCh73-JiOkQmLhJ8Y-23">
          <mxGeometry relative="1" as="geometry">
            <mxPoint x="165" y="220" as="sourcePoint" />
            <Array as="points">
              <mxPoint x="150" y="210" />
            </Array>
          </mxGeometry>
        </mxCell>
        <mxCell id="q4aDCh73-JiOkQmLhJ8Y-25" value="Database" style="shape=umlLifeline;perimeter=lifelinePerimeter;whiteSpace=wrap;html=1;container=0;dropTarget=0;collapsible=0;recursiveResize=0;outlineConnect=0;portConstraint=eastwest;newEdgeStyle={&quot;edgeStyle&quot;:&quot;elbowEdgeStyle&quot;,&quot;elbow&quot;:&quot;vertical&quot;,&quot;curved&quot;:0,&quot;rounded&quot;:0};" vertex="1" parent="q4aDCh73-JiOkQmLhJ8Y-19">
          <mxGeometry x="373" y="130" width="100" height="260" as="geometry" />
        </mxCell>
        <mxCell id="q4aDCh73-JiOkQmLhJ8Y-26" value="" style="html=1;points=[];perimeter=orthogonalPerimeter;outlineConnect=0;targetShapes=umlLifeline;portConstraint=eastwest;newEdgeStyle={&quot;edgeStyle&quot;:&quot;elbowEdgeStyle&quot;,&quot;elbow&quot;:&quot;vertical&quot;,&quot;curved&quot;:0,&quot;rounded&quot;:0};" vertex="1" parent="q4aDCh73-JiOkQmLhJ8Y-25">
          <mxGeometry x="45" y="140" width="10" height="40" as="geometry" />
        </mxCell>
        <mxCell id="q4aDCh73-JiOkQmLhJ8Y-27" value="" style="shape=umlActor;verticalLabelPosition=bottom;verticalAlign=top;html=1;outlineConnect=0;" vertex="1" parent="q4aDCh73-JiOkQmLhJ8Y-19">
          <mxGeometry x="40" y="70" width="30" height="60" as="geometry" />
        </mxCell>
        <mxCell id="q4aDCh73-JiOkQmLhJ8Y-28" value="2. ambil data transaksi" style="html=1;verticalAlign=bottom;endArrow=block;edgeStyle=elbowEdgeStyle;elbow=vertical;curved=0;rounded=0;" edge="1" parent="q4aDCh73-JiOkQmLhJ8Y-19" source="q4aDCh73-JiOkQmLhJ8Y-23">
          <mxGeometry relative="1" as="geometry">
            <mxPoint x="250" y="270" as="sourcePoint" />
            <Array as="points">
              <mxPoint x="325" y="270" />
            </Array>
            <mxPoint x="418" y="270" as="targetPoint" />
          </mxGeometry>
        </mxCell>
        <mxCell id="q4aDCh73-JiOkQmLhJ8Y-29" value="3. kirim daftar data transaksi" style="html=1;verticalAlign=bottom;endArrow=block;edgeStyle=elbowEdgeStyle;elbow=vertical;curved=0;rounded=0;" edge="1" parent="q4aDCh73-JiOkQmLhJ8Y-19" target="q4aDCh73-JiOkQmLhJ8Y-31">
          <mxGeometry relative="1" as="geometry">
            <mxPoint x="427.5" y="310" as="sourcePoint" />
            <Array as="points">
              <mxPoint x="341" y="310" />
            </Array>
            <mxPoint x="250" y="310" as="targetPoint" />
          </mxGeometry>
        </mxCell>
        <mxCell id="q4aDCh73-JiOkQmLhJ8Y-30" value="4. tampilkan transaksi" style="html=1;verticalAlign=bottom;endArrow=block;edgeStyle=elbowEdgeStyle;elbow=vertical;curved=0;rounded=0;" edge="1" parent="q4aDCh73-JiOkQmLhJ8Y-19">
          <mxGeometry relative="1" as="geometry">
            <mxPoint x="242.5" y="350" as="sourcePoint" />
            <Array as="points">
              <mxPoint x="156" y="350" />
            </Array>
            <mxPoint x="60" y="350" as="targetPoint" />
          </mxGeometry>
        </mxCell>
        <mxCell id="q4aDCh73-JiOkQmLhJ8Y-32" value="proses pesanan" style="swimlane;whiteSpace=wrap;html=1;fontFamily=Helvetica;fontSize=20;labelBackgroundColor=default;container=0;fillColor=#dae8fc;strokeColor=#6c8ebf;" vertex="1" parent="1">
          <mxGeometry x="1370" y="880" width="510" height="410" as="geometry" />
        </mxCell>
        <mxCell id="q4aDCh73-JiOkQmLhJ8Y-33" value="Admin" style="shape=umlLifeline;perimeter=lifelinePerimeter;whiteSpace=wrap;html=1;container=0;dropTarget=0;collapsible=0;recursiveResize=0;outlineConnect=0;portConstraint=eastwest;newEdgeStyle={&quot;edgeStyle&quot;:&quot;elbowEdgeStyle&quot;,&quot;elbow&quot;:&quot;vertical&quot;,&quot;curved&quot;:0,&quot;rounded&quot;:0};" vertex="1" parent="q4aDCh73-JiOkQmLhJ8Y-32">
          <mxGeometry x="10" y="130" width="100" height="260" as="geometry" />
        </mxCell>
        <mxCell id="q4aDCh73-JiOkQmLhJ8Y-34" value="" style="html=1;points=[];perimeter=orthogonalPerimeter;outlineConnect=0;targetShapes=umlLifeline;portConstraint=eastwest;newEdgeStyle={&quot;edgeStyle&quot;:&quot;elbowEdgeStyle&quot;,&quot;elbow&quot;:&quot;vertical&quot;,&quot;curved&quot;:0,&quot;rounded&quot;:0};" vertex="1" parent="q4aDCh73-JiOkQmLhJ8Y-33">
          <mxGeometry x="45" y="80" width="10" height="140" as="geometry" />
        </mxCell>
        <mxCell id="q4aDCh73-JiOkQmLhJ8Y-35" value="sistem" style="shape=umlLifeline;perimeter=lifelinePerimeter;whiteSpace=wrap;html=1;container=0;dropTarget=0;collapsible=0;recursiveResize=0;outlineConnect=0;portConstraint=eastwest;newEdgeStyle={&quot;edgeStyle&quot;:&quot;elbowEdgeStyle&quot;,&quot;elbow&quot;:&quot;vertical&quot;,&quot;curved&quot;:0,&quot;rounded&quot;:0};" vertex="1" parent="q4aDCh73-JiOkQmLhJ8Y-32">
          <mxGeometry x="190" y="130" width="100" height="260" as="geometry" />
        </mxCell>
        <mxCell id="q4aDCh73-JiOkQmLhJ8Y-36" value="" style="html=1;points=[];perimeter=orthogonalPerimeter;outlineConnect=0;targetShapes=umlLifeline;portConstraint=eastwest;newEdgeStyle={&quot;edgeStyle&quot;:&quot;elbowEdgeStyle&quot;,&quot;elbow&quot;:&quot;vertical&quot;,&quot;curved&quot;:0,&quot;rounded&quot;:0};" vertex="1" parent="q4aDCh73-JiOkQmLhJ8Y-35">
          <mxGeometry x="45" y="80" width="10" height="60" as="geometry" />
        </mxCell>
        <mxCell id="q4aDCh73-JiOkQmLhJ8Y-37" value="" style="html=1;points=[];perimeter=orthogonalPerimeter;outlineConnect=0;targetShapes=umlLifeline;portConstraint=eastwest;newEdgeStyle={&quot;edgeStyle&quot;:&quot;elbowEdgeStyle&quot;,&quot;elbow&quot;:&quot;vertical&quot;,&quot;curved&quot;:0,&quot;rounded&quot;:0};" vertex="1" parent="q4aDCh73-JiOkQmLhJ8Y-35">
          <mxGeometry x="45" y="180" width="10" height="40" as="geometry" />
        </mxCell>
        <mxCell id="q4aDCh73-JiOkQmLhJ8Y-38" value="1. lihat daftar pesanan" style="html=1;verticalAlign=bottom;endArrow=block;edgeStyle=elbowEdgeStyle;elbow=horizontal;curved=0;rounded=0;" edge="1" parent="q4aDCh73-JiOkQmLhJ8Y-32" source="q4aDCh73-JiOkQmLhJ8Y-34" target="q4aDCh73-JiOkQmLhJ8Y-36">
          <mxGeometry relative="1" as="geometry">
            <mxPoint x="165" y="220" as="sourcePoint" />
            <Array as="points">
              <mxPoint x="150" y="210" />
            </Array>
          </mxGeometry>
        </mxCell>
        <mxCell id="q4aDCh73-JiOkQmLhJ8Y-39" value="Database" style="shape=umlLifeline;perimeter=lifelinePerimeter;whiteSpace=wrap;html=1;container=0;dropTarget=0;collapsible=0;recursiveResize=0;outlineConnect=0;portConstraint=eastwest;newEdgeStyle={&quot;edgeStyle&quot;:&quot;elbowEdgeStyle&quot;,&quot;elbow&quot;:&quot;vertical&quot;,&quot;curved&quot;:0,&quot;rounded&quot;:0};" vertex="1" parent="q4aDCh73-JiOkQmLhJ8Y-32">
          <mxGeometry x="373" y="130" width="100" height="260" as="geometry" />
        </mxCell>
        <mxCell id="q4aDCh73-JiOkQmLhJ8Y-40" value="" style="html=1;points=[];perimeter=orthogonalPerimeter;outlineConnect=0;targetShapes=umlLifeline;portConstraint=eastwest;newEdgeStyle={&quot;edgeStyle&quot;:&quot;elbowEdgeStyle&quot;,&quot;elbow&quot;:&quot;vertical&quot;,&quot;curved&quot;:0,&quot;rounded&quot;:0};" vertex="1" parent="q4aDCh73-JiOkQmLhJ8Y-39">
          <mxGeometry x="45" y="110" width="10" height="40" as="geometry" />
        </mxCell>
        <mxCell id="q4aDCh73-JiOkQmLhJ8Y-47" value="" style="html=1;points=[];perimeter=orthogonalPerimeter;outlineConnect=0;targetShapes=umlLifeline;portConstraint=eastwest;newEdgeStyle={&quot;edgeStyle&quot;:&quot;elbowEdgeStyle&quot;,&quot;elbow&quot;:&quot;vertical&quot;,&quot;curved&quot;:0,&quot;rounded&quot;:0};" vertex="1" parent="q4aDCh73-JiOkQmLhJ8Y-39">
          <mxGeometry x="45" y="220" width="10" height="40" as="geometry" />
        </mxCell>
        <mxCell id="q4aDCh73-JiOkQmLhJ8Y-41" value="" style="shape=umlActor;verticalLabelPosition=bottom;verticalAlign=top;html=1;outlineConnect=0;" vertex="1" parent="q4aDCh73-JiOkQmLhJ8Y-32">
          <mxGeometry x="40" y="70" width="30" height="60" as="geometry" />
        </mxCell>
        <mxCell id="q4aDCh73-JiOkQmLhJ8Y-42" value="2. ambil detail pesanan" style="html=1;verticalAlign=bottom;endArrow=block;edgeStyle=elbowEdgeStyle;elbow=vertical;curved=0;rounded=0;" edge="1" parent="q4aDCh73-JiOkQmLhJ8Y-32">
          <mxGeometry relative="1" as="geometry">
            <mxPoint x="245" y="240" as="sourcePoint" />
            <Array as="points">
              <mxPoint x="325" y="240" />
            </Array>
            <mxPoint x="418" y="240" as="targetPoint" />
          </mxGeometry>
        </mxCell>
        <mxCell id="q4aDCh73-JiOkQmLhJ8Y-43" value="3. tampilkan data order" style="html=1;verticalAlign=bottom;endArrow=block;edgeStyle=elbowEdgeStyle;elbow=vertical;curved=0;rounded=0;" edge="1" parent="q4aDCh73-JiOkQmLhJ8Y-32">
          <mxGeometry relative="1" as="geometry">
            <mxPoint x="242.5" y="269" as="sourcePoint" />
            <Array as="points">
              <mxPoint x="156" y="269" />
            </Array>
            <mxPoint x="60" y="269" as="targetPoint" />
          </mxGeometry>
        </mxCell>
        <mxCell id="q4aDCh73-JiOkQmLhJ8Y-45" value="4. upload hasil logo" style="html=1;verticalAlign=bottom;endArrow=block;edgeStyle=elbowEdgeStyle;elbow=horizontal;curved=0;rounded=0;" edge="1" parent="q4aDCh73-JiOkQmLhJ8Y-32" source="q4aDCh73-JiOkQmLhJ8Y-34">
          <mxGeometry relative="1" as="geometry">
            <mxPoint x="70" y="310" as="sourcePoint" />
            <Array as="points">
              <mxPoint x="155" y="310" />
            </Array>
            <mxPoint x="240" y="310" as="targetPoint" />
          </mxGeometry>
        </mxCell>
        <mxCell id="q4aDCh73-JiOkQmLhJ8Y-46" value="5. simpan file logo &amp;amp; update status order" style="html=1;verticalAlign=bottom;endArrow=block;edgeStyle=elbowEdgeStyle;elbow=vertical;curved=0;rounded=0;" edge="1" parent="q4aDCh73-JiOkQmLhJ8Y-32" target="q4aDCh73-JiOkQmLhJ8Y-47">
          <mxGeometry relative="1" as="geometry">
            <mxPoint x="240" y="350" as="sourcePoint" />
            <Array as="points">
              <mxPoint x="320" y="350" />
            </Array>
            <mxPoint x="413" y="350" as="targetPoint" />
          </mxGeometry>
        </mxCell>
        <mxCell id="q4aDCh73-JiOkQmLhJ8Y-48" value="kirim logo&amp;nbsp;" style="swimlane;whiteSpace=wrap;html=1;fontFamily=Helvetica;fontSize=20;labelBackgroundColor=default;container=0;fillColor=#dae8fc;strokeColor=#6c8ebf;" vertex="1" parent="1">
          <mxGeometry x="1950" y="880" width="510" height="370" as="geometry" />
        </mxCell>
        <mxCell id="q4aDCh73-JiOkQmLhJ8Y-49" value="Admin" style="shape=umlLifeline;perimeter=lifelinePerimeter;whiteSpace=wrap;html=1;container=0;dropTarget=0;collapsible=0;recursiveResize=0;outlineConnect=0;portConstraint=eastwest;newEdgeStyle={&quot;edgeStyle&quot;:&quot;elbowEdgeStyle&quot;,&quot;elbow&quot;:&quot;vertical&quot;,&quot;curved&quot;:0,&quot;rounded&quot;:0};" vertex="1" parent="q4aDCh73-JiOkQmLhJ8Y-48">
          <mxGeometry x="10" y="130" width="100" height="210" as="geometry" />
        </mxCell>
        <mxCell id="q4aDCh73-JiOkQmLhJ8Y-50" value="" style="html=1;points=[];perimeter=orthogonalPerimeter;outlineConnect=0;targetShapes=umlLifeline;portConstraint=eastwest;newEdgeStyle={&quot;edgeStyle&quot;:&quot;elbowEdgeStyle&quot;,&quot;elbow&quot;:&quot;vertical&quot;,&quot;curved&quot;:0,&quot;rounded&quot;:0};" vertex="1" parent="q4aDCh73-JiOkQmLhJ8Y-49">
          <mxGeometry x="45" y="80" width="10" height="80" as="geometry" />
        </mxCell>
        <mxCell id="q4aDCh73-JiOkQmLhJ8Y-51" value="sistem" style="shape=umlLifeline;perimeter=lifelinePerimeter;whiteSpace=wrap;html=1;container=0;dropTarget=0;collapsible=0;recursiveResize=0;outlineConnect=0;portConstraint=eastwest;newEdgeStyle={&quot;edgeStyle&quot;:&quot;elbowEdgeStyle&quot;,&quot;elbow&quot;:&quot;vertical&quot;,&quot;curved&quot;:0,&quot;rounded&quot;:0};" vertex="1" parent="q4aDCh73-JiOkQmLhJ8Y-48">
          <mxGeometry x="190" y="130" width="100" height="210" as="geometry" />
        </mxCell>
        <mxCell id="q4aDCh73-JiOkQmLhJ8Y-52" value="" style="html=1;points=[];perimeter=orthogonalPerimeter;outlineConnect=0;targetShapes=umlLifeline;portConstraint=eastwest;newEdgeStyle={&quot;edgeStyle&quot;:&quot;elbowEdgeStyle&quot;,&quot;elbow&quot;:&quot;vertical&quot;,&quot;curved&quot;:0,&quot;rounded&quot;:0};" vertex="1" parent="q4aDCh73-JiOkQmLhJ8Y-51">
          <mxGeometry x="45" y="80" width="10" height="80" as="geometry" />
        </mxCell>
        <mxCell id="q4aDCh73-JiOkQmLhJ8Y-54" value="1. pilih pesanan selesai" style="html=1;verticalAlign=bottom;endArrow=block;edgeStyle=elbowEdgeStyle;elbow=horizontal;curved=0;rounded=0;" edge="1" parent="q4aDCh73-JiOkQmLhJ8Y-48" source="q4aDCh73-JiOkQmLhJ8Y-50" target="q4aDCh73-JiOkQmLhJ8Y-52">
          <mxGeometry relative="1" as="geometry">
            <mxPoint x="165" y="220" as="sourcePoint" />
            <Array as="points">
              <mxPoint x="150" y="210" />
            </Array>
          </mxGeometry>
        </mxCell>
        <mxCell id="q4aDCh73-JiOkQmLhJ8Y-55" value="Database" style="shape=umlLifeline;perimeter=lifelinePerimeter;whiteSpace=wrap;html=1;container=0;dropTarget=0;collapsible=0;recursiveResize=0;outlineConnect=0;portConstraint=eastwest;newEdgeStyle={&quot;edgeStyle&quot;:&quot;elbowEdgeStyle&quot;,&quot;elbow&quot;:&quot;vertical&quot;,&quot;curved&quot;:0,&quot;rounded&quot;:0};" vertex="1" parent="q4aDCh73-JiOkQmLhJ8Y-48">
          <mxGeometry x="373" y="130" width="100" height="210" as="geometry" />
        </mxCell>
        <mxCell id="q4aDCh73-JiOkQmLhJ8Y-56" value="" style="html=1;points=[];perimeter=orthogonalPerimeter;outlineConnect=0;targetShapes=umlLifeline;portConstraint=eastwest;newEdgeStyle={&quot;edgeStyle&quot;:&quot;elbowEdgeStyle&quot;,&quot;elbow&quot;:&quot;vertical&quot;,&quot;curved&quot;:0,&quot;rounded&quot;:0};" vertex="1" parent="q4aDCh73-JiOkQmLhJ8Y-55">
          <mxGeometry x="45" y="120" width="10" height="40" as="geometry" />
        </mxCell>
        <mxCell id="q4aDCh73-JiOkQmLhJ8Y-57" value="" style="shape=umlActor;verticalLabelPosition=bottom;verticalAlign=top;html=1;outlineConnect=0;" vertex="1" parent="q4aDCh73-JiOkQmLhJ8Y-48">
          <mxGeometry x="40" y="70" width="30" height="60" as="geometry" />
        </mxCell>
        <mxCell id="q4aDCh73-JiOkQmLhJ8Y-58" value="2. update status order" style="html=1;verticalAlign=bottom;endArrow=block;edgeStyle=elbowEdgeStyle;elbow=horizontal;curved=0;rounded=0;" edge="1" parent="q4aDCh73-JiOkQmLhJ8Y-48">
          <mxGeometry relative="1" as="geometry">
            <mxPoint x="250" y="250" as="sourcePoint" />
            <Array as="points">
              <mxPoint x="330" y="250" />
            </Array>
            <mxPoint x="423" y="250" as="targetPoint" />
          </mxGeometry>
        </mxCell>
        <mxCell id="q4aDCh73-JiOkQmLhJ8Y-59" value="3. kirim notifikasi logo siap di unduh" style="html=1;verticalAlign=bottom;endArrow=block;edgeStyle=elbowEdgeStyle;elbow=vertical;curved=0;rounded=0;" edge="1" parent="q4aDCh73-JiOkQmLhJ8Y-48" target="q4aDCh73-JiOkQmLhJ8Y-50">
          <mxGeometry relative="1" as="geometry">
            <mxPoint x="232.5" y="290" as="sourcePoint" />
            <Array as="points">
              <mxPoint x="146" y="290" />
            </Array>
            <mxPoint x="70" y="290" as="targetPoint" />
          </mxGeometry>
        </mxCell>
        <mxCell id="5YnCF1cebna0uoHJnHI4-1" value="kelola katalog logo" style="swimlane;whiteSpace=wrap;html=1;fontFamily=Helvetica;fontSize=20;labelBackgroundColor=default;container=0;fillColor=#dae8fc;strokeColor=#6c8ebf;" vertex="1" parent="1">
          <mxGeometry x="180" y="890" width="510" height="410" as="geometry" />
        </mxCell>
        <mxCell id="5YnCF1cebna0uoHJnHI4-2" value="Admin" style="shape=umlLifeline;perimeter=lifelinePerimeter;whiteSpace=wrap;html=1;container=0;dropTarget=0;collapsible=0;recursiveResize=0;outlineConnect=0;portConstraint=eastwest;newEdgeStyle={&quot;edgeStyle&quot;:&quot;elbowEdgeStyle&quot;,&quot;elbow&quot;:&quot;vertical&quot;,&quot;curved&quot;:0,&quot;rounded&quot;:0};" vertex="1" parent="5YnCF1cebna0uoHJnHI4-1">
          <mxGeometry x="10" y="130" width="100" height="250" as="geometry" />
        </mxCell>
        <mxCell id="5YnCF1cebna0uoHJnHI4-3" value="" style="html=1;points=[];perimeter=orthogonalPerimeter;outlineConnect=0;targetShapes=umlLifeline;portConstraint=eastwest;newEdgeStyle={&quot;edgeStyle&quot;:&quot;elbowEdgeStyle&quot;,&quot;elbow&quot;:&quot;vertical&quot;,&quot;curved&quot;:0,&quot;rounded&quot;:0};" vertex="1" parent="5YnCF1cebna0uoHJnHI4-2">
          <mxGeometry x="45" y="80" width="10" height="140" as="geometry" />
        </mxCell>
        <mxCell id="5YnCF1cebna0uoHJnHI4-4" value="sistem" style="shape=umlLifeline;perimeter=lifelinePerimeter;whiteSpace=wrap;html=1;container=0;dropTarget=0;collapsible=0;recursiveResize=0;outlineConnect=0;portConstraint=eastwest;newEdgeStyle={&quot;edgeStyle&quot;:&quot;elbowEdgeStyle&quot;,&quot;elbow&quot;:&quot;vertical&quot;,&quot;curved&quot;:0,&quot;rounded&quot;:0};" vertex="1" parent="5YnCF1cebna0uoHJnHI4-1">
          <mxGeometry x="190" y="130" width="100" height="250" as="geometry" />
        </mxCell>
        <mxCell id="5YnCF1cebna0uoHJnHI4-5" value="" style="html=1;points=[];perimeter=orthogonalPerimeter;outlineConnect=0;targetShapes=umlLifeline;portConstraint=eastwest;newEdgeStyle={&quot;edgeStyle&quot;:&quot;elbowEdgeStyle&quot;,&quot;elbow&quot;:&quot;vertical&quot;,&quot;curved&quot;:0,&quot;rounded&quot;:0};" vertex="1" parent="5YnCF1cebna0uoHJnHI4-4">
          <mxGeometry x="45" y="80" width="10" height="100" as="geometry" />
        </mxCell>
        <mxCell id="5YnCF1cebna0uoHJnHI4-7" value="1. pilih menu katalog logo" style="html=1;verticalAlign=bottom;endArrow=block;edgeStyle=elbowEdgeStyle;elbow=vertical;curved=0;rounded=0;" edge="1" parent="5YnCF1cebna0uoHJnHI4-1" source="5YnCF1cebna0uoHJnHI4-3" target="5YnCF1cebna0uoHJnHI4-5">
          <mxGeometry relative="1" as="geometry">
            <mxPoint x="165" y="220" as="sourcePoint" />
            <Array as="points">
              <mxPoint x="150" y="210" />
            </Array>
          </mxGeometry>
        </mxCell>
        <mxCell id="5YnCF1cebna0uoHJnHI4-8" value="Database" style="shape=umlLifeline;perimeter=lifelinePerimeter;whiteSpace=wrap;html=1;container=0;dropTarget=0;collapsible=0;recursiveResize=0;outlineConnect=0;portConstraint=eastwest;newEdgeStyle={&quot;edgeStyle&quot;:&quot;elbowEdgeStyle&quot;,&quot;elbow&quot;:&quot;vertical&quot;,&quot;curved&quot;:0,&quot;rounded&quot;:0};" vertex="1" parent="5YnCF1cebna0uoHJnHI4-1">
          <mxGeometry x="373" y="130" width="100" height="250" as="geometry" />
        </mxCell>
        <mxCell id="5YnCF1cebna0uoHJnHI4-9" value="" style="html=1;points=[];perimeter=orthogonalPerimeter;outlineConnect=0;targetShapes=umlLifeline;portConstraint=eastwest;newEdgeStyle={&quot;edgeStyle&quot;:&quot;elbowEdgeStyle&quot;,&quot;elbow&quot;:&quot;vertical&quot;,&quot;curved&quot;:0,&quot;rounded&quot;:0};" vertex="1" parent="5YnCF1cebna0uoHJnHI4-8">
          <mxGeometry x="45" y="140" width="10" height="40" as="geometry" />
        </mxCell>
        <mxCell id="5YnCF1cebna0uoHJnHI4-10" value="" style="shape=umlActor;verticalLabelPosition=bottom;verticalAlign=top;html=1;outlineConnect=0;" vertex="1" parent="5YnCF1cebna0uoHJnHI4-1">
          <mxGeometry x="40" y="70" width="30" height="60" as="geometry" />
        </mxCell>
        <mxCell id="5YnCF1cebna0uoHJnHI4-11" value="3. update data katalog logo" style="html=1;verticalAlign=bottom;endArrow=block;edgeStyle=elbowEdgeStyle;elbow=vertical;curved=0;rounded=0;" edge="1" parent="5YnCF1cebna0uoHJnHI4-1" source="5YnCF1cebna0uoHJnHI4-5">
          <mxGeometry relative="1" as="geometry">
            <mxPoint x="250" y="270" as="sourcePoint" />
            <Array as="points">
              <mxPoint x="325" y="270" />
            </Array>
            <mxPoint x="418" y="270" as="targetPoint" />
          </mxGeometry>
        </mxCell>
        <mxCell id="5YnCF1cebna0uoHJnHI4-13" value="4. konfirmasi update berhasil" style="html=1;verticalAlign=bottom;endArrow=block;edgeStyle=elbowEdgeStyle;elbow=vertical;curved=0;rounded=0;" edge="1" parent="5YnCF1cebna0uoHJnHI4-1" target="5YnCF1cebna0uoHJnHI4-3">
          <mxGeometry relative="1" as="geometry">
            <mxPoint x="242.5" y="310" as="sourcePoint" />
            <Array as="points">
              <mxPoint x="156" y="310" />
            </Array>
            <mxPoint x="70" y="310" as="targetPoint" />
          </mxGeometry>
        </mxCell>
        <mxCell id="5YnCF1cebna0uoHJnHI4-14" value="2. tambah, edit, hapus logo" style="html=1;verticalAlign=bottom;endArrow=block;edgeStyle=elbowEdgeStyle;elbow=vertical;curved=0;rounded=0;" edge="1" parent="5YnCF1cebna0uoHJnHI4-1" source="5YnCF1cebna0uoHJnHI4-3" target="5YnCF1cebna0uoHJnHI4-5">
          <mxGeometry relative="1" as="geometry">
            <mxPoint x="70" y="250" as="sourcePoint" />
            <Array as="points" />
            <mxPoint x="230" y="250" as="targetPoint" />
          </mxGeometry>
        </mxCell>
        <mxCell id="sL_WX1UmGDlvdirNMwxX-1" value="Logout" style="swimlane;whiteSpace=wrap;html=1;fontFamily=Helvetica;fontSize=20;labelBackgroundColor=default;container=0;fillColor=#dae8fc;strokeColor=#6c8ebf;" vertex="1" parent="1">
          <mxGeometry x="4840" y="270" width="530" height="470" as="geometry" />
        </mxCell>
        <mxCell id="sL_WX1UmGDlvdirNMwxX-2" value="user/admin" style="shape=umlLifeline;perimeter=lifelinePerimeter;whiteSpace=wrap;html=1;container=0;dropTarget=0;collapsible=0;recursiveResize=0;outlineConnect=0;portConstraint=eastwest;newEdgeStyle={&quot;edgeStyle&quot;:&quot;elbowEdgeStyle&quot;,&quot;elbow&quot;:&quot;vertical&quot;,&quot;curved&quot;:0,&quot;rounded&quot;:0};" vertex="1" parent="sL_WX1UmGDlvdirNMwxX-1">
          <mxGeometry x="10" y="130" width="100" height="300" as="geometry" />
        </mxCell>
        <mxCell id="sL_WX1UmGDlvdirNMwxX-3" value="" style="html=1;points=[];perimeter=orthogonalPerimeter;outlineConnect=0;targetShapes=umlLifeline;portConstraint=eastwest;newEdgeStyle={&quot;edgeStyle&quot;:&quot;elbowEdgeStyle&quot;,&quot;elbow&quot;:&quot;vertical&quot;,&quot;curved&quot;:0,&quot;rounded&quot;:0};" vertex="1" parent="sL_WX1UmGDlvdirNMwxX-2">
          <mxGeometry x="45" y="70" width="10" height="140" as="geometry" />
        </mxCell>
        <mxCell id="sL_WX1UmGDlvdirNMwxX-5" value="halaman utama" style="shape=umlLifeline;perimeter=lifelinePerimeter;whiteSpace=wrap;html=1;container=0;dropTarget=0;collapsible=0;recursiveResize=0;outlineConnect=0;portConstraint=eastwest;newEdgeStyle={&quot;edgeStyle&quot;:&quot;elbowEdgeStyle&quot;,&quot;elbow&quot;:&quot;vertical&quot;,&quot;curved&quot;:0,&quot;rounded&quot;:0};" vertex="1" parent="sL_WX1UmGDlvdirNMwxX-1">
          <mxGeometry x="190" y="130" width="100" height="300" as="geometry" />
        </mxCell>
        <mxCell id="sL_WX1UmGDlvdirNMwxX-6" value="" style="html=1;points=[];perimeter=orthogonalPerimeter;outlineConnect=0;targetShapes=umlLifeline;portConstraint=eastwest;newEdgeStyle={&quot;edgeStyle&quot;:&quot;elbowEdgeStyle&quot;,&quot;elbow&quot;:&quot;vertical&quot;,&quot;curved&quot;:0,&quot;rounded&quot;:0};" vertex="1" parent="sL_WX1UmGDlvdirNMwxX-5">
          <mxGeometry x="45" y="80" width="10" height="60" as="geometry" />
        </mxCell>
        <mxCell id="sL_WX1UmGDlvdirNMwxX-7" value="1. buka halapan utama" style="html=1;verticalAlign=bottom;endArrow=block;edgeStyle=elbowEdgeStyle;elbow=vertical;curved=0;rounded=0;" edge="1" parent="sL_WX1UmGDlvdirNMwxX-1" source="sL_WX1UmGDlvdirNMwxX-3" target="sL_WX1UmGDlvdirNMwxX-6">
          <mxGeometry relative="1" as="geometry">
            <mxPoint x="165" y="220" as="sourcePoint" />
            <Array as="points">
              <mxPoint x="150" y="210" />
            </Array>
          </mxGeometry>
        </mxCell>
        <mxCell id="sL_WX1UmGDlvdirNMwxX-10" value="Sitem" style="shape=umlLifeline;perimeter=lifelinePerimeter;whiteSpace=wrap;html=1;container=0;dropTarget=0;collapsible=0;recursiveResize=0;outlineConnect=0;portConstraint=eastwest;newEdgeStyle={&quot;edgeStyle&quot;:&quot;elbowEdgeStyle&quot;,&quot;elbow&quot;:&quot;vertical&quot;,&quot;curved&quot;:0,&quot;rounded&quot;:0};" vertex="1" parent="sL_WX1UmGDlvdirNMwxX-1">
          <mxGeometry x="373" y="130" width="100" height="300" as="geometry" />
        </mxCell>
        <mxCell id="sL_WX1UmGDlvdirNMwxX-11" value="" style="html=1;points=[];perimeter=orthogonalPerimeter;outlineConnect=0;targetShapes=umlLifeline;portConstraint=eastwest;newEdgeStyle={&quot;edgeStyle&quot;:&quot;elbowEdgeStyle&quot;,&quot;elbow&quot;:&quot;vertical&quot;,&quot;curved&quot;:0,&quot;rounded&quot;:0};" vertex="1" parent="sL_WX1UmGDlvdirNMwxX-10">
          <mxGeometry x="45" y="140" width="10" height="70" as="geometry" />
        </mxCell>
        <mxCell id="sL_WX1UmGDlvdirNMwxX-16" value="2. pilih tombol logout" style="html=1;verticalAlign=bottom;endArrow=block;edgeStyle=elbowEdgeStyle;elbow=vertical;curved=0;rounded=0;exitX=0.5;exitY=1;exitDx=0;exitDy=0;exitPerimeter=0;" edge="1" parent="sL_WX1UmGDlvdirNMwxX-1" source="sL_WX1UmGDlvdirNMwxX-6">
          <mxGeometry relative="1" as="geometry">
            <mxPoint x="250" y="270" as="sourcePoint" />
            <Array as="points">
              <mxPoint x="335" y="270" />
            </Array>
            <mxPoint x="420" y="270" as="targetPoint" />
          </mxGeometry>
        </mxCell>
        <mxCell id="sL_WX1UmGDlvdirNMwxX-18" value="" style="shape=umlActor;verticalLabelPosition=bottom;verticalAlign=top;html=1;outlineConnect=0;" vertex="1" parent="sL_WX1UmGDlvdirNMwxX-1">
          <mxGeometry x="40" y="70" width="30" height="60" as="geometry" />
        </mxCell>
        <mxCell id="sL_WX1UmGDlvdirNMwxX-21" value="4. tampilkan konfirmasi berhasil logout" style="html=1;verticalAlign=bottom;endArrow=block;edgeStyle=elbowEdgeStyle;elbow=horizontal;curved=0;rounded=0;" edge="1" parent="sL_WX1UmGDlvdirNMwxX-1" target="sL_WX1UmGDlvdirNMwxX-2">
          <mxGeometry relative="1" as="geometry">
            <mxPoint x="420.45238095238165" y="340" as="sourcePoint" />
            <Array as="points">
              <mxPoint x="420.45238095238165" y="340" />
            </Array>
            <mxPoint x="240" y="340" as="targetPoint" />
          </mxGeometry>
        </mxCell>
      </root>
    </mxGraphModel>
  </diagram>
</mxfile>
